<svg xmlns="http://www.w3.org/2000/svg" xmlns:xlink="http://www.w3.org/1999/xlink" viewBox="0 0 1049.58 678.59"><defs><style>.cls-1{fill:#8dd070;}.cls-2{fill:#504f60;}.cls-3{opacity:0.2;}.cls-11,.cls-3,.cls-8{isolation:isolate;}.cls-4{fill:#ff3437;}.cls-5{fill:#514e7f;}.cls-6{fill:#464353;}.cls-7{fill:#a1616a;}.cls-18,.cls-8{opacity:0.1;}.cls-9{fill:#33323d;}.cls-10{fill:#fbbebe;}.cls-11,.cls-15{opacity:0.05;}.cls-12{fill:#3f3d56;}.cls-13{fill:url(#linear-gradient);}.cls-14{fill:#2d293d;}.cls-16{fill:#ffcdd3;}.cls-17{fill:#575988;}</style><linearGradient id="linear-gradient" x1="1015.37" y1="136.12" x2="1015.37" y2="302.51" gradientTransform="matrix(1, 0, 0, -1, -84.46, 559.66)" gradientUnits="userSpaceOnUse"><stop offset="0" stop-color="gray" stop-opacity="0.25"/><stop offset="0.54" stop-color="gray" stop-opacity="0.12"/><stop offset="1" stop-color="gray" stop-opacity="0.1"/></linearGradient></defs><title>undraw_wallet_aym5</title><g id="baed4b18-14ee-447f-bd84-b0265ca0ad8a"><path class="cls-1" d="M763.89,429.83c-24.6,111.2-182.64,14.81-404.67,51.63C150.21,516.12-10.51,375.14,14.1,263.94s193.89,20,399.8-29.63C639.82,179.89,788.49,318.64,763.89,429.83Z"/></g><g id="Layer_2" data-name="Layer 2"><path class="cls-2" d="M973.57,419.89c0,2-11.71,7.87-25.62,7.87s-24.75-5.86-24.75-7.87,11.28-1.36,25.2-1.36S973.57,417.88,973.57,419.89Z"/><path class="cls-3" d="M973.57,419.89c0,2-11.71,7.87-25.62,7.87s-24.75-5.86-24.75-7.87"/><path class="cls-4" d="M833.49,383a15.55,15.55,0,0,0,6.76-.23c.34-.11.72-.34.68-.68a.7.7,0,0,0-.15-.34,20.61,20.61,0,0,1-2-3.89.4.4,0,0,0-.13-.18.28.28,0,0,0-.22,0c-1,.26-1.86.9-2.85,1.18A4,4,0,0,1,834,379c-.45-.05-1.06-.43-1.47-.38C832.75,380.12,833.32,381.51,833.49,383Z"/><path class="cls-4" d="M876.19,379.26a11.83,11.83,0,0,0,3.9-3.67.65.65,0,0,0,.11-.32.71.71,0,0,0-.13-.31,12.45,12.45,0,0,0-3.17-3.42,8.84,8.84,0,0,0-1.77,1.63c-.38.4-1.41,1-1.42,1.62,0,.34.39.74.58,1s.48.74.7,1.12A14,14,0,0,1,876.19,379.26Z"/><path class="cls-5" d="M842.34,387.59a1.48,1.48,0,0,1-.27,1,1.44,1.44,0,0,1-.58.35c-3.15,1.13-6.81-.28-10,.83-.64.23-1.26.56-1.91.78a10.6,10.6,0,0,1-2.38.42c-1.11.1-2.23.17-3.35.2a8,8,0,0,1-2.53-.22,3,3,0,0,1-1.93-1.53,1.45,1.45,0,0,1-.1-1.1,1.2,1.2,0,0,1,.21-.34,2.87,2.87,0,0,1,.74-.6l1.16-.75a7.62,7.62,0,0,1,1.76-.93c.46-.15.95-.22,1.42-.34a9.58,9.58,0,0,0,4-3l1.58-1.68a1.23,1.23,0,0,1,1.23-.51,9.11,9.11,0,0,1,4.31,1.45,5.88,5.88,0,0,0,1.06.62,3.82,3.82,0,0,0,3-.36c.4-.22.32-.34.49-.73s.58-.64.94-.29a1.06,1.06,0,0,1,.23.43,12.12,12.12,0,0,1,.21,3.51,1.46,1.46,0,0,0,.07.55,2.33,2.33,0,0,0,.31.5l.06.13A3.44,3.44,0,0,1,842.34,387.59Z"/><path class="cls-6" d="M842.34,387.59a1.48,1.48,0,0,1-.27,1,1.44,1.44,0,0,1-.58.35c-3.15,1.13-6.81-.28-10,.83-.64.23-1.26.56-1.91.78a10.6,10.6,0,0,1-2.38.42c-1.11.1-2.23.17-3.35.2a8,8,0,0,1-2.53-.22,3,3,0,0,1-1.93-1.53,1.45,1.45,0,0,1-.1-1.1,1.2,1.2,0,0,1,.21-.34c.18.39.32.9.43,1.08a2.25,2.25,0,0,0,1.48,1.07,3.5,3.5,0,0,0,1.36-.18c2.86-.7,5.9-.72,8.65-1.79a20.66,20.66,0,0,1,2.83-1.09,24,24,0,0,1,3.07-.25c1.61-.13,3.17-.61,4.76-.87A3.49,3.49,0,0,1,842.34,387.59Z"/><path class="cls-5" d="M883.41,379.05a5.72,5.72,0,0,1-1.74,3.11,19.87,19.87,0,0,0-2.44,2.67c-.82,1.25-1.19,2.79-2.25,3.85a6.23,6.23,0,0,1-1.36,1,9.57,9.57,0,0,1-1.75.81,13.11,13.11,0,0,1-5,.27,4.43,4.43,0,0,1-1.57-.31,3.91,3.91,0,0,1-.65-.4,3,3,0,0,1-1-1,1.06,1.06,0,0,1-.1-.74,1.69,1.69,0,0,1,.48-.72,10.27,10.27,0,0,1,1.2-1.08,7.28,7.28,0,0,0,1.56-1.37,4.38,4.38,0,0,0,.6-1.36,12.09,12.09,0,0,0,.44-2.6,8.59,8.59,0,0,1,.18-1.75c.25-.89.92-1.7.84-2.63a.62.62,0,0,1,0-.4.63.63,0,0,1,.31-.19,5.38,5.38,0,0,1,1.63-.38,1.9,1.9,0,0,1,1.51.59c.23.28.38.69.73.79a1,1,0,0,0,.51,0,4.32,4.32,0,0,0,2.39-.73,3,3,0,0,0,1-2.17c0-.31-.14-.63.34-.68s.65.34.84.58a8.17,8.17,0,0,1,1.59,2.9l.3-.06a1.35,1.35,0,0,1,1.09.56A2.16,2.16,0,0,1,883.41,379.05Z"/><path class="cls-6" d="M883.41,379.05a5.72,5.72,0,0,1-1.74,3.11,19.87,19.87,0,0,0-2.44,2.67c-.82,1.25-1.19,2.79-2.25,3.85a6.23,6.23,0,0,1-1.36,1,9.57,9.57,0,0,1-1.75.81,13.11,13.11,0,0,1-5,.27,4.43,4.43,0,0,1-1.57-.31,3.91,3.91,0,0,1-.65-.4,3,3,0,0,1-1-1,2.43,2.43,0,0,1,1-.24c.73,0,1.27.73,2,.95,1,.3,2-.41,3-.65.66-.16,1.36-.12,2-.34a5,5,0,0,0,1.49-.91,7.54,7.54,0,0,0,1.6-1.54,9.32,9.32,0,0,0,.93-1.87,27.73,27.73,0,0,1,1.9-3.62,2.28,2.28,0,0,1,.38-.5,5,5,0,0,1,.52-.38,4,4,0,0,0,1.21-2.19A3.82,3.82,0,0,1,882,377a1.33,1.33,0,0,1,1.09.56A2.14,2.14,0,0,1,883.41,379.05Z"/><path class="cls-7" d="M812,272.89a7.22,7.22,0,0,1,2,2.38c.47.93,3.22,8.17,3.06,9.23.9-.91,4.43-1.05,5.33-2,.38-.37,2.42-2.26,2.73-2.7s2.58-1.36,2.83-1.82c.93-1.67-6.6-8-5.63-9.62a.5.5,0,0,0,.08-.26.46.46,0,0,0-.13-.2,10.92,10.92,0,0,0-2.18-1.49,3.46,3.46,0,0,1-1.65-2,7.44,7.44,0,0,0-1.93,1.3c-1.38,1.19-2.73,2.39-4.07,3.62-.52.49-1.53,1.13-1.77,1.82S811.52,272.48,812,272.89Z"/><path class="cls-5" d="M824.19,270.21a22.55,22.55,0,0,0-3.22,2.63,6.41,6.41,0,0,0-2,3.29c-.1.5-.09,1-.16,1.53-.35,2.23-2.27,3.87-3.12,5.95a10.57,10.57,0,0,0-.55,2,24.31,24.31,0,0,0-.39,3.9c0,1.27,1.23,2.15,1.69,3.33a22,22,0,0,1,.81,3.62,41.83,41.83,0,0,0,2,6.71c1.68,4.64,7.12,17.46,8.8,22.1,5.14-1.29,18.84-4.26,23.39-7,1.52-.9-10.53-11.12-8.91-11.83a.61.61,0,0,0,.51-.69,1,1,0,0,0,0-.16c-1.63-7.1-6.71-12.94-9-19.85-.8-2.41-2.24-4.46-3.33-6.74-1-2.06-1.52-4.35-2.7-6.31a3.9,3.9,0,0,0-.86-1.08,5.32,5.32,0,0,0-1-.57C825.47,270.73,824.84,270.54,824.19,270.21Z"/><circle class="cls-7" cx="812.29" cy="264.03" r="8.05"/><path class="cls-6" d="M820.48,267.81a2.71,2.71,0,0,1,3-.44,1.46,1.46,0,0,1,.89,1.46l4,.06a8,8,0,0,1,1.89.17,2.76,2.76,0,0,1,1.58,1c0,.07.1.15.19.16a.3.3,0,0,0,.18-.06,3.42,3.42,0,0,1,2-.34,10.69,10.69,0,0,1,5.84,2.56,1.91,1.91,0,0,1,.69.85c.14.45,0,1,.34,1.35,0,3.74,1.28,7.24,2.14,10.89a4.89,4.89,0,0,0,1.21,1.74,7,7,0,0,1,1.29,1.93c.73,1.89-.28,4.12.43,6a10.6,10.6,0,0,0,1.36,2.16,5.51,5.51,0,0,1,1.17,2.79c0,.46,0,.92,0,1.36a8.51,8.51,0,0,0,.34,1.81c.29,1.1.59,2.2.91,3.29.52,1.77,1.19,3.68,2.78,4.63-3.83.65-7.87,1.28-11.52-.05a5.71,5.71,0,0,1-1.44-.72,8.32,8.32,0,0,1-2.52-4.06,19,19,0,0,1-1.4-5.25,5.78,5.78,0,0,0-.25-1.7,4.83,4.83,0,0,0-2.26-2.13,11,11,0,0,1-2.72-2.12,4.22,4.22,0,0,1-1.1-3.18c.06-.56.28-1.1.31-1.67a1.32,1.32,0,0,0-.78-1.36c-2.79-.85-4.12-4.15-4.74-7a23,23,0,0,1-.36-4.46l0-2.9a3.86,3.86,0,0,1-1.26-2.75,3.15,3.15,0,0,0,0-.92,2.65,2.65,0,0,0-.64-1A8.53,8.53,0,0,1,820.48,267.81Z"/><path class="cls-6" d="M811.9,277a22,22,0,0,1-.09,2.7c-.08.34-.21.68-.31,1a5.89,5.89,0,0,0,.37,3.79,20.7,20.7,0,0,0,1.94,3.35,5.62,5.62,0,0,1,.62,1.16,6.1,6.1,0,0,1,.24,1.33,40.47,40.47,0,0,0,.94,5.35c.38,1.53,4.71,14.57,5.72,15.78a1.32,1.32,0,0,0,.78.52,1.37,1.37,0,0,0,.66-.13l2-.78a1.59,1.59,0,0,0,.48-.26,1.26,1.26,0,0,0,.29-.81c.15-1.66-4.2-14.79-4.75-16.36-1.67-4.74-3.89-9.31-5-14.22-.31-1.36-.47-3.46-1.46-4.54-.42-.45-.28-.26-.77,0a6.17,6.17,0,0,0-.72.38A2.36,2.36,0,0,0,811.9,277Z"/><path class="cls-4" d="M818.1,286c.55,2.9,1.11,5.79,1.68,8.69l8-2.1a5.52,5.52,0,0,0-.68-2.38c-.73-1.83-.74-3.87-1.33-5.75-.45-1.43-1.23-2.74-1.65-4.18-.24-.84-.36-1.7-.6-2.55a18.06,18.06,0,0,0-.94-2.44,15.5,15.5,0,0,0-1.74-3.23,5.09,5.09,0,0,0-2.69,1.75,3.77,3.77,0,0,0-.5,1.7c-.14,1.8.51,3.6.29,5.39A15.87,15.87,0,0,0,818.1,286Z"/><path class="cls-6" d="M827.9,324.56c.45,1.7-.2,3.49-.73,5.17a40.83,40.83,0,0,0-1.63,7.8,6.58,6.58,0,0,1-.4,2c-.25.57-.68,1.05-1,1.59a8.05,8.05,0,0,0-.61,4.79c.12,1.07.29,2.14.5,3.2a8,8,0,0,1,.21,3.9c.63-.14,1.06.68,1,1.32a3.55,3.55,0,0,0,.06,1.92c.79.29.79,1.36.77,2.2a18.35,18.35,0,0,0,.55,4.29q1.77,8.54,3.77,17c2.88.89,6.24,1.82,9,.59a1.81,1.81,0,0,0,1.14-1.15,2,2,0,0,0-.11-.87l-1.3-4.74a8.56,8.56,0,0,1-.47-3.5c.13-.87.51-1.82.08-2.59-.15-.27-.38-.47-.55-.72-.68-1-.32-2.34-.27-3.55a2.76,2.76,0,0,0-.05-.81,4.15,4.15,0,0,0-.39-.89,13.64,13.64,0,0,1-1.5-6.76,1.66,1.66,0,0,0-.12-.88,3.13,3.13,0,0,1-.22-.36,1,1,0,0,1,.07-.65,6.34,6.34,0,0,1-1.05-1,1.48,1.48,0,0,0,.48-2,2.09,2.09,0,0,0-.22-.28.77.77,0,0,0,.6-.9.85.85,0,0,0-.24-.42c-.17-.11-.39-.16-.51-.34s0-.6.12-.87l.79-1.43c.59-1.07.73-2.38,1.36-3.41a24.86,24.86,0,0,0,2.1-4.78l2.29-6.33,1.55,1.34a4.75,4.75,0,0,1,1.26,1.45,6,6,0,0,1,.41,1.72c.57,3.44,2.73,6.41,3.53,9.79a6.51,6.51,0,0,0,.73,2.19,5.23,5.23,0,0,1,.41.63,3.29,3.29,0,0,1,.18,1,4.84,4.84,0,0,0,2,3.47c.76.52,1.7.88,2.11,1.7a3.74,3.74,0,0,0,.34.73c.37.44,1.17.49,1.32,1.05.09.31-.07.68.1.95a1,1,0,0,0,.38.28l2.22,1.11c2.47,1.24,3.74,4.08,5.57,6.16a13.28,13.28,0,0,1,1.67,2.2c.79,1.42,1.15,3.19,2.49,4.09a3.77,3.77,0,0,1,1,.72c.42.55.27,1.32.31,2s.57,1.52,1.23,1.31a4.87,4.87,0,0,0,0,2.57,13,13,0,0,0,7.85-3.18,3.12,3.12,0,0,0,1.28-2.15.79.79,0,0,0-.1-.42,1.17,1.17,0,0,0-.5-.38c-2.07-1.12-2.7-3.73-3.75-5.84a49.53,49.53,0,0,0-3.4-5.21c-2.47-3.73-4.15-8.24-7.88-10.7a5.3,5.3,0,0,1-2.18-1.92c-.23-.5-.26-1.07-.44-1.59a1.37,1.37,0,0,0-1.16-1,7.27,7.27,0,0,0,.26-2.47,3.23,3.23,0,0,0-.12-1.07,5.25,5.25,0,0,0-.55-1.05,10.13,10.13,0,0,1-1.4-5.45,8.76,8.76,0,0,0-.1-2.94c-.15-.47-.41-.91-.59-1.36a8.58,8.58,0,0,1-.42-2.56l-.21-3.27a16.07,16.07,0,0,0-.42-3.24c-.68-2.54-1.36-13.18-3.7-14.38s-6.34,7-9,7.15a11.71,11.71,0,0,0-3.41.66,16.49,16.49,0,0,0-4.63,3.06l-4.83,4.06A18.15,18.15,0,0,1,827.9,324.56Z"/><path class="cls-6" d="M804.73,255.09a6.06,6.06,0,0,1,4.69-2.29,11,11,0,0,1,5.17,1.3,6.48,6.48,0,0,0,1.52.62c.85.17,1.79-.06,2.56.34,1,.54,1.22,1.92,1.13,3.07s-.3,2.41.31,3.4a7.62,7.62,0,0,1,.59.89,2.92,2.92,0,0,1-.05,1.89,12.29,12.29,0,0,1-1-1.25,1.15,1.15,0,0,0-1.41-.36c-.43.3-.43.83-.45,1.32s-.15,1.06-.6,1.22a1,1,0,0,1-1-.4c-.78-1-.46-2.48-1.24-3.44-.43-.54-1.17-.81-1.57-1.38s-.4-1-.68-1.51-.93-.83-1.36-.5a1.76,1.76,0,0,0-.37.49,2.1,2.1,0,0,1-2.48.75,4,4,0,0,0-1.08-.47,1.33,1.33,0,0,0-1.23.68,2.71,2.71,0,0,0-.34,1.42,3.29,3.29,0,0,1-.27,2,1.88,1.88,0,0,1-.54.51,1.7,1.7,0,0,1-1.89.2,1.42,1.42,0,0,1-.42-1.32,11.2,11.2,0,0,1,.4-1.4c.3-1.06-.09-2.24.24-3.24A10,10,0,0,1,804.73,255.09Z"/><path class="cls-4" d="M809,279.11a1.26,1.26,0,0,0,.08.74,1.12,1.12,0,0,0,.4.38,8.17,8.17,0,0,0,3.79,1.23,1.08,1.08,0,0,1,.53.14.91.91,0,0,1,.22,1,2.76,2.76,0,0,0-.24,1.13c.1.71.94,1,1.65,1.12a3.8,3.8,0,0,0,2.88-.56,4.37,4.37,0,0,0,1.19-1.78c2-4.49,2.64-9.45,4.62-13.93a3,3,0,0,0,.3-.94.91.91,0,0,0-.37-.85c-.37-.23-.94-.1-1.19-.46-.12-.18-.11-.43-.22-.62-.23-.4-.83-.34-1.23-.57s-.55-.52-.9-.59a1.13,1.13,0,0,0-.93.4,12,12,0,0,0-2.42,4.07,49,49,0,0,1-3.46,6.42,3.83,3.83,0,0,0-1.08-2.13c-.61-.12-1.39.95-1.72,1.35A8.55,8.55,0,0,0,809,279.11Z"/><path class="cls-8" d="M821.41,265.51a1.61,1.61,0,0,0-1.26.63,3.74,3.74,0,0,0-.53,1.7,14.89,14.89,0,0,1-2,5.39"/><path class="cls-8" d="M823.15,266.86a2,2,0,0,0-1.65,1,5.52,5.52,0,0,0-.42,1.69,9.08,9.08,0,0,1-1.65,3.53"/><path class="cls-9" d="M904.08,333.43V329.2a11.74,11.74,0,0,0-11.74-11.73h-167a11.74,11.74,0,0,0-11.74,11.73V337Z"/><path class="cls-1" d="M771.78,312.51s-.47,29.58,4.77,39.31S784,403.88,784,403.88s55,5.69,93.28-6.81,119.82-17.6,119.82-17.6L983.4,286.89S915.54,282.53,876.94,301,771.78,312.51,771.78,312.51Z"/><path class="cls-8" d="M771.78,312.51s-.47,29.58,4.77,39.31S784,403.88,784,403.88s55,5.69,93.28-6.81,119.82-17.6,119.82-17.6L983.4,286.89S915.54,282.53,876.94,301,771.78,312.51,771.78,312.51Z"/><path class="cls-1" d="M784,323.31s-1.72,24.41,2.59,32.2,4.52,42.61,4.52,42.61,49.47,2.3,84.66-9.68,109.15-19.75,109.15-19.75L976.46,293s-61.19-.63-96.9,16.23S784,323.31,784,323.31Z"/><ellipse class="cls-8" cx="875.61" cy="347.24" rx="12.84" ry="27.55" transform="translate(-36.21 110.89) rotate(-7.1)"/><path class="cls-3" d="M946.2,241.79s-65.93,16.68-97,46-96.53,43.27-96.53,43.27,8.62,28.3,16.6,35.95,23.1,47.26,23.1,47.26S846.41,402.86,879,379.2s108.64-53.53,108.64-53.53Z"/><path class="cls-1" d="M751.66,326.88s8.62,28.29,16.58,35.95,23.1,47.26,23.1,47.26S845.41,398.63,878,375s108.64-53.53,108.64-53.53L945.2,237.55s-65.92,16.69-97,46.06S751.66,326.88,751.66,326.88Z"/><path class="cls-8" d="M751.66,326.88s8.62,28.29,16.58,35.95,23.1,47.26,23.1,47.26S845.41,398.63,878,375s108.64-53.53,108.64-53.53L945.2,237.55s-65.92,16.69-97,46.06S751.66,326.88,751.66,326.88Z"/><path class="cls-1" d="M766.54,333.43s5.86,23.76,12.36,29.85,17.36,39.16,17.36,39.16,47.79-13,77.61-35.2S971.69,315,971.69,315l-31.23-69.5S882,263.65,853.22,290.66,766.54,333.43,766.54,333.43Z"/><ellipse class="cls-8" cx="861.14" cy="328.07" rx="12.84" ry="27.55" transform="matrix(0.91, -0.42, 0.42, 0.91, -58, 394.19)"/><path class="cls-8" d="M908.58,337.58V455.06a10.15,10.15,0,0,1-10.15,10.16H723.74a10.16,10.16,0,0,1-10.15-10.16V325.74c5,1.86,5,1.86,10.15,1.7H898.42A10.16,10.16,0,0,1,908.58,337.58Z"/><path class="cls-2" d="M908.58,339.08V456.55a10.16,10.16,0,0,1-10.16,10.16H723.74a10.15,10.15,0,0,1-10.15-10.16V327.23c5,1.86,5,1.86,10.15,1.7H898.42A10.15,10.15,0,0,1,908.58,339.08Z"/><path class="cls-8" d="M908.09,382.51v37.57H871.65a18.79,18.79,0,0,1,0-37.57Z"/><path class="cls-9" d="M908.58,381.51v37.57H872.15a18.78,18.78,0,0,1,0-37.56Z"/><circle class="cls-8" cx="873.9" cy="401.3" r="7.32"/><circle class="cls-4" cx="874.39" cy="400.3" r="7.32"/><path class="cls-10" d="M971.83,381.19c.29,3.13-2.09,6.18-1.4,9.25.15.65.44,1.27.54,1.94.29,1.82-.8,3.55-1.84,5.08l-8.92,13.08a8.46,8.46,0,0,1-1.27,1.58c-1.71,1.52-4.27,1.36-6.51,1.81a11.19,11.19,0,0,0-4.36,1.93.28.28,0,0,0,0,.38,3.72,3.72,0,0,0,3.24,1.52c.24.31,0,.77-.34,1s-1.13.42-1.23,1.23a1.38,1.38,0,0,0,.16.82,2.51,2.51,0,0,0,1.56,1.08c3.09.95,6.43-.71,8.74-3s4-5.11,6.24-7.41c1.26-1.27,2.68-2.36,4-3.59a45.81,45.81,0,0,0,6.52-8.44,9.36,9.36,0,0,0,1.41-2.87c.25-1.05.13-2.1.41-3.12a11.41,11.41,0,0,1,2.14-3.49,11.59,11.59,0,0,0,2.43-7.53,7.22,7.22,0,0,0-4.41-6.25,3.94,3.94,0,0,0-2.47-.15,5.92,5.92,0,0,0-2.51,2l-1.7,2a4.56,4.56,0,0,0-1,1.5,1.57,1.57,0,0,0,.34,1.66"/><path class="cls-11" d="M971.83,381.19c.29,3.13-2.09,6.18-1.4,9.25.15.65.44,1.27.54,1.94.29,1.82-.8,3.55-1.84,5.08l-8.92,13.08a8.46,8.46,0,0,1-1.27,1.58c-1.71,1.52-4.27,1.36-6.51,1.81a11.19,11.19,0,0,0-4.36,1.93.28.28,0,0,0,0,.38,3.72,3.72,0,0,0,3.24,1.52c.24.31,0,.77-.34,1s-1.13.42-1.23,1.23a1.38,1.38,0,0,0,.16.82,2.51,2.51,0,0,0,1.56,1.08c3.09.95,6.43-.71,8.74-3s4-5.11,6.24-7.41c1.26-1.27,2.68-2.36,4-3.59a45.81,45.81,0,0,0,6.52-8.44,9.36,9.36,0,0,0,1.41-2.87c.25-1.05.13-2.1.41-3.12a11.41,11.41,0,0,1,2.14-3.49,11.59,11.59,0,0,0,2.43-7.53,7.22,7.22,0,0,0-4.41-6.25,3.94,3.94,0,0,0-2.47-.15,5.92,5.92,0,0,0-2.51,2l-1.7,2a4.56,4.56,0,0,0-1,1.5,1.57,1.57,0,0,0,.34,1.66"/><path class="cls-12" d="M978.58,461.92a10.29,10.29,0,0,1-6.64,1c-.36,0-.8-.07-1,.22s.06,1,.47,1.33a9.82,9.82,0,0,0,4.56,1.88,30.29,30.29,0,0,0,4.46.3,75.16,75.16,0,0,0,12.2-.45,1.78,1.78,0,0,0,.68-.2,1.2,1.2,0,0,0,.5-.76,3,3,0,0,0-1.06-2.9,8.77,8.77,0,0,0-2.84-1.53l-3.54-1.38c-.83-.32-2.16-1.18-3.06-1.11C981.59,458.42,980,461.1,978.58,461.92Z"/><path class="cls-11" d="M978.58,461.92a10.29,10.29,0,0,1-6.64,1c-.36,0-.8-.07-1,.22s.06,1,.47,1.33a9.82,9.82,0,0,0,4.56,1.88,30.29,30.29,0,0,0,4.46.3,75.16,75.16,0,0,0,12.2-.45,1.78,1.78,0,0,0,.68-.2,1.2,1.2,0,0,0,.5-.76,3,3,0,0,0-1.06-2.9,8.77,8.77,0,0,0-2.84-1.53l-3.54-1.38c-.83-.32-2.16-1.18-3.06-1.11C981.59,458.42,980,461.1,978.58,461.92Z"/><path class="cls-6" d="M981.06,414.91c-1.47,2-3,4.23-2.63,6.65a14.8,14.8,0,0,0,1.46,3.67,26.38,26.38,0,0,1,1.49,5.17c.55,2.56,1.1,5.14,1.44,7.75.39,2.94-1.42,11.46-1.59,14.43a3,3,0,0,1-.62,2c-.2.21-.45.37-.54.64a1.06,1.06,0,0,0,.12.74,8.24,8.24,0,0,0,4.42,4.07,34.82,34.82,0,0,0,8.54,2.24,1.67,1.67,0,0,0,.8-.1,1.58,1.58,0,0,0,.62-.71c1.48-2.84.06-12.91.08-16.11,0-2.66.65-5.31.54-8-.1-2.14-.69-4.23-.88-6.36a37.68,37.68,0,0,1,.94-10.46c.49-2.65,1-5.3,1.62-7.91a15.16,15.16,0,0,1,1.7-4.6c.68-1.1,1.64-2,2.43-3.06a13.89,13.89,0,0,0,2.73-10.13c-.05-.34-5.11,1.28-5.56,1.48a17.46,17.46,0,0,0-4.95,3.18,43.12,43.12,0,0,0-3.12,3.86q-2.18,2.65-4.3,5.34Q983.39,411.79,981.06,414.91Z"/><path class="cls-11" d="M981.06,414.79c-1.47,2-3,4.23-2.63,6.65a14.87,14.87,0,0,0,1.46,3.68,26.09,26.09,0,0,1,1.49,5.16c.55,2.57,1.1,5.14,1.44,7.75.39,3-1.42,11.46-1.59,14.43a3.05,3.05,0,0,1-.62,2c-.2.2-.45.36-.54.63a1.1,1.1,0,0,0,.12.75,8.37,8.37,0,0,0,4.42,4.08,32.89,32.89,0,0,0,8.54,1.6,1.68,1.68,0,0,0,.8-.11,1.43,1.43,0,0,0,.62-.71c1.48-2.83.06-12.25.08-15.45,0-2.67.65-5.32.54-8-.1-2.13-.69-4.22-.88-6.35a37.68,37.68,0,0,1,.94-10.46c.49-2.65,1-5.3,1.62-7.92a15.2,15.2,0,0,1,1.7-4.59c.68-1.1,1.64-2,2.43-3.06a13.89,13.89,0,0,0,2.73-10.13c-.05-.34-5.11,1.28-5.56,1.48a17.46,17.46,0,0,0-4.95,3.18,43.12,43.12,0,0,0-3.12,3.86q-2.18,2.66-4.3,5.34C984.19,410.66,982.61,412.71,981.06,414.79Z"/><circle class="cls-10" cx="964.66" cy="363.45" r="8.26"/><path class="cls-10" d="M972.1,363.1a10.71,10.71,0,0,0,6.86,4.79l-.62,2.26c-1.08,3.89-2.29,8-5.29,10.7a5,5,0,0,0-.84-3.87,14.66,14.66,0,0,0-2.8-2.93l-4.76-4.12a1.45,1.45,0,0,1-.34-.4,1.2,1.2,0,0,1,0-.91c.6-1.88,2.33-3.06,3.74-4.33a13.23,13.23,0,0,0,1.89-2.2C970.89,360.74,971.48,362.1,972.1,363.1Z"/><path class="cls-6" d="M953.77,355.14l-.19-1.55c1.31.34,2.55-.77,3.38-1.92s1.61-2.5,2.88-3c1.54-.58,3.17.34,4.65,1.12a14.78,14.78,0,0,0,5.33,1.73,3.39,3.39,0,0,1,.89.15c1,.34,1.41,1.54,1.55,2.64a10.37,10.37,0,0,0,.58,3.22c.34.74,1,1.29,1.36,2,1,1.95,0,4.63,1.1,6.54l-2.65-2.42c-.24-.22-.58-.46-.85-.27s-.23.47-.31.73a1.39,1.39,0,0,1-1.89.68,5.5,5.5,0,0,1-1.7-1.54,10.39,10.39,0,0,0-4.2-3.19,5.4,5.4,0,0,0-4.43.3c-1.24.7-2.14,2.32-3.66,2.38-2.07.08-2.94-3.79-3.9-5.32a1.86,1.86,0,0,0,.54-2.34C952.39,355.06,953.74,354.9,953.77,355.14Z"/><path class="cls-7" d="M851.55,306.83a16.61,16.61,0,0,0-1.83,1.92,3.91,3.91,0,0,0-.85,2.48,1.32,1.32,0,0,0,.24.72.61.61,0,0,0,.68.21.83.83,0,0,0,.34-.3,16.72,16.72,0,0,1,1.15-1.24c.14-.14.34-.3.54-.24a.65.65,0,0,1,.23.15,1.62,1.62,0,0,1,.48.75,1.78,1.78,0,0,1-.53,1.45,3.81,3.81,0,0,0-.89,1.31.64.64,0,0,0,0,.43.73.73,0,0,0,.27.22,3.8,3.8,0,0,0,3.21.21c.68-.27,1.29-.75,2-1a4.71,4.71,0,0,0,.88-.34,1.87,1.87,0,0,0,.78-1.17,4.9,4.9,0,0,0,0-1.43,16.58,16.58,0,0,0-1.17-5.39.72.72,0,0,0-.2-.29.67.67,0,0,0-.34-.09c-.87-.09-2.3-.54-3.14-.22a2.27,2.27,0,0,0-.75.66C852.54,305.82,851.55,306.6,851.55,306.83Z"/><path class="cls-6" d="M851.28,306.06c0-.83-1-2.84.6-3,0-.89-1.26-1.44-1-2.39.07-.31.34-.57.37-.89.1-.9-1.54-1.4-1.27-2.27.1-.34.47-.54.54-.88.19-.78-1.22-1.13-1.25-1.94,0-.27.16-.53.14-.8s-.29-.6-.46-.9c-.42-.75-.21-1.93-1-2.32.51,0,.68-.72.47-1.19s-.64-.87-.65-1.39a1.75,1.75,0,0,0,0-.56c-.14-.5-1-.54-1.09-1a5.24,5.24,0,0,1,0-.56c0-.39-.45-.63-.82-.74a3.31,3.31,0,0,1-1.09-.39c-.24-.18-.52-.48-.77-.34a1,1,0,0,0-.22.25c-.3.35-.89.2-1.27-.06a5.25,5.25,0,0,1-2-3.51c-.24-1.36-.23-2.75-.54-4.09a7.57,7.57,0,0,0-.37-1.23c-.12-.34-.54-.87-.57-1.22-.06-.78,1.56-.24,2.18-.17a10.64,10.64,0,0,1,1.77.34,19.31,19.31,0,0,1,1.8.8c2.46,1.08,5.43,1.22,7.41,3a6.2,6.2,0,0,0,2,1.66,7.35,7.35,0,0,1,1.14.3c.94.44,1.09,1.68,1.6,2.58a5.52,5.52,0,0,1,.42.75,3,3,0,0,1,.13.95l.07,2.36a85.19,85.19,0,0,1-.19,11.85,9.69,9.69,0,0,0,.05,3.87c.1.35.24.67.34,1a6.26,6.26,0,0,1,.13,1.23l0,1.52a.5.5,0,0,1-.07.34.48.48,0,0,1-.41.1c-2.13-.19-4.29-1.39-6.29-.66"/><ellipse class="cls-2" cx="948.4" cy="419.89" rx="25.18" ry="3.64"/><path class="cls-13" d="M970.06,420.07c-.44-1.9-.72-3.56-.72-3.56a7.29,7.29,0,0,0-.82-3.62v-.51h0v-3.82a13.6,13.6,0,0,1,1-2c.69-1.19,0-5.59,0-5.59s-2.54-6.19-1.92-10.12-5.23-17.45-5.23-17.45a17.36,17.36,0,0,1,.55-3.86,3.18,3.18,0,0,0,.08-.81v-.07c-.09-2.59-2.14-7.45-2.14-7.45l.27-9.25a27.21,27.21,0,0,0-.82-12.79c-.75-2.55-1.22-4.6-1.53-6.18,0-.18-.06-.34-.09-.51,4.39-.68,7.74-1.23,7.74-1.23s-2.54-10.65-4.26-12.52S959,311,959,311s-.89-7.52.55-9.72,1.65-6,1.65-6,3.3-2.38,3.72-3.46a17.94,17.94,0,0,0,1.1-4.73c0-1.26-.41-2.38-.28-3.06s-1-3.2-.41-4.4a3.26,3.26,0,0,0,.22-1.15v0h0a16.32,16.32,0,0,0-.29-3.12,8.79,8.79,0,0,0-3.27-1.75l-.07-.29-.19-.75a3.37,3.37,0,0,0-.32-.19v-.27l0-1.08.52-2.43c1-4.23-4.63-4.86-4.63-4.86a3,3,0,0,0-1.6-1.41c-1.14-.39-.19,6.36.34,6.81a26.1,26.1,0,0,1,2.22,3.49h0l.1.17-.26.27.22,1.47,0,.23a6,6,0,0,0-.9,1.53,3.3,3.3,0,0,1,.82,2.39,7.46,7.46,0,0,0,.35,2.92c-.07-.07-.79-.85-1.52-.66s-2.75.8-2.75.8-1.51.27-1.36.6-1,1.8-1,1.8l-4.07-3.86-.12-.34a9.66,9.66,0,0,1-.34-1.7,9.36,9.36,0,0,0,1.3-.41,2.92,2.92,0,0,0,1.13-.72,4.3,4.3,0,0,0,.65-1.76A26.56,26.56,0,0,1,952,272a11,11,0,0,0,.77-6.06,4,4,0,0,0-.62-1.77c-.67-.91-1.87-1.28-2.75-2s-1.44-1.84-2.46-2.38a4.83,4.83,0,0,0-3.08-.27,16.76,16.76,0,0,0-5.77,2.1,3,3,0,0,1-1.93.63,2.51,2.51,0,0,1-1.39-1s0,0,0-.05a.21.21,0,0,1,0-.06,7.29,7.29,0,0,0-.64,3.05,3.7,3.7,0,0,0,0,.48v.31h0a.78.78,0,0,1,0,.22,1.47,1.47,0,0,1-.38.55,3.79,3.79,0,0,0-.34.45.58.58,0,0,1,.06-.17,2.48,2.48,0,0,0-.43,1.29,1.27,1.27,0,0,0,.31.91,4.86,4.86,0,0,0,.66.54,7.73,7.73,0,0,0-.12,1.36,7.87,7.87,0,0,0,3.84,6.71l.13.34a9.75,9.75,0,0,1,.74,4.43,1.92,1.92,0,0,1-.05.32c0,.1-.1.11-.14.17h0s-6.72.06-8.3-1.37-4,3.5-4,3.5-2.41.47-2.89,0-3.3-.06-3.3-.06a6.09,6.09,0,0,0-4.2-1.54,12.46,12.46,0,0,0-3.07-1.7h0l-.07,0h0a3.56,3.56,0,0,0-1.52-.19,30.36,30.36,0,0,1-4.26-4.19c-1-1.47-5.55-6.9-5.57-6.93v-.26l0-.79-.42,0a2.22,2.22,0,0,0-.09-.28,15.3,15.3,0,0,0-1-2.24s0-1,.29-1.25-.12-3.91-.12-3.91-3-7-5.64-1.76c0,0-5,3.36-.81,7.27,0,0,1.7.82,1.92,1.47.16.42.73,1.59,1.12,2.38l.17.34,0,0,.06.66,0,.25c-.8.45-1.34.9-1.2,1.24a7.84,7.84,0,0,1,.48,1.8s5.85,7.32,6.6,10.45c0,0,15.69,9.33,20.85,10l-.92,4.65a37,37,0,0,0-.2,3.79c.07,1-.62,5.53-.62,5.53s-.9,6.66-1.65,7.59-.62,4.93-.62,4.93a33.93,33.93,0,0,1-1,5.66,14.38,14.38,0,0,0-.21,5.66s-2.61,6,3.65,1.93c0,0,3.06-.19,6.61-.31v.34c0,.46,0,.95,0,1.47,0,3.43-.07,8.17.08,11.74.28,6.33,2.21,18.85,2.21,18.85v6.3a8.34,8.34,0,0,0-.19,1.8,11.64,11.64,0,0,0,1.71,6.29l.48,4.2a16.31,16.31,0,0,1,1.15,4.42,1.75,1.75,0,0,1-.05.4,2.81,2.81,0,0,0,0,.65,35.93,35.93,0,0,0,1.08,6.47s.07,4.59.76,4.86-.79,2.64-1.2,3.34a.59.59,0,0,1,0-.13l-.09.14a3.26,3.26,0,0,0-.21,1.16,1.66,1.66,0,0,0,.76,1.61c1.31.8,2,1.47.9,1.73-.41.07-.81.15-1.21.26a.39.39,0,0,0-.06-.15.72.72,0,0,0-.45.8,3.5,3.5,0,0,0,.4,1.55,17,17,0,0,0,1.86,3.4l.53-.06a2.81,2.81,0,0,1-.3.57,2.13,2.13,0,0,1-.78.68,2.46,2.46,0,0,1-.94.33,2.61,2.61,0,0,0-1.95.94c-.68.89-1.12,2.1.24,3.16l4.92,1.7s8.46,1.1,8-.8-.72-3.56-.72-3.56a7.47,7.47,0,0,0-.68-3.36,4.14,4.14,0,0,0-.3-.5l.3,0s.62-4.2,1.44-5c.19-.18.24-.34.19-.43s-.13-.36-.4-.44l-.07.16a4.48,4.48,0,0,0-.82-.09s-.27-2.19.62-3a.88.88,0,0,0,.18-.66,3.8,3.8,0,0,0-.1-.89l0,.05a32.56,32.56,0,0,0-2-5.16,6.34,6.34,0,0,1,.48-2.8c.55-.8-.07-10.86-.07-10.86s.21-4.85-.41-7.12.75-4.93.75-4.93v-.18l-.08-.76v0c-.14-1.28-.4-3.61-.59-4.69a87.94,87.94,0,0,1,.07-8.85l1.24-3.14,2.2,5.4,2.34,7.19a6.1,6.1,0,0,1,1.18,3.07v.22a3.85,3.85,0,0,0,0,.48,4.2,4.2,0,0,0,.71,2.57s.62,3.4,1.58,4.26a3.83,3.83,0,0,1,1,2.53,43.19,43.19,0,0,0,1.71,5.78,8.75,8.75,0,0,1,.48,3.35h0v.18s.16,1.76.16,3.24V395a4.87,4.87,0,0,1-.15,1.2l0,.07a.69.69,0,0,1,0-.25,12.12,12.12,0,0,0-.34,3.06c0,1.77.24,3.87,1.31,5.11,1.86,2.13,3,1.87,3,1.87s-.9,2.66-2,3.19l-.12.08c0-.06,0-.11,0-.16a1.27,1.27,0,0,0-.34,1,7.12,7.12,0,0,0,1.36,3.94,2.26,2.26,0,0,0,.93.55l-.18.1a2.53,2.53,0,0,1-.37.18,1.85,1.85,0,0,1-.57.15,2.62,2.62,0,0,0-1.94.95c-.68.88-1.12,2.09.23,3.15l4.93,1.71S970.51,422,970.06,420.07Z"/><path class="cls-14" d="M937.75,423.21l-4.77-1.7c-1.32-1.06-.9-2.27-.23-3.16a2.52,2.52,0,0,1,1.88-.94,2.37,2.37,0,0,0,.91-.33,2.25,2.25,0,0,0,.76-.68,3.53,3.53,0,0,0,.54-1.84s5.23-1.53,6.66,0a3.63,3.63,0,0,1,.63.93,7.68,7.68,0,0,1,.68,3.37s.27,1.66.7,3.56S937.75,423.21,937.75,423.21Z"/><path class="cls-14" d="M961.05,420.87l-4.77-1.71a2.06,2.06,0,0,1-.23-3.15,2.5,2.5,0,0,1,1.88-.95,1.73,1.73,0,0,0,.55-.15,2.53,2.53,0,0,0,.37-.18,3,3,0,0,0,1.29-2.53s5.23-1.53,6.66,0a4.16,4.16,0,0,1,.51.68,7.61,7.61,0,0,1,.79,3.62s.27,1.66.68,3.56S961.05,420.87,961.05,420.87Z"/><path class="cls-8" d="M943.5,414.56a3.75,3.75,0,0,1,.64.93h0l-7.83.9a3.62,3.62,0,0,0,.54-1.84S942.07,413,943.5,414.56Z"/><path class="cls-8" d="M967.31,412.89v1.47c-1.22,2-7.11,1.56-8.82.56l.36-.18a3,3,0,0,0,1.3-2.53s5.23-1.53,6.66,0A4.1,4.1,0,0,1,967.31,412.89Z"/><path class="cls-6" d="M968.24,406.56a14.53,14.53,0,0,0-.93,2v5.26c-1.33,2.2-8.26,1.47-9.19.27s-1.92-4.32-.86-4.86,1.93-3.2,1.93-3.2-1.14.27-2.93-1.86-1.27-6.86-.93-8a23.89,23.89,0,0,0,0-4.93s.06-2.67-.47-3.53a43.79,43.79,0,0,1-1.66-5.79,3.91,3.91,0,0,0-.94-2.53c-.93-.86-1.53-4.26-1.53-4.26a4.38,4.38,0,0,1-.66-2.87,5.79,5.79,0,0,0-1.14-3.46l-2.26-7.19-2.13-5.4-1.2,3.13s-.34,7.33-.06,8.86.68,5.59.68,5.59a8.26,8.26,0,0,0-.74,4.93,33.77,33.77,0,0,1,.39,7.13s.6,10.05.06,10.85a6.6,6.6,0,0,0-.47,2.8s2.73,5.86,1.87,6.66-.6,3-.6,3,1.86,0,1.07.8-1.4,5-1.4,5l-8.06.94a17.13,17.13,0,0,1-1.8-3.4c-1.06-2.48.2-2.2,1.27-2.47s.4-.93-.87-1.73-.53-2.6-.53-2.6,1.93-3.26,1.26-3.53-.73-4.86-.73-4.86-1.33-5.45-1-6.92-1.06-5-1.06-5l-.47-4.19a11.58,11.58,0,0,1-1.46-7.93V366.8s-1.87-12.51-2.13-18.84c-.17-4-.13-9.58-.07-13,0-1.94.07-3.22.07-3.22l28.76-3a23.8,23.8,0,0,0,.52,4.28c.3,1.58.76,3.62,1.48,6.18a28.14,28.14,0,0,1,.8,12.78l-.27,9.26s2.53,6.19,2,8.32a18.14,18.14,0,0,0-.54,3.87s5.66,13.52,5.06,17.45S968.23,401,968.23,401,968.91,405.37,968.24,406.56Z"/><path class="cls-11" d="M951.8,371.87l8.75-1.17S955.59,375.77,951.8,371.87Z"/><path class="cls-8" d="M959.29,362.15s.3,3.1-1.6,4.26C957.69,366.41,961.08,365.88,959.29,362.15Z"/><path class="cls-8" d="M958.75,352.29s-7.32,6-10,5.53S958.75,352.29,958.75,352.29Z"/><path class="cls-8" d="M940.94,374.7s-5.56,1.26-5.73,3.5S940.94,374.7,940.94,374.7Z"/><path class="cls-11" d="M942.16,402.47s-7.85,1.47-5.62,2.46a38,38,0,0,0,5.89,1.8S945,406.86,942.16,402.47Z"/><g class="cls-15"><path d="M935,406.52a1.57,1.57,0,0,1-.72-1.14l-.08.14s-.73,1.8.53,2.6a4.86,4.86,0,0,1,.41.27c.24-.05.49-.08.73-.14C936.89,408,936.22,407.32,935,406.52Z"/><path d="M945.07,406c.22-.19.21-.7.08-1.36a3.89,3.89,0,0,0-.45,1.93A1.75,1.75,0,0,1,945.07,406Z"/><path d="M943.86,372.86a8.86,8.86,0,0,0-.53,2.45,10,10,0,0,1,.61-1.69Z"/><path d="M961.85,369.36a3,3,0,0,0,.08-.73c-.1.5-.17,1-.22,1.37C961.75,369.79,961.8,369.59,961.85,369.36Z"/><path d="M943.67,396.53a4.24,4.24,0,0,0,.2-1.48,5,5,0,0,0-.38,1.87A1.73,1.73,0,0,1,943.67,396.53Z"/><path d="M945.31,409.09a27.18,27.18,0,0,0-.92,4.09l-8,.93a16.42,16.42,0,0,1-1.8-3.41c-.09-.19-.16-.39-.23-.58-.48.22-.68.72,0,2.18a16.86,16.86,0,0,0,1.8,3.4l8.06-.93s.6-4.2,1.39-5C945.93,409.39,945.68,409.19,945.31,409.09Z"/><path d="M934.68,397.13s.07,4.6.74,4.86h0c.34-.76.56-1.48.26-1.6-.68-.27-.73-4.86-.73-4.86s-1.33-5.45-1-6.93-1.07-5-1.07-5l-.46-4.19a11.54,11.54,0,0,1-1.47-7.93V365s-1.86-12.52-2.13-18.85c-.17-4.05-.12-9.58-.07-13,0-.62,0-1.17,0-1.64l-.22,0s0,1.28-.07,3.21c-.06,3.45-.11,9,.07,13,.26,6.33,2.12,18.85,2.12,18.85v6.47a11.61,11.61,0,0,0,1.47,7.92l.46,4.2s1.4,3.52,1.07,5S934.68,397.13,934.68,397.13Z"/><path d="M958.39,412.31a7.94,7.94,0,0,1-1.28-3.16c-.82.74.13,3.62,1,4.77s7.85,1.93,9.19-.27v-1.27C965.51,414.16,959.27,413.45,958.39,412.31Z"/><path d="M968.51,404.79a13,13,0,0,0-.93,2v.94a14.21,14.21,0,0,1,.68-1.34,4,4,0,0,0,.29-1.65Z"/><path d="M958.8,405.84a14.62,14.62,0,0,0,.66-1.58s-1.14.26-2.94-1.87c-1.3-1.55-1.38-4.48-1.19-6.39-.34,1.13-.87,5.86.93,8A4.74,4.74,0,0,0,958.8,405.84Z"/><path d="M955.33,391.07a37.15,37.15,0,0,1,.13,3.95,4.29,4.29,0,0,1,.14-.62,23.19,23.19,0,0,0,0-4.93s.06-2.66-.47-3.53a42,42,0,0,1-1.65-5.79,3.92,3.92,0,0,0-.93-2.53c-.94-.87-1.53-4.27-1.53-4.27a4.32,4.32,0,0,1-.69-2.86A5.74,5.74,0,0,0,949.2,367l-2.26-7.19-2.13-5.4-1.2,3.13s0,.4-.05,1l1-2.55,2.13,5.39,2.26,7.19a5.79,5.79,0,0,1,1.14,3.46,4.36,4.36,0,0,0,.68,2.86s.6,3.41,1.53,4.27a3.92,3.92,0,0,1,.93,2.53,44.22,44.22,0,0,0,1.66,5.79C955.4,388.4,955.33,391.07,955.33,391.07Z"/></g><path class="cls-16" d="M960.92,268.56l-.5,2.43,0,1.08,0,.8-2.78.28-.31-.57h0a26.08,26.08,0,0,0-2.16-3.49c-.51-.43-1.43-7.19-.34-6.79a2.91,2.91,0,0,1,1.55,1.4S961.9,264.33,960.92,268.56Z"/><path class="cls-8" d="M960.47,272.87l-2.78.28-.31-.57h0a2.45,2.45,0,0,1,3.06-.51Z"/><path class="cls-4" d="M961.17,274.18l-3.66.85-.08-.54-.21-1.47a2.52,2.52,0,0,1,3.55-.48l.18.74Z"/><path class="cls-16" d="M901.82,268.82l-3.91,2.1-.34-.74c-.38-.78-.93-1.95-1.08-2.38-.24-.65-1.87-1.46-1.87-1.46-4.08-3.92.79-7.28.79-7.28,2.58-5.19,5.45,1.76,5.45,1.76s.4,3.67.11,3.92-.28,1.25-.28,1.25a14.61,14.61,0,0,1,.94,2.23Z"/><path class="cls-8" d="M901.82,268.82l-3.91,2.1-.34-.74c.55-.46,2.51-2,3.15-2a5.78,5.78,0,0,0,.93,0C901.75,268.59,901.82,268.82,901.82,268.82Z"/><path class="cls-4" d="M902.22,270l-4.4,2.17-.09-.94-.06-.66s2.55-2.18,3.3-2.1a3.7,3.7,0,0,0,1.15,0l0,.79Z"/><path class="cls-16" d="M950.26,284.71s-19.16,2.16-15.58,1a4.79,4.79,0,0,0,3.69-4.15,10,10,0,0,0-.71-4.43,19.15,19.15,0,0,0-1.7-3.46s14.64-8.06,11.71-.73a11.89,11.89,0,0,0-.83,3.47,9.93,9.93,0,0,0,.38,3.51A10.51,10.51,0,0,0,950.26,284.71Z"/><path class="cls-8" d="M947.66,272.92a11.89,11.89,0,0,0-.83,3.47c-1.38,1.16-2.89,1.08-4.83,1.08-1.49,0-3.15.36-4.34-.36a19.15,19.15,0,0,0-1.7-3.46S950.6,265.59,947.66,272.92Z"/><circle class="cls-16" cx="941.74" cy="270.06" r="7.92"/><path class="cls-8" d="M950.26,284.71s-19.16,2.16-15.58,1a4.79,4.79,0,0,0,3.69-4.15,10.82,10.82,0,0,1,4.09-2.18,5.79,5.79,0,0,1,3.47-.05,4.81,4.81,0,0,1,1.26.58A10.55,10.55,0,0,0,950.26,284.71Z"/><path class="cls-8" d="M961.17,274.18l-3.66.85-.08-.54a3.23,3.23,0,0,1,3.52-1.21Z"/><path class="cls-8" d="M902.22,270l-4.4,2.17-.09-.94a31.8,31.8,0,0,1,4.43-2Z"/><path class="cls-8" d="M957.84,333c-7.42,1.19-18,2.7-19.66,2.19-1.39-.42-5.83-.38-9.69-.25,0-1.93.07-3.21.07-3.21l28.76-3A23.66,23.66,0,0,0,957.84,333Z"/><path class="cls-12" d="M965.25,331.25s-24.44,4.2-27.07,3.41-16.08.06-16.08.06c-6.07,4.06-3.54-1.93-3.54-1.93a14.82,14.82,0,0,1,.21-5.66,35.06,35.06,0,0,0,1-5.67s-.13-4,.6-4.93,1.6-7.59,1.6-7.59.66-4.53.6-5.52a37.92,37.92,0,0,1,.2-3.8l.87-4.66c-5-.67-20.18-10-20.18-10-.74-3.13-6.39-10.45-6.39-10.45a8,8,0,0,0-.47-1.8c-.4-1.07,5.59-3.2,5.59-3.2s4.46,5.45,5.4,6.93a29.35,29.35,0,0,0,4.12,4.19,3.34,3.34,0,0,1,1.47.19l.08,0h0a11.91,11.91,0,0,1,3,1.7,5.81,5.81,0,0,1,4.06,1.53s2.72-.4,3.2.07,2.79,0,2.79,0,2.33-4.93,3.86-3.5,8,1.36,8,1.36c.87-1.15,3-2,4.3-2.38a5.71,5.71,0,0,1,3.47-.06,4.57,4.57,0,0,1,1.36.68l4,3.86s1.13-1.46,1-1.79,1.33-.6,1.33-.6,1.93-.6,2.67-.8,1.4.59,1.46.66a8.12,8.12,0,0,1-.34-2.93,3.48,3.48,0,0,0-.8-2.38c2.33-5.73,7.59-.93,7.59-.93s.6,3.12.07,4.32.53,3.73.4,4.4.26,1.8.26,3.06a19,19,0,0,1-1.06,4.73c-.39,1.07-3.6,3.46-3.6,3.46s-.2,3.8-1.6,6-.52,9.7-.52,9.7,1.33,5.86,3,7.73S965.25,331.25,965.25,331.25Z"/><path class="cls-8" d="M929.62,287.43s-.73-2.19-1.4-2.38a15.13,15.13,0,0,1-1.93-.86l.43-.83s2.5.69,2.9,1.42A5.68,5.68,0,0,1,929.62,287.43Z"/><path class="cls-8" d="M916.24,282.57c-.14.69-6.07,1.27-6.07,1.27l3-3h0l.08,0h0A12,12,0,0,1,916.24,282.57Z"/><circle class="cls-17" cx="899.09" cy="273.44" r="0.53"/><circle class="cls-17" cx="899.77" cy="274.5" r="0.53"/><circle class="cls-17" cx="900.44" cy="275.49" r="0.53"/><circle class="cls-17" cx="901.13" cy="276.55" r="0.53"/><circle class="cls-17" cx="963.9" cy="276.49" r="0.43"/><circle class="cls-17" cx="963.97" cy="277.47" r="0.43"/><circle class="cls-17" cx="964.03" cy="278.45" r="0.43"/><path class="cls-8" d="M929.64,305.48c-.06-.08,15,18.88,26.61,7.92C956.26,313.41,937.84,315.9,929.64,305.48Z"/><path class="cls-8" d="M921,315.33s9,.25,9.92,2.83v2.69a1.71,1.71,0,0,1-1.67,0c-.91-.49-6.34-3.24-8.25-1.92Z"/><path class="cls-12" d="M921.2,315.33s8.59.24,9.49,2.71v2.56a1.68,1.68,0,0,1-1.6,0c-.87-.47-6.06-3.1-7.89-1.83Z"/><path class="cls-8" d="M925.93,295.83a29.12,29.12,0,0,0,3.49,6,23.41,23.41,0,0,0,5.44,5.26S926.08,297.06,925.93,295.83Z"/><path class="cls-8" d="M923,285.39s1.5,6.47,5.36,8.67Z"/><path class="cls-8" d="M920.7,286.05c0-.12-1.33,5.11,5,8C925.67,294.06,923,293.15,920.7,286.05Z"/><path class="cls-8" d="M959.92,281.71a44.66,44.66,0,0,1,4,3S961.82,281.57,959.92,281.71Z"/><path class="cls-14" d="M939.6,277.24a1.25,1.25,0,0,0,1.26,1.24h.1c2.41.15,4.93.26,7.15-.68a2.57,2.57,0,0,0,1.09-.72,4.38,4.38,0,0,0,.63-1.75,26.38,26.38,0,0,1,1.46-3.37,11.16,11.16,0,0,0,.79-6,4,4,0,0,0-.61-1.77c-.64-.91-1.8-1.28-2.65-2s-1.39-1.84-2.38-2.39a4.63,4.63,0,0,0-3-.26,15.53,15.53,0,0,0-5.58,2.09,2.91,2.91,0,0,1-1.87.64,2.49,2.49,0,0,1-1.36-1.06,7.46,7.46,0,0,0-.57,3.46,1.3,1.3,0,0,1,0,.52,1.57,1.57,0,0,1-.37.55,2,2,0,0,0-.37,2.49c.25.3.65.47.89.78.45.55.3,1.36.29,2.07a1.09,1.09,0,0,0,.18.7,1,1,0,0,0,1,.23,2.66,2.66,0,0,1,1.05-.09,1.74,1.74,0,0,1,.9.68A12.76,12.76,0,0,1,939.6,277.24Z"/><g class="cls-18"><path d="M949.48,276.47a2.77,2.77,0,0,1-1.09.72c-2.23.93-4.74.83-7.15.68a1.7,1.7,0,0,1-.74-.16,1.67,1.67,0,0,1-.62-1.08,12.53,12.53,0,0,0-2-4.68,1.75,1.75,0,0,0-.91-.7,2.82,2.82,0,0,0-1,.1.83.83,0,0,1-1.15-.93c0-.72.16-1.52-.29-2.08-.25-.31-.64-.47-.9-.78a1.54,1.54,0,0,1-.15-1.59,1.81,1.81,0,0,0-.11,2.13c.25.3.65.47.89.78.45.55.3,1.36.29,2.07a1.09,1.09,0,0,0,.17.7,1,1,0,0,0,1,.23,2.87,2.87,0,0,1,1.05-.1,1.74,1.74,0,0,1,.9.68,12.35,12.35,0,0,1,2,4.69,1.74,1.74,0,0,0,.59,1.08,1.62,1.62,0,0,0,.75.17c2.41.15,4.93.26,7.15-.68a2.69,2.69,0,0,0,1.09-.73,1.88,1.88,0,0,0,.34-.64A.17.17,0,0,1,949.48,276.47Z"/><path d="M934.07,264.92a1,1,0,0,0,.24-.4,1.51,1.51,0,0,0,0-.52,7.55,7.55,0,0,1,.37-2.87l0-.05a7.29,7.29,0,0,0-.57,3.45A2.54,2.54,0,0,1,934.07,264.92Z"/></g><path class="cls-8" d="M938.18,282s9.9,1.31,10.79-.17"/><path class="cls-8" d="M957.43,277.94s5.5,0,6.71,2.07"/><path class="cls-12" d="M988.21,461.87a8.72,8.72,0,0,1-5.94,2.22c-.56,0-1.33.1-1.33.66a.94.94,0,0,0,.16.46,5.48,5.48,0,0,0,3.06,2.41,10.75,10.75,0,0,0,3.71.23l3.63-.19c.68,0,1.36-.07,2-.15s1.42-.23,2.14-.34a28.2,28.2,0,0,1,5.28-.25,1.59,1.59,0,0,0,1.3-.34c.28-.34.13-1,0-1.5-.22-1.05,0-2.16-.2-3.21a5.65,5.65,0,0,0-3.7-3.94c-1.64-.62-4.53-1.34-6.08-.3S989.68,460.53,988.21,461.87Z"/><path class="cls-6" d="M991.81,399.81c.32,1.52,1.8,2.68,1.84,4.24,0,1.24-.85,2.29-1.49,3.35a23,23,0,0,0-1.52,3.45,52.83,52.83,0,0,1-4.47,8.89c-.85,1.36-1.81,2.81-1.61,4.4a6.55,6.55,0,0,0,.77,2.1l2.56,5.08a15.13,15.13,0,0,1,1.3,3.2c.22,1,.24,2,.37,2.94.4,3.11,1.86,6.25,1,9.26-.08.26-.34.58-.55.39a9.83,9.83,0,0,1,1.46,5,6.84,6.84,0,0,0,0,2.78,3.12,3.12,0,0,1,.4,1.1,6.22,6.22,0,0,1-.15.75,1.67,1.67,0,0,0,1.28,1.55c.68.22,1.43.21,2.12.41,1.33.4,2.28,1.55,3.4,2.34a7.27,7.27,0,0,0,3.93,1.28.94.94,0,0,0,.57-.12.91.91,0,0,0,.32-.7,3.87,3.87,0,0,0-1.4-3.38,1.71,1.71,0,0,1-.52-.55,1.4,1.4,0,0,1-.05-.61,45.13,45.13,0,0,0-.15-8.38,13.15,13.15,0,0,1-.13-2.66,11.14,11.14,0,0,0,.22-2.22,11.66,11.66,0,0,0-.69-2.12,15.83,15.83,0,0,1-.34-4,33.73,33.73,0,0,0-1.12-6.81,5,5,0,0,0-1.06-2.45c-.53-.56-1.38-1.09-1.18-1.83a2.21,2.21,0,0,1,.48-.73,2.9,2.9,0,0,0,.61-2.22,1,1,0,0,0,1.15-.53,18,18,0,0,0,9-10.22,3.36,3.36,0,0,1,.4-.91,4.14,4.14,0,0,1,1.65-1.07,12.56,12.56,0,0,0,4.32-4.4,10.76,10.76,0,0,0,1.67-3.2,10.43,10.43,0,0,0,.22-2.3l.11-4a2.11,2.11,0,0,0-.08-.79,1.91,1.91,0,0,0-.43-.63,7.68,7.68,0,0,0-4.24-2.29c-1.09-.19-2.2-.15-3.31-.25-2.14-.17-4.25-.84-6.39-.68a10.21,10.21,0,0,0-7.93,5.56C993.59,398.88,993,399.79,991.81,399.81Z"/><path class="cls-4" d="M973.16,373.79a4.56,4.56,0,0,1-.25,1.83,1.27,1.27,0,0,1-1.49.76c.17-.39-.29-.84-.72-.79a1.33,1.33,0,0,0-.94.81,3,3,0,0,0-.28,1.85,7.38,7.38,0,0,1,.47,2.32c-.09.66-.57,1.31-.32,1.91a3.17,3.17,0,0,0,.62.74,2.08,2.08,0,0,1-.22,2.86l6.44.13a4.56,4.56,0,0,0,.8,3.13A19.75,19.75,0,0,0,992,399a1.27,1.27,0,0,0-.46,1.75,1,1,0,0,0,.15.2,1.8,1.8,0,0,0,2.07.12,14.79,14.79,0,0,0,1.77-1.32,5.42,5.42,0,0,1,3.64-1c.8.07,1.59.34,2.4.38,2.38.12,4.42-1.59,6.72-2.3,1.67-.51,3.57-.51,5-1.55a2,2,0,0,0,.93-1.92,3.35,3.35,0,0,0-.68-1.13,19.15,19.15,0,0,1-1.87-3.49,20.78,20.78,0,0,0-4.65-6.24,42.47,42.47,0,0,0-4.62-3.5,7.53,7.53,0,0,0-1.25-.75,15.06,15.06,0,0,1-1.7-.68,9.2,9.2,0,0,1-1.77-2c-1.28-1.49-3.24-2.17-4.81-3.34-1.06-.79-2-1.83-3.25-2.2-.61-.19-1.27-.2-1.88-.39-1.39-.42-2.41-1.66-3.77-2.16a15.46,15.46,0,0,0-3.41-.43,8,8,0,0,1-3.55-1.35,4.38,4.38,0,0,0-1.14-.67c-1.72-.52-1.86,2.7-2,3.81A36.33,36.33,0,0,0,973.16,373.79Z"/><path class="cls-10" d="M974.84,384.57c.29,3.14-2.08,6.18-1.39,9.26.14.65.43,1.28.53,1.94.29,1.82-.8,3.55-1.84,5.07l-8.92,13.1a8.73,8.73,0,0,1-1.27,1.57c-1.71,1.51-4.27,1.36-6.51,1.81a11.19,11.19,0,0,0-4.36,1.93.28.28,0,0,0-.05.39,3.74,3.74,0,0,0,3.24,1.52c.23.31,0,.76-.33,1s-1.13.41-1.23,1.23a1.46,1.46,0,0,0,.16.82,2.62,2.62,0,0,0,1.56,1.08c3.09.94,6.43-.72,8.74-3s4-5.11,6.24-7.41c1.26-1.27,2.68-2.36,4-3.59a45.38,45.38,0,0,0,6.52-8.44,9.36,9.36,0,0,0,1.41-2.87c.25-1.05.13-2.11.41-3.12a11.41,11.41,0,0,1,2.14-3.49,11.59,11.59,0,0,0,2.43-7.54,7.2,7.2,0,0,0-4.41-6.24,3.87,3.87,0,0,0-2.47-.15,5.85,5.85,0,0,0-2.51,2l-1.7,2a4.68,4.68,0,0,0-1,1.5,1.58,1.58,0,0,0,.34,1.67"/><path class="cls-4" d="M979.36,371.7a4.83,4.83,0,0,0-3.29,1,4.43,4.43,0,0,0-.83,1.3,13.06,13.06,0,0,0-1.65,5.17,24.52,24.52,0,0,0,.6,4.33,16.63,16.63,0,0,1-.37,3.63,25.1,25.1,0,0,0,4.69-1.8,15.62,15.62,0,0,1,2.75-1.43c1.4-.47,3.74.34,5.08,1,.07-.94-.63-2.56-.56-3.5a3.89,3.89,0,0,1,.21-1.16,7.23,7.23,0,0,1,.7-1.12,4.58,4.58,0,0,0-.41-5.37,7.47,7.47,0,0,0-4.79-2,20.81,20.81,0,0,0-3.35-.12"/></g></svg>