<svg xmlns="http://www.w3.org/2000/svg" viewBox="0 0 1004.51 300.24"><defs><style>.cls-1{fill:#3f3d56;}.cls-2{fill:#f4ec92;}.cls-3{fill:#e6e6e6;}.cls-4{fill:#fff;}.cls-5{fill:#ff484a;}.cls-6{fill:#ff6584;}.cls-7{fill:none;stroke:#3f3d56;stroke-miterlimit:10;stroke-width:2px;}.cls-8{opacity:0.2;}.cls-11,.cls-8{isolation:isolate;}.cls-9{fill:#2f2e41;}.cls-10{fill:#ffb8b8;}.cls-11{opacity:0.4;}</style></defs><title>undraw_choosing_house_v37h</title><g id="b60f32bd-2d4f-44b2-aae8-23a042c308d4"><path class="cls-1" d="M1003.59,275.07l2.57-2.05a2.73,2.73,0,0,0-3.15,1.73,4.36,4.36,0,0,0-3.25.2l5.13,1.86A3.93,3.93,0,0,0,1003.59,275.07Z" transform="translate(-1.65 -201.18)"/><path class="cls-2" d="M712.88,291.55c100.31-26-130,212.31-294.27,209.84-456.06-6.84-507.78-81.18-300.76-209.84C387.39,124,406.23,371.05,712.88,291.55Z" transform="translate(-1.65 -201.18)"/></g><g id="Layer_2" data-name="Layer 2"><rect class="cls-3" x="917.77" y="23.72" width="68.21" height="101.82"/><rect class="cls-4" x="921.42" y="29.16" width="60.92" height="90.94"/><rect class="cls-1" x="961.28" y="93.87" width="2.95" height="10.21"/><polygon class="cls-1" points="966.24 102.58 958.9 93.76 944.61 93.76 935.87 102.27 936.05 102.38 935.99 102.38 935.99 120.07 966.15 120.07 966.15 102.38 966.24 102.58"/><polygon class="cls-5" points="959.01 93.64 950.05 104.15 950.05 120.07 966.15 120.07 966.15 102.15 959.01 93.64"/><rect class="cls-1" x="956.52" y="111.27" width="3.29" height="2.91"/><rect class="cls-1" x="956.52" y="106.23" width="3.29" height="2.86"/><rect class="cls-4" x="956.52" y="111.27" width="3.29" height="2.91"/><rect class="cls-4" x="956.52" y="106.23" width="3.29" height="2.86"/><path class="cls-3" d="M949.47,320.73a1.33,1.33,0,0,1,1.51-1.31" transform="translate(-1.65 -201.18)"/><circle class="cls-5" cx="947.41" cy="117.42" r="0.72"/><rect class="cls-3" x="947.29" y="118.64" width="0.2" height="1.43"/><rect class="cls-3" x="824.36" y="23.72" width="68.21" height="101.82"/><rect class="cls-4" x="828" y="29.16" width="60.92" height="90.94"/><path class="cls-1" d="M941,264.2l1.76-1.4a1.84,1.84,0,0,0-2.15,1.18,3,3,0,0,0-2.23.14l3.51,1.27A2.68,2.68,0,0,0,941,264.2Z" transform="translate(-1.65 -201.18)"/><path class="cls-1" d="M865.22,261.45l1.76-1.4a1.86,1.86,0,0,0-2.16,1.18,3,3,0,0,0-2.22.14l3.51,1.27A2.76,2.76,0,0,0,865.22,261.45Z" transform="translate(-1.65 -201.18)"/><path class="cls-1" d="M964.91,250.94l1.76-1.41a1.86,1.86,0,0,0-2.15,1.19,3,3,0,0,0-2.23.13l3.51,1.28A2.56,2.56,0,0,0,964.91,250.94Z" transform="translate(-1.65 -201.18)"/><rect class="cls-1" x="870.09" y="83.79" width="2.95" height="10.21"/><rect class="cls-1" x="870.09" y="82.77" width="2.95" height="10.21"/><polygon class="cls-1" points="877.49 95.79 867.43 83.83 847.68 83.83 835.61 95.59 835.86 95.75 835.77 95.75 835.77 120.2 877.46 120.2 877.46 95.75 877.49 95.79"/><polygon class="cls-5" points="867.59 83.68 855.2 98.19 855.2 120.2 877.46 120.2 877.46 95.43 867.59 83.68"/><rect class="cls-1" x="861" y="107.65" width="4.55" height="4.4"/><rect class="cls-1" x="861" y="101.07" width="4.55" height="4.4"/><rect class="cls-4" x="861" y="107.65" width="4.55" height="4.4"/><rect class="cls-4" x="861" y="101.07" width="4.55" height="4.4"/><rect class="cls-1" x="867.65" y="107.65" width="4.55" height="4.4"/><rect class="cls-1" x="867.65" y="101.07" width="4.55" height="4.4"/><rect class="cls-4" x="867.65" y="107.65" width="4.55" height="4.4"/><rect class="cls-4" x="867.65" y="101.07" width="4.55" height="4.4"/><circle class="cls-6" cx="794.04" cy="17.5" r="17.5"/><rect class="cls-3" x="730.95" y="23.72" width="68.21" height="101.82"/><rect class="cls-4" x="734.59" y="29.16" width="60.92" height="90.94"/><polygon class="cls-1" points="790.87 90.24 778.59 75.61 754.44 75.61 739.68 89.98 739.98 90.17 739.87 90.17 739.87 120.07 790.86 120.07 790.86 90.17 790.87 90.24"/><path class="cls-1" d="M777.58,260.09l1.66-1.33a1.75,1.75,0,0,0-2,1.12,2.83,2.83,0,0,0-2.1.13l3.31,1.2A2.58,2.58,0,0,0,777.58,260.09Z" transform="translate(-1.65 -201.18)"/><rect class="cls-1" x="780.7" y="74.24" width="2.78" height="9.64"/><polygon class="cls-5" points="778.78 75.42 763.64 93.17 763.64 120.07 790.86 120.07 790.86 89.79 778.78 75.42"/><path class="cls-3" d="M753,320.76a1.25,1.25,0,0,1,1.43-1.23" transform="translate(-1.65 -201.18)"/><circle class="cls-5" cx="751" cy="117.57" r="0.68"/><rect class="cls-3" x="750.89" y="118.72" width="0.19" height="1.35"/><path class="cls-3" d="M759.14,320.76a1.25,1.25,0,0,1,1.43-1.23" transform="translate(-1.65 -201.18)"/><circle class="cls-5" cx="757.11" cy="117.57" r="0.68"/><rect class="cls-3" x="757" y="118.72" width="0.19" height="1.35"/><path class="cls-3" d="M744.69,320.76a1.24,1.24,0,0,1,1.43-1.23" transform="translate(-1.65 -201.18)"/><circle class="cls-5" cx="742.65" cy="117.57" r="0.68"/><rect class="cls-3" x="742.54" y="118.72" width="0.19" height="1.35"/><rect class="cls-1" x="767.14" y="96.69" width="5.56" height="5.68"/><rect class="cls-1" x="767.14" y="104.42" width="5.56" height="5.68"/><rect class="cls-4" x="767.14" y="96.69" width="5.56" height="5.68"/><rect class="cls-4" x="767.14" y="104.42" width="5.56" height="5.68"/><rect class="cls-1" x="774.83" y="96.69" width="5.56" height="5.68"/><rect class="cls-1" x="774.83" y="104.42" width="5.56" height="5.68"/><rect class="cls-4" x="774.83" y="96.69" width="5.56" height="5.68"/><rect class="cls-4" x="774.83" y="104.42" width="5.56" height="5.68"/><rect class="cls-1" x="782.51" y="96.69" width="5.56" height="5.68"/><rect class="cls-1" x="782.51" y="104.42" width="5.56" height="5.68"/><rect class="cls-4" x="782.51" y="96.69" width="5.56" height="5.68"/><rect class="cls-4" x="782.51" y="104.42" width="5.56" height="5.68"/><path class="cls-3" d="M987.05,327.23H732.7s51.64-12.43,127.71-12.29h1.28l4.57,0,3.62,0,1.58,0h.62l1.46,0,2.75.06,2.43.07.94,0,4.45.15,1,0,1.43.05,1.89.08,2.47.11,5.18.26,3.89.22,1.66.11,2.56.16,1.64.11,2,.14,2,.14,2,.15,2,.16,2,.16c2.8.23,5.62.49,8.46.76l1.64.16,1.7.17,2.38.25,2,.21,1.86.21.2,0,2.05.23,2.06.24,2.07.25,2.08.25,1.62.21.81.1,1.74.23,2.09.27.23,0,3.25.44.45.06,1.7.25,1.7.24H956l2.41.36,1.21.18,1.64.26,1.08.17.8.12,1.69.27,1.57.25h0l.38.06,1.15.19,1.19.2,1,.18h0l.15,0c.41.07.81.13,1.21.21l1.22.21.12,0,.94.16h0l.54.09,1.43.26.92.17,2.57.47,2.59.48,1.55.3,1.45.28Z" transform="translate(-1.65 -201.18)"/><path class="cls-7" d="M732.7,327.23" transform="translate(-1.65 -201.18)"/><path class="cls-1" d="M987,327.62l-1.94-.38-.23,0-1.46-.28-1.55-.3-2.58-.48-2.25-.42-.32-.05-.79-.15-.13,0-1.3-.23-.21,0h0l-.46-.09h-.07l-.87-.15-.11,0-1.22-.21-1.16-.2h-.05l-.14,0-1-.17-2.88-.47-1.57-.26-1.68-.27-.79-.12-1.09-.17-1.64-.25-1.2-.19-2.42-.35h-.07l-1.09-.16-.61-.09-1.7-.24-.44-.06-3.25-.45-.2,0-6.29-.81-2.07-.26-2.07-.24-2.06-.24-2.06-.24-.19,0-1.86-.2L930,319h-.13l-2.38-.24-1.7-.17-1.64-.16c-2.78-.27-5.62-.53-8.46-.76l-2-.16-2-.16-2-.15-1.77-.13-.2,0-2-.13-1.63-.11-2.56-.17h-.15l-1.51-.09-3.89-.22c-1.73-.1-3.46-.18-5.18-.26l-2.46-.11-1.72-.07-.66,0-1,0-1,0-4.44-.15-.93,0-2.44-.06-2.75-.06-2.08,0-1.57,0-3.62-.05-4.58,0h-2.54c-74.47,0-125.83,12.16-126.34,12.28l-.19-.77c.51-.13,52-12.31,126.53-12.31h2.55l4.58,0,3.62.05,1.57,0,2.09,0,2.75.06,2.44.07.94,0,4.44.14,1,0,1,0,.66,0,1.72.08,2.46.11c1.72.08,3.45.16,5.19.26,1.3.06,2.59.14,3.89.22l1.52.09h.15l2.56.16,1.63.11,2,.14.2,0,1.77.13q1,.06,2,.15l2,.15,2,.16c2.86.24,5.71.5,8.49.77l1.64.15,1.7.18,2.38.24h.13l1.92.21,1.86.2.19,0,2.06.24,2.06.24,2.07.24,2.08.26,6.3.82.19,0,3.26.45.44.06,1.7.24.61.09,1.1.16H956l2.41.36,1.21.18,1.64.25,1.08.17.81.13,1.68.27,1.57.25.08,0,2.8.46.9.15h.07l.14,0h.06l1.15.19,1.22.21.12,0,.8.14.08,0,.13.08.28.05.32.06,1.3.23.13,0,.79.15.32.05,2.26.42,2.58.48,1.55.3,1.46.28.24,0,1.94.39Z" transform="translate(-1.65 -201.18)"/><circle class="cls-5" cx="905.99" cy="36.54" r="29.96"/><path class="cls-8" d="M929.93,217.71A30,30,0,0,1,880,249.42a30,30,0,0,0,55.1-23.55A30.29,30.29,0,0,0,929.93,217.71Z" transform="translate(-1.65 -201.18)"/><polygon class="cls-1" points="906.08 36.54 906.16 36.54 907.64 121.48 904.51 121.48 906.08 36.54"/><rect class="cls-1" x="907.56" y="283.89" width="5.6" height="1.48" transform="translate(-29.43 255.7) rotate(-27.77)"/><path class="cls-1" d="M836.12,323.37a2.38,2.38,0,0,1,2.72-2.34" transform="translate(-1.65 -201.18)"/><circle class="cls-5" cx="833.74" cy="118.38" r="1.3"/><rect class="cls-1" x="833.53" y="120.56" width="0.37" height="2.57"/><path class="cls-1" d="M883.39,323.92a2.38,2.38,0,0,1,2.72-2.34" transform="translate(-1.65 -201.18)"/><circle class="cls-5" cx="881.01" cy="118.92" r="1.3"/><rect class="cls-1" x="880.8" y="121.11" width="0.37" height="2.57"/><path class="cls-1" d="M805.52,319.34a2.38,2.38,0,0,1,2.72-2.34" transform="translate(-1.65 -201.18)"/><circle class="cls-5" cx="803.14" cy="114.34" r="1.3"/><rect class="cls-1" x="802.93" y="116.53" width="0.37" height="2.57"/><path class="cls-1" d="M825.5,315.86a2.38,2.38,0,0,1,2.72-2.34" transform="translate(-1.65 -201.18)"/><circle class="cls-5" cx="823.11" cy="110.86" r="1.3"/><rect class="cls-1" x="822.9" y="113.05" width="0.37" height="2.57"/><path class="cls-1" d="M875.52,320.81a2.39,2.39,0,0,1,2.72-2.35" transform="translate(-1.65 -201.18)"/><circle class="cls-5" cx="873.13" cy="115.81" r="1.3"/><rect class="cls-1" x="872.92" y="118" width="0.37" height="2.57"/><path class="cls-1" d="M864.82,222.15l1.69-1.35a1.79,1.79,0,0,0-2.07,1.14,2.84,2.84,0,0,0-2.14.13l3.38,1.22A2.55,2.55,0,0,0,864.82,222.15Z" transform="translate(-1.65 -201.18)"/><path class="cls-1" d="M837.16,233.88l1.68-1.35a1.79,1.79,0,0,0-2.07,1.13,2.91,2.91,0,0,0-2.13.13L838,235A2.6,2.6,0,0,0,837.16,233.88Z" transform="translate(-1.65 -201.18)"/><ellipse class="cls-9" cx="697.19" cy="326.93" rx="3.28" ry="4.93" transform="translate(-67.27 20.5) rotate(-17.27)"/><path class="cls-5" d="M660.24,305.75s-1,19.71,1,32.84,4.27,25.62,4.27,25.62,5.59-4.27,8.87-2.95l-5.91-45.66Z" transform="translate(-1.65 -201.18)"/><circle class="cls-10" cx="679.44" cy="72.22" r="10.84"/><polygon class="cls-10" points="672.38 75.01 667.78 86.83 674.35 89.79 680.92 77.97 672.38 75.01"/><path class="cls-9" d="M678,287.44h0s-6.56-4.36-9.51-2.71L665.82,291s-9.2,11.49-5.58,20,11.82,18.4,11.82,18.4l1,4.6s-12.81,16.75-11.5,29.23l-15.44,42s8.54,3.61,37.12,4.93,28.57,0,28.57,0-3.61-70-14.78-81.13l-1.64-5.26s2.3-14.78-3-21l-1.77-3.55A24.72,24.72,0,0,0,678,287.44Z" transform="translate(-1.65 -201.18)"/><path class="cls-10" d="M694.4,358l.65,8.87s-1,11.5,5.59,9.2S702,360.93,702,360.93L701,357Z" transform="translate(-1.65 -201.18)"/><path class="cls-9" d="M648.74,403.63l-3.61,35.14s-4.6,2.63-2.3,9.86,1.64,10.84,1.64,10.84l2.3-.66,1-8.87s3.86,4.93,7.23,5.91c2.34.69,4.76,1.21,6.34-.62a4.28,4.28,0,0,0-1.6-6.63,5.08,5.08,0,0,0-.8-.3c-2.3-.66-4.6-9.53-4.6-9.53l3.95-16.09,5.91-17.74Z" transform="translate(-1.65 -201.18)"/><path class="cls-9" d="M693.41,403.63l-3.61,35.14s-4.6,2.63-2.3,9.86,1.64,10.84,1.64,10.84l2.3-.66,1-8.87s3.86,4.93,7.23,5.91c2.34.69,4.76,1.21,6.34-.62a4.28,4.28,0,0,0-1.6-6.63,5.08,5.08,0,0,0-.8-.3c-2.3-.66-4.6-9.53-4.6-9.53l4-16.09,5.91-17.74Z" transform="translate(-1.65 -201.18)"/><path class="cls-11" d="M679.61,293.6s-7.88,4.59-5.58,15.1,18.39,55.51,18.39,55.51a11,11,0,0,1,10.84-2.62l-14.78-56.83S689.47,292,679.61,293.6Z" transform="translate(-1.65 -201.18)"/><path class="cls-5" d="M680.93,291.62s-7.88,4.6-5.59,15.11,18.4,55.51,18.4,55.51a11,11,0,0,1,10.84-2.63L689.8,302.79S690.78,290,680.93,291.62Z" transform="translate(-1.65 -201.18)"/><path class="cls-9" d="M691.11,269.19s1.67-13-12-8.73c0,0-9.73-1.79-12.92,10.38L663,283.6l1.57-.85.74,1.6,2.55.65,1.09-2.17.53,2.63,20.9,2.08S681,282,680.88,272.09l1.78,1.88Z" transform="translate(-1.65 -201.18)"/><circle class="cls-9" cx="666.3" cy="59.41" r="5.26"/><path class="cls-9" d="M673.37,259.3a5.25,5.25,0,0,0-5.25-4.91l.32,0a5.26,5.26,0,1,1,.68,10.49c-.11,0-.22,0-.33,0A5.24,5.24,0,0,0,673.37,259.3Z" transform="translate(-1.65 -201.18)"/><ellipse class="cls-10" cx="679.44" cy="73.2" rx="1.64" ry="2.3"/></g></svg>