<svg xmlns="http://www.w3.org/2000/svg" viewBox="0 0 1184 660.64"><defs><style>.cls-1{fill:#3f3d56;}.cls-2{fill:#f4ec92;}.cls-3{fill:#e6e6e6;}.cls-4{fill:#fff;}.cls-5{fill:#ff484a;}.cls-6{fill:#ff6584;}.cls-7{opacity:0.2;}.cls-10,.cls-7{isolation:isolate;}.cls-8{fill:#2f2e41;}.cls-9{fill:#ffb8b8;}.cls-10{opacity:0.4;}</style></defs><title>undraw_choosing_house_v37h</title><g id="b60f32bd-2d4f-44b2-aae8-23a042c308d4"><path class="cls-1" d="M1003.59,275.07l2.57-2.05a2.73,2.73,0,0,0-3.15,1.73,4.36,4.36,0,0,0-3.25.2l5.13,1.86A3.93,3.93,0,0,0,1003.59,275.07Z"/><path class="cls-2" d="M712.88,291.55c100.31-26-145,173.48-309.13,181.55-453.29,22.3-492.92-52.89-285.9-181.55C387.39,124,406.23,371.05,712.88,291.55Z"/></g><g id="Layer_2" data-name="Layer 2"><rect class="cls-3" x="919.43" y="224.9" width="68.21" height="101.82"/><rect class="cls-4" x="923.07" y="230.34" width="60.92" height="90.94"/><rect class="cls-1" x="962.93" y="295.05" width="2.95" height="10.21"/><polygon class="cls-1" points="967.89 303.76 960.55 294.94 946.26 294.94 937.52 303.44 937.7 303.56 937.64 303.56 937.64 321.25 967.81 321.25 967.81 303.56 967.89 303.76"/><polygon class="cls-5" points="960.66 294.82 951.7 305.33 951.7 321.25 967.81 321.25 967.81 303.33 960.66 294.82"/><rect class="cls-1" x="958.17" y="312.44" width="3.29" height="2.91"/><rect class="cls-1" x="958.17" y="307.41" width="3.29" height="2.86"/><rect class="cls-4" x="958.17" y="312.44" width="3.29" height="2.91"/><rect class="cls-4" x="958.17" y="307.41" width="3.29" height="2.86"/><path class="cls-3" d="M949.47,320.73a1.33,1.33,0,0,1,1.51-1.31"/><circle class="cls-5" cx="949.06" cy="318.6" r="0.72"/><rect class="cls-3" x="948.94" y="319.82" width="0.2" height="1.43"/><rect class="cls-3" x="826.01" y="224.9" width="68.21" height="101.82"/><rect class="cls-4" x="829.65" y="230.34" width="60.92" height="90.94"/><path class="cls-1" d="M941,264.2l1.76-1.4a1.84,1.84,0,0,0-2.15,1.18,3,3,0,0,0-2.23.14l3.51,1.27A2.68,2.68,0,0,0,941,264.2Z"/><path class="cls-1" d="M865.22,261.45l1.76-1.4a1.86,1.86,0,0,0-2.16,1.18,3,3,0,0,0-2.22.14l3.51,1.27A2.76,2.76,0,0,0,865.22,261.45Z"/><path class="cls-1" d="M964.91,250.94l1.76-1.41a1.86,1.86,0,0,0-2.15,1.19,3,3,0,0,0-2.23.13l3.51,1.28A2.56,2.56,0,0,0,964.91,250.94Z"/><rect class="cls-1" x="871.74" y="284.97" width="2.95" height="10.21"/><rect class="cls-1" x="871.74" y="283.95" width="2.95" height="10.21"/><polygon class="cls-1" points="879.14 296.96 869.08 285.01 849.33 285.01 837.26 296.77 837.5 296.92 837.42 296.92 837.42 321.37 879.11 321.37 879.11 296.92 879.14 296.96"/><polygon class="cls-5" points="869.24 284.85 856.85 299.37 856.85 321.37 879.11 321.37 879.11 296.61 869.24 284.85"/><rect class="cls-1" x="862.65" y="308.82" width="4.55" height="4.4"/><rect class="cls-1" x="862.65" y="302.25" width="4.55" height="4.4"/><rect class="cls-4" x="862.65" y="308.82" width="4.55" height="4.4"/><rect class="cls-4" x="862.65" y="302.25" width="4.55" height="4.4"/><rect class="cls-1" x="869.3" y="308.82" width="4.55" height="4.4"/><rect class="cls-1" x="869.3" y="302.25" width="4.55" height="4.4"/><rect class="cls-4" x="869.3" y="308.82" width="4.55" height="4.4"/><rect class="cls-4" x="869.3" y="302.25" width="4.55" height="4.4"/><circle class="cls-6" cx="795.69" cy="218.67" r="17.5"/><rect class="cls-3" x="732.6" y="224.9" width="68.21" height="101.82"/><rect class="cls-4" x="736.24" y="230.34" width="60.92" height="90.94"/><polygon class="cls-1" points="792.52 291.41 780.24 276.78 756.09 276.78 741.33 291.16 741.63 291.35 741.52 291.35 741.52 321.25 792.51 321.25 792.51 291.35 792.52 291.41"/><path class="cls-1" d="M777.58,260.09l1.66-1.33a1.75,1.75,0,0,0-2,1.12,2.83,2.83,0,0,0-2.1.13l3.31,1.2A2.58,2.58,0,0,0,777.58,260.09Z"/><rect class="cls-1" x="782.35" y="275.41" width="2.78" height="9.64"/><polygon class="cls-5" points="780.43 276.59 765.29 294.34 765.29 321.25 792.51 321.25 792.51 290.97 780.43 276.59"/><path class="cls-3" d="M753,320.76a1.25,1.25,0,0,1,1.43-1.23"/><circle class="cls-5" cx="752.65" cy="318.75" r="0.68"/><rect class="cls-3" x="752.54" y="319.9" width="0.19" height="1.35"/><path class="cls-3" d="M759.14,320.76a1.25,1.25,0,0,1,1.43-1.23"/><circle class="cls-5" cx="758.76" cy="318.75" r="0.68"/><rect class="cls-3" x="758.65" y="319.9" width="0.19" height="1.35"/><path class="cls-3" d="M744.69,320.76a1.24,1.24,0,0,1,1.43-1.23"/><circle class="cls-5" cx="744.3" cy="318.75" r="0.68"/><rect class="cls-3" x="744.19" y="319.9" width="0.19" height="1.35"/><rect class="cls-1" x="768.79" y="297.87" width="5.56" height="5.68"/><rect class="cls-1" x="768.79" y="305.6" width="5.56" height="5.68"/><rect class="cls-4" x="768.79" y="297.87" width="5.56" height="5.68"/><rect class="cls-4" x="768.79" y="305.6" width="5.56" height="5.68"/><rect class="cls-1" x="776.48" y="297.87" width="5.56" height="5.68"/><rect class="cls-1" x="776.48" y="305.6" width="5.56" height="5.68"/><rect class="cls-4" x="776.48" y="297.87" width="5.56" height="5.68"/><rect class="cls-4" x="776.48" y="305.6" width="5.56" height="5.68"/><rect class="cls-1" x="784.16" y="297.87" width="5.56" height="5.68"/><rect class="cls-1" x="784.16" y="305.6" width="5.56" height="5.68"/><rect class="cls-4" x="784.16" y="297.87" width="5.56" height="5.68"/><rect class="cls-4" x="784.16" y="305.6" width="5.56" height="5.68"/><path class="cls-3" d="M987.05,327.23H732.7s51.64-12.43,127.71-12.29h1.28l4.57,0,3.62,0,1.58,0h.62l1.46,0,2.75.06,2.43.07.94,0,4.45.15,1,0,1.43.05,1.89.08,2.47.11,5.18.26,3.89.22,1.66.11,2.56.16,1.64.11,2,.14,2,.14,2,.15,2,.16,2,.16c2.8.23,5.62.49,8.46.76l1.64.16,1.7.17,2.38.25,2,.21,1.86.21.2,0,2.05.23,2.06.24,2.07.25,2.08.25,1.62.21.81.1,1.74.23,2.09.27.23,0,3.25.44.45.06,1.7.25,1.7.24H956l2.41.36,1.21.18,1.64.26,1.08.17.8.12,1.69.27,1.57.25h0l.38.06,1.15.19,1.19.2,1,.18h0l.15,0c.41.07.81.13,1.21.21l1.22.21.12,0,.94.16h0l.54.09,1.43.26.92.17,2.57.47,2.59.48,1.55.3,1.45.28Z"/><path class="cls-1" d="M987,327.62l-1.94-.38-.23,0-1.46-.28-1.55-.3-2.58-.48-2.25-.42-.32-.05-.79-.15-.13,0-1.3-.23-.21,0h0l-.46-.09h-.07l-.87-.15-.11,0-1.22-.21-1.16-.2h-.05l-.14,0-1-.17-2.88-.47-1.57-.26-1.68-.27-.79-.12-1.09-.17-1.64-.25-1.2-.19-2.42-.35h-.07l-1.09-.16-.61-.09-1.7-.24-.44-.06-3.25-.45-.2,0-6.29-.81-2.07-.26-2.07-.24-2.06-.24-2.06-.24-.19,0-1.86-.2L930,319h-.13l-2.38-.24-1.7-.17-1.64-.16c-2.78-.27-5.62-.53-8.46-.76l-2-.16-2-.16-2-.15-1.77-.13-.2,0-2-.13-1.63-.11-2.56-.17h-.15l-1.51-.09-3.89-.22c-1.73-.1-3.46-.18-5.18-.26l-2.46-.11-1.72-.07-.66,0-1,0-1,0-4.44-.15-.93,0-2.44-.06-2.75-.06-2.08,0-1.57,0-3.62-.05-4.58,0h-2.54c-74.47,0-125.83,12.16-126.34,12.28l-.19-.77c.51-.13,52-12.31,126.53-12.31h2.55l4.58,0,3.62.05,1.57,0,2.09,0,2.75.06,2.44.07.94,0,4.44.14,1,0,1,0,.66,0,1.72.08,2.46.11c1.72.08,3.45.16,5.19.26,1.3.06,2.59.14,3.89.22l1.52.09h.15l2.56.16,1.63.11,2,.14.2,0,1.77.13q1,.06,2,.15l2,.15,2,.16c2.86.24,5.71.5,8.49.77l1.64.15,1.7.18,2.38.24h.13l1.92.21,1.86.2.19,0,2.06.24,2.06.24,2.07.24,2.08.26,6.3.82.19,0,3.26.45.44.06,1.7.24.61.09,1.1.16H956l2.41.36,1.21.18,1.64.25,1.08.17.81.13,1.68.27,1.57.25.08,0,2.8.46.9.15h.07l.14,0h.06l1.15.19,1.22.21.12,0,.8.14.08,0,.13.08.28.05.32.06,1.3.23.13,0,.79.15.32.05,2.26.42,2.58.48,1.55.3,1.46.28.24,0,1.94.39Z"/><circle class="cls-5" cx="907.64" cy="237.72" r="29.96"/><path class="cls-7" d="M929.93,217.71A30,30,0,0,1,880,249.42a30,30,0,0,0,55.1-23.55A30.29,30.29,0,0,0,929.93,217.71Z"/><polygon class="cls-1" points="907.73 237.72 907.81 237.72 909.29 322.65 906.16 322.65 907.73 237.72"/><rect class="cls-1" x="907.56" y="283.89" width="5.6" height="1.48" transform="translate(-27.78 456.87) rotate(-27.77)"/><path class="cls-1" d="M836.12,323.37a2.38,2.38,0,0,1,2.72-2.34"/><circle class="cls-5" cx="835.39" cy="319.55" r="1.3"/><rect class="cls-1" x="835.18" y="321.74" width="0.37" height="2.57"/><path class="cls-1" d="M883.39,323.92a2.38,2.38,0,0,1,2.72-2.34"/><circle class="cls-5" cx="882.66" cy="320.1" r="1.3"/><rect class="cls-1" x="882.45" y="322.29" width="0.37" height="2.57"/><path class="cls-1" d="M805.52,319.34a2.38,2.38,0,0,1,2.72-2.34"/><circle class="cls-5" cx="804.79" cy="315.52" r="1.3"/><rect class="cls-1" x="804.58" y="317.71" width="0.37" height="2.57"/><path class="cls-1" d="M825.5,315.86a2.38,2.38,0,0,1,2.72-2.34"/><circle class="cls-5" cx="824.76" cy="312.04" r="1.3"/><rect class="cls-1" x="824.55" y="314.23" width="0.37" height="2.57"/><path class="cls-1" d="M875.52,320.81a2.39,2.39,0,0,1,2.72-2.35"/><circle class="cls-5" cx="874.78" cy="316.99" r="1.3"/><rect class="cls-1" x="874.57" y="319.17" width="0.37" height="2.57"/><path class="cls-1" d="M864.82,222.15l1.69-1.35a1.79,1.79,0,0,0-2.07,1.14,2.84,2.84,0,0,0-2.14.13l3.38,1.22A2.55,2.55,0,0,0,864.82,222.15Z"/><path class="cls-1" d="M837.16,233.88l1.68-1.35a1.79,1.79,0,0,0-2.07,1.13,2.91,2.91,0,0,0-2.13.13L838,235A2.6,2.6,0,0,0,837.16,233.88Z"/><ellipse class="cls-8" cx="697.19" cy="326.93" rx="3.28" ry="4.93" transform="translate(-65.62 221.68) rotate(-17.27)"/><path class="cls-5" d="M660.24,305.75s-1,19.71,1,32.84,4.27,25.62,4.27,25.62,5.59-4.27,8.87-2.95l-5.91-45.66Z"/><circle class="cls-9" cx="681.09" cy="273.39" r="10.84"/><polygon class="cls-9" points="674.03 276.19 669.43 288.01 676 290.97 682.57 279.14 674.03 276.19"/><path class="cls-8" d="M678,287.44h0s-6.56-4.36-9.51-2.71L665.82,291s-9.2,11.49-5.58,20,11.82,18.4,11.82,18.4l1,4.6s-12.81,16.75-11.5,29.23l-15.44,42s8.54,3.61,37.12,4.93,28.57,0,28.57,0-3.61-70-14.78-81.13l-1.64-5.26s2.3-14.78-3-21l-1.77-3.55A24.72,24.72,0,0,0,678,287.44Z"/><path class="cls-9" d="M694.4,358l.65,8.87s-1,11.5,5.59,9.2S702,360.93,702,360.93L701,357Z"/><path class="cls-8" d="M648.74,403.63l-3.61,35.14s-4.6,2.63-2.3,9.86,1.64,10.84,1.64,10.84l2.3-.66,1-8.87s3.86,4.93,7.23,5.91c2.34.69,4.76,1.21,6.34-.62a4.28,4.28,0,0,0-1.6-6.63,5.08,5.08,0,0,0-.8-.3c-2.3-.66-4.6-9.53-4.6-9.53l3.95-16.09,5.91-17.74Z"/><path class="cls-8" d="M693.41,403.63l-3.61,35.14s-4.6,2.63-2.3,9.86,1.64,10.84,1.64,10.84l2.3-.66,1-8.87s3.86,4.93,7.23,5.91c2.34.69,4.76,1.21,6.34-.62a4.28,4.28,0,0,0-1.6-6.63,5.08,5.08,0,0,0-.8-.3c-2.3-.66-4.6-9.53-4.6-9.53l4-16.09,5.91-17.74Z"/><path class="cls-10" d="M679.61,293.6s-7.88,4.59-5.58,15.1,18.39,55.51,18.39,55.51a11,11,0,0,1,10.84-2.62l-14.78-56.83S689.47,292,679.61,293.6Z"/><path class="cls-5" d="M680.93,291.62s-7.88,4.6-5.59,15.11,18.4,55.51,18.4,55.51a11,11,0,0,1,10.84-2.63L689.8,302.79S690.78,290,680.93,291.62Z"/><path class="cls-8" d="M691.11,269.19s1.67-13-12-8.73c0,0-9.73-1.79-12.92,10.38L663,283.6l1.57-.85.74,1.6,2.55.65,1.09-2.17.53,2.63,20.9,2.08S681,282,680.88,272.09l1.78,1.88Z"/><circle class="cls-8" cx="667.95" cy="260.59" r="5.26"/><path class="cls-8" d="M673.37,259.3a5.25,5.25,0,0,0-5.25-4.91l.32,0a5.26,5.26,0,1,1,.68,10.49c-.11,0-.22,0-.33,0A5.24,5.24,0,0,0,673.37,259.3Z"/><ellipse class="cls-9" cx="681.09" cy="274.38" rx="1.64" ry="2.3"/></g></svg>