<svg xmlns="http://www.w3.org/2000/svg" xmlns:xlink="http://www.w3.org/1999/xlink" viewBox="0 0 971.83 265.88"><defs><style>.cls-1,.cls-18{opacity:0.1;}.cls-1,.cls-11,.cls-3{isolation:isolate;}.cls-2{fill:#504f60;}.cls-3{opacity:0.2;}.cls-4{fill:#ff3437;}.cls-5{fill:#514e7f;}.cls-6{fill:#464353;}.cls-7{fill:#a1616a;}.cls-8{fill:#33323d;}.cls-9{fill:#8dd070;}.cls-10{fill:#fbbebe;}.cls-11,.cls-15{opacity:0.05;}.cls-12{fill:#3f3d56;}.cls-13{fill:url(#linear-gradient);}.cls-14{fill:#2d293d;}.cls-16{fill:#ffcdd3;}.cls-17{fill:#575988;}</style><linearGradient id="linear-gradient" x1="970.66" y1="147.92" x2="970.66" y2="314.31" gradientTransform="matrix(1, 0, 0, -1, -84.46, 559.66)" gradientUnits="userSpaceOnUse"><stop offset="0" stop-color="gray" stop-opacity="0.25"/><stop offset="0.54" stop-color="gray" stop-opacity="0.12"/><stop offset="1" stop-color="gray" stop-opacity="0.1"/></linearGradient></defs><title>undraw_wallet_aym5</title><g id="baed4b18-14ee-447f-bd84-b0265ca0ad8a"><path class="cls-1" d="M762,260.3c106.9-28.21-154.53,188.21-329.42,197-483.06,24.18-525.29-57.39-304.68-197C415.16,78.57,435.24,346.55,762,260.3Z" transform="translate(0 -195.61)"/></g><g id="Layer_2" data-name="Layer 2"><path class="cls-2" d="M928.86,408.09c0,2-11.71,7.87-25.62,7.87s-24.74-5.86-24.74-7.87,11.27-1.36,25.19-1.36S928.86,406.08,928.86,408.09Z" transform="translate(0 -195.61)"/><path class="cls-3" d="M928.86,408.09c0,2-11.71,7.87-25.62,7.87s-24.74-5.86-24.74-7.87" transform="translate(0 -195.61)"/><path class="cls-4" d="M788.78,371.23a15.55,15.55,0,0,0,6.76-.23c.34-.1.72-.34.69-.68a.89.89,0,0,0-.16-.34,21.2,21.2,0,0,1-2-3.89.34.34,0,0,0-.13-.18.37.37,0,0,0-.21,0c-1,.26-1.86.91-2.85,1.18a4.11,4.11,0,0,1-1.56.12c-.45,0-1.06-.42-1.47-.38C788,368.32,788.61,369.71,788.78,371.23Z" transform="translate(0 -195.61)"/><path class="cls-4" d="M831.48,367.46a11.76,11.76,0,0,0,3.91-3.67.58.58,0,0,0,.1-.32.66.66,0,0,0-.12-.3,12.68,12.68,0,0,0-3.18-3.43,9.12,9.12,0,0,0-1.77,1.63c-.38.4-1.41,1-1.42,1.63,0,.34.39.73.58,1s.48.74.71,1.12A13.49,13.49,0,0,1,831.48,367.46Z" transform="translate(0 -195.61)"/><path class="cls-5" d="M797.63,375.79a1.52,1.52,0,0,1-.27,1,1.45,1.45,0,0,1-.57.34c-3.16,1.13-6.81-.28-10,.83-.65.23-1.26.56-1.91.78a10.79,10.79,0,0,1-2.39.42c-1.11.11-2.23.17-3.35.2a7.9,7.9,0,0,1-2.52-.22,3,3,0,0,1-1.94-1.53,1.5,1.5,0,0,1-.1-1.1,1.2,1.2,0,0,1,.21-.34,3,3,0,0,1,.74-.6l1.16-.75a7.87,7.87,0,0,1,1.77-.93c.45-.15.94-.22,1.41-.34a9.52,9.52,0,0,0,4-3l1.58-1.68a1.55,1.55,0,0,1,.55-.44,1.43,1.43,0,0,1,.68-.06,9.07,9.07,0,0,1,4.31,1.44,5.7,5.7,0,0,0,1.06.63,3.82,3.82,0,0,0,3-.37c.41-.22.32-.34.49-.73s.58-.64.95-.28a1.1,1.1,0,0,1,.22.43A12.08,12.08,0,0,1,797,373a1.41,1.41,0,0,0,.07.54,3.3,3.3,0,0,0,.31.51l.06.12A3.46,3.46,0,0,1,797.63,375.79Z" transform="translate(0 -195.61)"/><path class="cls-6" d="M797.63,375.79a1.52,1.52,0,0,1-.27,1,1.45,1.45,0,0,1-.57.34c-3.16,1.13-6.81-.28-10,.83-.65.23-1.26.56-1.91.78a10.79,10.79,0,0,1-2.39.42c-1.11.11-2.23.17-3.35.2a7.9,7.9,0,0,1-2.52-.22,3,3,0,0,1-1.94-1.53,1.5,1.5,0,0,1-.1-1.1,1.2,1.2,0,0,1,.21-.34c.19.39.32.9.43,1.08a2.25,2.25,0,0,0,1.48,1.07,3.69,3.69,0,0,0,1.36-.17c2.86-.71,5.9-.72,8.65-1.8a20.78,20.78,0,0,1,2.84-1.09,22.15,22.15,0,0,1,3.06-.24c1.61-.13,3.18-.62,4.77-.88A3.49,3.49,0,0,1,797.63,375.79Z" transform="translate(0 -195.61)"/><path class="cls-5" d="M838.71,367.25a5.74,5.74,0,0,1-1.75,3.11,20.56,20.56,0,0,0-2.44,2.67c-.81,1.25-1.18,2.8-2.24,3.85a6,6,0,0,1-1.37,1,9.27,9.27,0,0,1-1.75.81,13.11,13.11,0,0,1-5,.27,4.7,4.7,0,0,1-1.57-.3,4,4,0,0,1-.65-.41,2.93,2.93,0,0,1-1-1,1,1,0,0,1-.1-.74,1.74,1.74,0,0,1,.47-.72,10.27,10.27,0,0,1,1.2-1.08,7.51,7.51,0,0,0,1.56-1.36,4.3,4.3,0,0,0,.6-1.37,12,12,0,0,0,.44-2.6,8.42,8.42,0,0,1,.18-1.74c.25-.9.92-1.71.85-2.64a.65.65,0,0,1,0-.39.58.58,0,0,1,.31-.2,5.69,5.69,0,0,1,1.63-.38,1.87,1.87,0,0,1,1.51.6c.23.28.39.68.73.79a1.3,1.3,0,0,0,.52,0,4.32,4.32,0,0,0,2.38-.74,3,3,0,0,0,1-2.16c0-.31-.14-.64.34-.69s.64.35.83.58a8.17,8.17,0,0,1,1.59,2.9,1,1,0,0,1,.3,0,1.3,1.3,0,0,1,1.09.55A2.17,2.17,0,0,1,838.71,367.25Z" transform="translate(0 -195.61)"/><path class="cls-6" d="M838.71,367.25a5.74,5.74,0,0,1-1.75,3.11,20.56,20.56,0,0,0-2.44,2.67c-.81,1.25-1.18,2.8-2.24,3.85a6,6,0,0,1-1.37,1,9.27,9.27,0,0,1-1.75.81,13.11,13.11,0,0,1-5,.27,4.7,4.7,0,0,1-1.57-.3,4,4,0,0,1-.65-.41,2.93,2.93,0,0,1-1-1,2.54,2.54,0,0,1,1-.24c.73,0,1.27.73,2,1,1,.3,2-.41,3-.65.66-.16,1.36-.12,2-.34a4.86,4.86,0,0,0,1.49-.91,7.31,7.31,0,0,0,1.6-1.54,9.84,9.84,0,0,0,.94-1.86,27.16,27.16,0,0,1,1.89-3.63,2.69,2.69,0,0,1,.39-.5,5,5,0,0,1,.52-.38,4,4,0,0,0,1.2-2.19,3.21,3.21,0,0,1,.27-.73,1.29,1.29,0,0,1,1.08.55A2.15,2.15,0,0,1,838.71,367.25Z" transform="translate(0 -195.61)"/><path class="cls-7" d="M767.31,261.09a7.31,7.31,0,0,1,2,2.38c.48.94,3.22,8.17,3.06,9.23.9-.91,4.43-1.05,5.34-1.95.37-.38,2.41-2.27,2.72-2.71s2.58-1.36,2.83-1.82c.93-1.67-6.59-8-5.63-9.62a.5.5,0,0,0,.08-.26.39.39,0,0,0-.13-.2,11.28,11.28,0,0,0-2.17-1.49,3.49,3.49,0,0,1-1.66-2,6.78,6.78,0,0,0-1.92,1.3q-2.07,1.77-4.07,3.62c-.52.48-1.53,1.12-1.77,1.81S766.81,260.68,767.31,261.09Z" transform="translate(0 -195.61)"/><path class="cls-5" d="M779.48,258.41a22.55,22.55,0,0,0-3.22,2.63,6.45,6.45,0,0,0-2,3.29c-.1.5-.08,1-.16,1.53-.34,2.23-2.27,3.87-3.12,6a9.76,9.76,0,0,0-.54,2,23.24,23.24,0,0,0-.39,3.91c0,1.27,1.22,2.14,1.68,3.33a20.57,20.57,0,0,1,.81,3.62,42,42,0,0,0,2,6.7c1.68,4.64,7.12,17.46,8.8,22.1,5.15-1.29,18.84-4.25,23.4-7,1.52-.91-10.54-11.13-8.92-11.83a.61.61,0,0,0,.51-.7,1,1,0,0,0-.05-.16c-1.63-7.1-6.71-12.94-9-19.85-.8-2.4-2.24-4.45-3.33-6.73-1-2.07-1.51-4.36-2.69-6.32a3.93,3.93,0,0,0-.87-1.07,4.83,4.83,0,0,0-1-.58C780.76,258.93,780.13,258.74,779.48,258.41Z" transform="translate(0 -195.61)"/><circle class="cls-7" cx="767.58" cy="56.62" r="8.05"/><path class="cls-6" d="M775.77,256a2.69,2.69,0,0,1,3-.43,1.47,1.47,0,0,1,.9,1.45l4,.06a7.48,7.48,0,0,1,1.89.18,2.66,2.66,0,0,1,1.58,1c.05.06.11.14.19.15a.3.3,0,0,0,.18-.06,3.44,3.44,0,0,1,2-.34,10.8,10.8,0,0,1,5.85,2.56,2,2,0,0,1,.68.85c.14.46,0,1,.34,1.35,0,3.74,1.29,7.24,2.14,10.89a5,5,0,0,0,1.21,1.74,6.94,6.94,0,0,1,1.29,1.93c.73,1.89-.27,4.12.44,6a10.19,10.19,0,0,0,1.36,2.16A5.53,5.53,0,0,1,804,288.3c0,.46,0,.92,0,1.36a8.51,8.51,0,0,0,.34,1.81c.29,1.1.6,2.2.92,3.3.51,1.77,1.19,3.68,2.77,4.62-3.83.65-7.87,1.29-11.52,0a6.39,6.39,0,0,1-1.43-.72,8.29,8.29,0,0,1-2.53-4.07,19.24,19.24,0,0,1-1.4-5.25,6.12,6.12,0,0,0-.24-1.7,4.88,4.88,0,0,0-2.26-2.13,10.83,10.83,0,0,1-2.73-2.12,4.22,4.22,0,0,1-1.1-3.18c.07-.56.29-1.1.31-1.67a1.31,1.31,0,0,0-.77-1.36c-2.79-.84-4.12-4.15-4.74-7a22.26,22.26,0,0,1-.36-4.46l0-2.91A3.81,3.81,0,0,1,778,260a3.54,3.54,0,0,0,0-.92,2.49,2.49,0,0,0-.64-1A8.53,8.53,0,0,1,775.77,256Z" transform="translate(0 -195.61)"/><path class="cls-6" d="M767.19,265.22a22,22,0,0,1-.08,2.7c-.08.34-.22.68-.32,1a5.89,5.89,0,0,0,.37,3.79,20.28,20.28,0,0,0,1.94,3.35,6,6,0,0,1,.62,1.17,5.9,5.9,0,0,1,.24,1.32,40.5,40.5,0,0,0,.95,5.35c.38,1.53,4.71,14.57,5.72,15.78a1.27,1.27,0,0,0,.77.53,1.35,1.35,0,0,0,.66-.14l2.05-.78a1.45,1.45,0,0,0,.47-.26,1.26,1.26,0,0,0,.29-.81c.15-1.66-4.19-14.79-4.74-16.36-1.67-4.74-3.89-9.31-5-14.22-.3-1.36-.46-3.46-1.46-4.54-.41-.45-.27-.26-.77,0a6.17,6.17,0,0,0-.72.38A2.42,2.42,0,0,0,767.19,265.22Z" transform="translate(0 -195.61)"/><path class="cls-6" d="M806.49,294.73" transform="translate(0 -195.61)"/><path class="cls-4" d="M773.39,274.21c.55,2.9,1.12,5.79,1.68,8.69l8-2.1a5.56,5.56,0,0,0-.68-2.38c-.72-1.83-.74-3.86-1.33-5.74-.45-1.43-1.22-2.75-1.64-4.19-.24-.84-.37-1.7-.6-2.55a19.36,19.36,0,0,0-.94-2.43,15,15,0,0,0-1.75-3.23,5.07,5.07,0,0,0-2.69,1.74,3.81,3.81,0,0,0-.5,1.7c-.14,1.8.51,3.6.3,5.39A15.87,15.87,0,0,0,773.39,274.21Z" transform="translate(0 -195.61)"/><path class="cls-6" d="M783.2,312.76c.45,1.7-.2,3.49-.73,5.18a40,40,0,0,0-1.63,7.79,7,7,0,0,1-.4,2c-.26.56-.68,1-1,1.59a8,8,0,0,0-.61,4.78c.12,1.08.29,2.15.51,3.2a8.09,8.09,0,0,1,.2,3.9c.64-.14,1.07.68,1,1.32a3.55,3.55,0,0,0,.06,1.92c.78.29.79,1.36.76,2.2a18.89,18.89,0,0,0,.55,4.29q1.77,8.55,3.77,17c2.88.9,6.24,1.83,9,.59a1.8,1.8,0,0,0,1.14-1.14,2,2,0,0,0-.11-.88l-1.3-4.74a8.73,8.73,0,0,1-.47-3.5c.13-.87.51-1.81.08-2.59a7.23,7.23,0,0,0-.55-.72c-.68-1-.32-2.34-.26-3.54a2.72,2.72,0,0,0-.06-.81,3.54,3.54,0,0,0-.39-.89,13.71,13.71,0,0,1-1.5-6.77,1.66,1.66,0,0,0-.11-.88,2.21,2.21,0,0,1-.23-.36,1,1,0,0,1,.08-.65,6,6,0,0,1-1-1,1.46,1.46,0,0,0,.47-2,1.93,1.93,0,0,0-.22-.28.77.77,0,0,0,.6-.9.75.75,0,0,0-.24-.41c-.16-.12-.38-.17-.5-.34s0-.61.11-.88l.8-1.43c.59-1.06.72-2.38,1.36-3.4a25.19,25.19,0,0,0,2.09-4.79l2.3-6.32,1.54,1.33a5.19,5.19,0,0,1,1.27,1.45,6.72,6.72,0,0,1,.41,1.73c.56,3.43,2.72,6.41,3.52,9.79a6.53,6.53,0,0,0,.73,2.18,5.31,5.31,0,0,1,.42.63,3.29,3.29,0,0,1,.17,1,4.84,4.84,0,0,0,2,3.47c.76.52,1.71.88,2.12,1.7a2.85,2.85,0,0,0,.34.73c.37.44,1.16.49,1.32,1.05.08.31-.08.68.09.95a.88.88,0,0,0,.38.28l2.22,1.11c2.48,1.24,3.74,4.09,5.57,6.16a13.36,13.36,0,0,1,1.67,2.21c.79,1.41,1.16,3.18,2.49,4.08a3.82,3.82,0,0,1,1,.72c.42.55.26,1.33.3,2s.57,1.52,1.23,1.31a4.87,4.87,0,0,0,0,2.57,12.93,12.93,0,0,0,7.85-3.18,3.1,3.1,0,0,0,1.28-2.14.72.72,0,0,0-.1-.43,1.17,1.17,0,0,0-.5-.38c-2.07-1.12-2.69-3.73-3.74-5.84a50.68,50.68,0,0,0-3.41-5.21c-2.46-3.73-4.14-8.24-7.87-10.7a5.33,5.33,0,0,1-2.19-1.92c-.23-.5-.25-1.07-.44-1.59a1.38,1.38,0,0,0-1.16-1,7,7,0,0,0,.27-2.47,3,3,0,0,0-.13-1.07,4.78,4.78,0,0,0-.55-1,10.22,10.22,0,0,1-1.4-5.45,9,9,0,0,0-.09-2.94c-.15-.47-.42-.9-.6-1.36a8.58,8.58,0,0,1-.42-2.56l-.21-3.27a16.07,16.07,0,0,0-.42-3.24c-.68-2.54-1.36-13.18-3.69-14.38s-6.34,7-9,7.15a11.58,11.58,0,0,0-3.4.66,16.36,16.36,0,0,0-4.64,3.07l-4.83,4A17.94,17.94,0,0,1,783.2,312.76Z" transform="translate(0 -195.61)"/><path class="cls-6" d="M760,243.29a6.11,6.11,0,0,1,4.69-2.29,11,11,0,0,1,5.18,1.3,6.24,6.24,0,0,0,1.51.62c.85.18,1.8,0,2.57.34,1,.54,1.22,1.92,1.13,3.07s-.31,2.41.3,3.4a7.22,7.22,0,0,1,.59.89,3,3,0,0,1,0,1.9,14.88,14.88,0,0,1-1-1.25,1.14,1.14,0,0,0-1.41-.37c-.44.3-.43.84-.46,1.32s-.14,1.06-.6,1.22a1,1,0,0,1-1-.4c-.78-.95-.47-2.48-1.24-3.44-.44-.54-1.17-.81-1.58-1.38s-.4-1-.68-1.5-.93-.84-1.36-.51a2,2,0,0,0-.37.49,2.1,2.1,0,0,1-2.48.75,4.32,4.32,0,0,0-1.08-.47,1.36,1.36,0,0,0-1.23.68,2.75,2.75,0,0,0-.34,1.43,3.27,3.27,0,0,1-.26,1.95,2.05,2.05,0,0,1-.55.51,1.69,1.69,0,0,1-1.88.2,1.4,1.4,0,0,1-.43-1.32,11.24,11.24,0,0,1,.41-1.4c.29-1.05-.1-2.24.23-3.24A10.34,10.34,0,0,1,760,243.29Z" transform="translate(0 -195.61)"/><path class="cls-4" d="M764.34,267.31a1.25,1.25,0,0,0,.07.74,1.12,1.12,0,0,0,.4.38,8.17,8.17,0,0,0,3.8,1.23,1.19,1.19,0,0,1,.52.14.91.91,0,0,1,.22,1.05,2.76,2.76,0,0,0-.24,1.13c.1.71.94,1,1.66,1.13a3.85,3.85,0,0,0,2.88-.57,4.38,4.38,0,0,0,1.18-1.78c2-4.49,2.64-9.45,4.62-13.93a3.07,3.07,0,0,0,.3-.93.92.92,0,0,0-.37-.86c-.37-.23-.94-.1-1.19-.46-.12-.18-.11-.42-.22-.61-.22-.41-.82-.34-1.23-.58s-.54-.52-.9-.59a1.13,1.13,0,0,0-.93.4,12.12,12.12,0,0,0-2.42,4.07,47.24,47.24,0,0,1-3.46,6.42,3.65,3.65,0,0,0-1.08-2.12c-.61-.13-1.39.94-1.72,1.34A8.54,8.54,0,0,0,764.34,267.31Z" transform="translate(0 -195.61)"/><path class="cls-1" d="M776.71,253.71a1.66,1.66,0,0,0-1.27.63,3.61,3.61,0,0,0-.52,1.7,14.73,14.73,0,0,1-2,5.39" transform="translate(0 -195.61)"/><path class="cls-1" d="M778.44,255.07a1.94,1.94,0,0,0-1.65,1,5.66,5.66,0,0,0-.41,1.68,9.34,9.34,0,0,1-1.65,3.54" transform="translate(0 -195.61)"/><path class="cls-8" d="M859.37,321.63v-4.22a11.74,11.74,0,0,0-11.74-11.74h-167a11.74,11.74,0,0,0-11.74,11.74v7.79Z" transform="translate(0 -195.61)"/><path class="cls-9" d="M727.08,300.71s-.48,29.58,4.76,39.31,7.49,52.07,7.49,52.07,55,5.68,93.28-6.81,119.82-17.61,119.82-17.61l-13.74-92.58s-67.86-4.35-106.46,14.06S727.08,300.71,727.08,300.71Z" transform="translate(0 -195.61)"/><path class="cls-1" d="M727.08,300.71s-.48,29.58,4.76,39.31,7.49,52.07,7.49,52.07,55,5.68,93.28-6.81,119.82-17.61,119.82-17.61l-13.74-92.58s-67.86-4.35-106.46,14.06S727.08,300.71,727.08,300.71Z" transform="translate(0 -195.61)"/><path class="cls-9" d="M739.24,311.51s-1.72,24.41,2.6,32.21,4.51,42.6,4.51,42.6,49.47,2.3,84.67-9.68,109.14-19.75,109.14-19.75l-8.41-75.71s-61.18-.63-96.9,16.23S739.24,311.51,739.24,311.51Z" transform="translate(0 -195.61)"/><ellipse class="cls-1" cx="830.9" cy="335.44" rx="12.84" ry="27.55" transform="translate(-35.09 -90.34) rotate(-7.1)"/><path class="cls-3" d="M901.49,230s-65.93,16.68-97,46.05-96.54,43.28-96.54,43.28,8.62,28.29,16.6,35.94,23.1,47.27,23.1,47.27,54.06-11.47,86.68-35.12S943,313.87,943,313.87Z" transform="translate(0 -195.61)"/><path class="cls-9" d="M707,315.08s8.62,28.3,16.59,35.95,23.1,47.26,23.1,47.26,54.07-11.46,86.69-35.12S942,309.65,942,309.65l-41.47-83.9s-65.93,16.69-97,46.06S707,315.08,707,315.08Z" transform="translate(0 -195.61)"/><path class="cls-1" d="M707,315.08s8.62,28.3,16.59,35.95,23.1,47.26,23.1,47.26,54.07-11.46,86.69-35.12S942,309.65,942,309.65l-41.47-83.9s-65.93,16.69-97,46.06S707,315.08,707,315.08Z" transform="translate(0 -195.61)"/><path class="cls-9" d="M721.83,321.63s5.86,23.76,12.36,29.85,17.36,39.16,17.36,39.16,47.79-13,77.61-35.2S927,303.18,927,303.18l-31.22-69.5s-58.43,18.17-87.25,45.18S721.83,321.63,721.83,321.63Z" transform="translate(0 -195.61)"/><ellipse class="cls-1" cx="816.43" cy="316.28" rx="12.84" ry="27.55" transform="translate(-57.2 178.6) rotate(-24.97)"/><path class="cls-1" d="M863.88,325.79V443.26a10.16,10.16,0,0,1-10.16,10.16H679a10.16,10.16,0,0,1-10.16-10.16V313.94c5,1.86,5,1.86,10.16,1.71H853.72A10.16,10.16,0,0,1,863.88,325.79Z" transform="translate(0 -195.61)"/><path class="cls-2" d="M863.88,327.28V444.76a10.15,10.15,0,0,1-10.16,10.15H679a10.16,10.16,0,0,1-10.16-10.15V315.43c5,1.86,5,1.86,10.16,1.71H853.72A10.16,10.16,0,0,1,863.88,327.28Z" transform="translate(0 -195.61)"/><path class="cls-1" d="M863.38,370.71v37.57H827a18.79,18.79,0,0,1,0-37.57Z" transform="translate(0 -195.61)"/><path class="cls-8" d="M863.88,369.71v37.58H827.44a18.79,18.79,0,0,1,0-37.57Z" transform="translate(0 -195.61)"/><circle class="cls-1" cx="829.19" cy="193.89" r="7.32"/><circle class="cls-4" cx="829.69" cy="192.9" r="7.32"/><path class="cls-10" d="M927.12,369.39c.29,3.13-2.08,6.18-1.39,9.25.15.66.43,1.28.53,1.94.29,1.83-.8,3.55-1.84,5.08l-8.92,13.09a8.32,8.32,0,0,1-1.27,1.57c-1.7,1.52-4.26,1.36-6.51,1.81a11.08,11.08,0,0,0-4.35,1.93.27.27,0,0,0,0,.38,3.71,3.71,0,0,0,3.24,1.52c.23.31,0,.77-.34,1s-1.14.42-1.24,1.23a1.39,1.39,0,0,0,.17.82,2.56,2.56,0,0,0,1.56,1.09c3.09.94,6.42-.72,8.73-3s4-5.11,6.24-7.4c1.26-1.27,2.69-2.36,4-3.6a44.73,44.73,0,0,0,6.52-8.44,9.39,9.39,0,0,0,1.42-2.87c.24-1.05.13-2.1.4-3.11a11.34,11.34,0,0,1,2.14-3.5,11.59,11.59,0,0,0,2.43-7.53,7.24,7.24,0,0,0-4.4-6.25,4,4,0,0,0-2.47-.15,5.89,5.89,0,0,0-2.52,2l-1.7,2a4.72,4.72,0,0,0-1,1.5,1.57,1.57,0,0,0,.34,1.66" transform="translate(0 -195.61)"/><path class="cls-11" d="M927.12,369.39c.29,3.13-2.08,6.18-1.39,9.25.15.66.43,1.28.53,1.94.29,1.83-.8,3.55-1.84,5.08l-8.92,13.09a8.32,8.32,0,0,1-1.27,1.57c-1.7,1.52-4.26,1.36-6.51,1.81a11.08,11.08,0,0,0-4.35,1.93.27.27,0,0,0,0,.38,3.71,3.71,0,0,0,3.24,1.52c.23.31,0,.77-.34,1s-1.14.42-1.24,1.23a1.39,1.39,0,0,0,.17.82,2.56,2.56,0,0,0,1.56,1.09c3.09.94,6.42-.72,8.73-3s4-5.11,6.24-7.4c1.26-1.27,2.69-2.36,4-3.6a44.73,44.73,0,0,0,6.52-8.44,9.39,9.39,0,0,0,1.42-2.87c.24-1.05.13-2.1.4-3.11a11.34,11.34,0,0,1,2.14-3.5,11.59,11.59,0,0,0,2.43-7.53,7.24,7.24,0,0,0-4.4-6.25,4,4,0,0,0-2.47-.15,5.89,5.89,0,0,0-2.52,2l-1.7,2a4.72,4.72,0,0,0-1,1.5,1.57,1.57,0,0,0,.34,1.66" transform="translate(0 -195.61)"/><path class="cls-12" d="M933.87,450.12a10.35,10.35,0,0,1-6.64,1c-.36-.05-.79-.08-1,.21s.06,1,.48,1.34a9.82,9.82,0,0,0,4.56,1.87,30.2,30.2,0,0,0,4.46.3,75.07,75.07,0,0,0,12.19-.45,1.62,1.62,0,0,0,.68-.2,1.26,1.26,0,0,0,.51-.76,3.06,3.06,0,0,0-1.06-2.9,8.92,8.92,0,0,0-2.85-1.53l-3.54-1.38c-.83-.32-2.16-1.18-3.06-1.11C936.88,446.62,935.28,449.3,933.87,450.12Z" transform="translate(0 -195.61)"/><path class="cls-11" d="M933.87,450.12a10.35,10.35,0,0,1-6.64,1c-.36-.05-.79-.08-1,.21s.06,1,.48,1.34a9.82,9.82,0,0,0,4.56,1.87,30.2,30.2,0,0,0,4.46.3,75.07,75.07,0,0,0,12.19-.45,1.62,1.62,0,0,0,.68-.2,1.26,1.26,0,0,0,.51-.76,3.06,3.06,0,0,0-1.06-2.9,8.92,8.92,0,0,0-2.85-1.53l-3.54-1.38c-.83-.32-2.16-1.18-3.06-1.11C936.88,446.62,935.28,449.3,933.87,450.12Z" transform="translate(0 -195.61)"/><path class="cls-6" d="M936.35,403.11c-1.47,2-3,4.23-2.63,6.66a15,15,0,0,0,1.47,3.67,25.41,25.41,0,0,1,1.48,5.16c.55,2.57,1.11,5.14,1.45,7.75.38,2.94-1.43,11.47-1.6,14.43a3,3,0,0,1-.62,2c-.19.21-.45.37-.54.64a1.1,1.1,0,0,0,.12.75,8.21,8.21,0,0,0,4.43,4.06,35.22,35.22,0,0,0,8.53,2.25,1.72,1.72,0,0,0,.81-.11,1.64,1.64,0,0,0,.62-.71c1.48-2.83,0-12.91.07-16.1,0-2.67.65-5.32.54-8-.1-2.14-.68-4.23-.88-6.36a37.31,37.31,0,0,1,.95-10.46c.49-2.65,1-5.3,1.61-7.91a15.42,15.42,0,0,1,1.7-4.6c.68-1.1,1.64-2,2.43-3.06A13.8,13.8,0,0,0,959,383.06c0-.34-5.11,1.29-5.55,1.48a17.51,17.51,0,0,0-5,3.18,41.33,41.33,0,0,0-3.11,3.86q-2.19,2.66-4.3,5.34C939.48,399,937.9,401,936.35,403.11Z" transform="translate(0 -195.61)"/><path class="cls-11" d="M936.35,403c-1.47,2-3,4.23-2.63,6.66a14.83,14.83,0,0,0,1.47,3.67,25.59,25.59,0,0,1,1.48,5.16c.55,2.57,1.11,5.14,1.45,7.75.38,2.95-1.43,11.47-1.6,14.43a3.05,3.05,0,0,1-.62,2c-.19.2-.45.36-.54.63a1.1,1.1,0,0,0,.12.75,8.32,8.32,0,0,0,4.43,4.08,32.81,32.81,0,0,0,8.53,1.6,1.72,1.72,0,0,0,.81-.11,1.56,1.56,0,0,0,.62-.7c1.48-2.84,0-12.26.07-15.46,0-2.67.65-5.32.54-8-.1-2.14-.68-4.23-.88-6.36a37.31,37.31,0,0,1,.95-10.46c.49-2.65,1-5.3,1.61-7.91a15.42,15.42,0,0,1,1.7-4.6c.68-1.1,1.64-2,2.43-3.06A13.8,13.8,0,0,0,959,383c0-.34-5.11,1.28-5.55,1.48a17.32,17.32,0,0,0-5,3.19,39.93,39.93,0,0,0-3.11,3.85q-2.19,2.65-4.3,5.35C939.48,398.86,937.9,400.92,936.35,403Z" transform="translate(0 -195.61)"/><circle class="cls-10" cx="919.95" cy="156.04" r="8.26"/><path class="cls-10" d="M927.39,351.3a10.73,10.73,0,0,0,6.86,4.79l-.62,2.27c-1.08,3.88-2.28,8-5.29,10.69a4.93,4.93,0,0,0-.84-3.86,14.45,14.45,0,0,0-2.8-2.94l-4.76-4.12a1.32,1.32,0,0,1-.34-.4,1.17,1.17,0,0,1,0-.9c.61-1.89,2.34-3.07,3.75-4.34a13.51,13.51,0,0,0,1.88-2.19C926.18,348.94,926.77,350.3,927.39,351.3Z" transform="translate(0 -195.61)"/><path class="cls-6" d="M909.06,343.34l-.18-1.55c1.3.34,2.54-.77,3.37-1.92s1.61-2.5,2.88-3c1.54-.58,3.18.34,4.65,1.12a14.59,14.59,0,0,0,5.34,1.74,3.3,3.3,0,0,1,.88.14c1,.34,1.42,1.55,1.56,2.64a10.48,10.48,0,0,0,.57,3.23c.34.74,1,1.28,1.36,2,1,2,0,4.63,1.1,6.55l-2.65-2.43c-.24-.22-.58-.45-.85-.27s-.23.48-.31.74a1.4,1.4,0,0,1-1.89.68,5.41,5.41,0,0,1-1.7-1.55,10.36,10.36,0,0,0-4.2-3.18,5.4,5.4,0,0,0-4.43.29c-1.23.7-2.14,2.33-3.65,2.38-2.08.08-2.95-3.79-3.91-5.32a1.86,1.86,0,0,0,.55-2.34C907.69,343.26,909,343.1,909.06,343.34Z" transform="translate(0 -195.61)"/><path class="cls-7" d="M806.85,295A15.89,15.89,0,0,0,805,297a3.86,3.86,0,0,0-.84,2.48,1.29,1.29,0,0,0,.23.73.62.62,0,0,0,.69.2,1,1,0,0,0,.34-.3c.36-.43.74-.84,1.14-1.24.15-.14.34-.3.54-.24a.51.51,0,0,1,.23.15,1.54,1.54,0,0,1,.48.75,1.75,1.75,0,0,1-.53,1.45,3.76,3.76,0,0,0-.89,1.32.61.61,0,0,0,0,.42.64.64,0,0,0,.27.22,3.77,3.77,0,0,0,3.21.21c.68-.27,1.29-.74,2-1a4.45,4.45,0,0,0,.88-.34,1.79,1.79,0,0,0,.78-1.17,4.57,4.57,0,0,0,.05-1.43,16.38,16.38,0,0,0-1.17-5.39.72.72,0,0,0-.2-.29.67.67,0,0,0-.34-.09c-.87-.09-2.3-.54-3.14-.21a2,2,0,0,0-.74.66C807.83,294,806.85,294.8,806.85,295Z" transform="translate(0 -195.61)"/><path class="cls-6" d="M806.57,294.26c0-.83-1-2.84.6-3,0-.89-1.25-1.44-1-2.38.08-.32.34-.57.37-.89.1-.91-1.54-1.41-1.26-2.28.1-.34.46-.54.54-.87.18-.79-1.23-1.14-1.25-1.95,0-.27.15-.53.14-.8s-.3-.6-.46-.89c-.43-.76-.22-1.94-1-2.33.52.05.68-.72.47-1.18s-.64-.88-.64-1.39a2.72,2.72,0,0,0,0-.57c-.15-.5-1-.54-1.1-1a5.23,5.23,0,0,1,0-.56,1.07,1.07,0,0,0-.82-.74,3.29,3.29,0,0,1-1.1-.39c-.24-.18-.52-.48-.77-.34s-.14.17-.22.25c-.3.36-.89.2-1.27-.06a5.27,5.27,0,0,1-1.95-3.51c-.24-1.35-.23-2.75-.53-4.09a9.59,9.59,0,0,0-.37-1.22c-.13-.35-.55-.88-.57-1.22-.07-.79,1.56-.25,2.17-.17a8.93,8.93,0,0,1,1.77.34,17.09,17.09,0,0,1,1.81.79c2.46,1.09,5.42,1.22,7.4,3a6.2,6.2,0,0,0,2,1.66,11.43,11.43,0,0,1,1.15.3c.93.44,1.08,1.68,1.59,2.58a5.52,5.52,0,0,1,.42.75,3.08,3.08,0,0,1,.14,1l.07,2.36a88.37,88.37,0,0,1-.19,11.85,9.74,9.74,0,0,0,0,3.88c.1.34.25.66.34,1a5.65,5.65,0,0,1,.13,1.23l0,1.53a.46.46,0,0,1-.07.34.51.51,0,0,1-.41.1c-2.13-.2-4.28-1.39-6.29-.67" transform="translate(0 -195.61)"/><ellipse class="cls-2" cx="903.69" cy="212.48" rx="25.18" ry="3.64"/><path class="cls-13" d="M925.36,408.27c-.45-1.9-.72-3.56-.72-3.56a7.32,7.32,0,0,0-.83-3.61v-.52h0v-3.82a13.08,13.08,0,0,1,1-2c.68-1.2,0-5.6,0-5.6s-2.55-6.19-1.93-10.12-5.22-17.45-5.22-17.45a17.35,17.35,0,0,1,.54-3.86,2.76,2.76,0,0,0,.08-.81v-.07c-.09-2.59-2.14-7.44-2.14-7.44l.28-9.26a27.27,27.27,0,0,0-.83-12.78c-.74-2.56-1.22-4.61-1.52-6.19,0-.17-.07-.34-.1-.51,4.39-.68,7.75-1.23,7.75-1.23s-2.55-10.65-4.27-12.52-3.1-7.72-3.1-7.72-.89-7.53.56-9.73,1.65-6,1.65-6,3.3-2.38,3.71-3.46a17.47,17.47,0,0,0,1.1-4.73c0-1.26-.41-2.38-.27-3.06s-1-3.2-.42-4.4a3.05,3.05,0,0,0,.22-1.15v0h0a15.55,15.55,0,0,0-.29-3.12,8.86,8.86,0,0,0-3.27-1.75l-.07-.29-.19-.74-.32-.2v-.27l0-1.08.52-2.43c1-4.23-4.63-4.86-4.63-4.86a2.93,2.93,0,0,0-1.6-1.4c-1.13-.4-.19,6.36.34,6.81a26.81,26.81,0,0,1,2.23,3.48h0l.09.17a3.45,3.45,0,0,0-.26.28l.22,1.46,0,.23a6,6,0,0,0-.9,1.53,3.33,3.33,0,0,1,.83,2.39,7.43,7.43,0,0,0,.34,2.93c-.06-.08-.79-.86-1.51-.67s-2.75.8-2.75.8-1.52.27-1.37.6-1,1.8-1,1.8l-4.06-3.86c0-.11-.09-.23-.12-.34a8.83,8.83,0,0,1-.34-1.7A8.89,8.89,0,0,0,904,266a2.84,2.84,0,0,0,1.12-.72,4.46,4.46,0,0,0,.66-1.76,25.8,25.8,0,0,1,1.51-3.36,10.9,10.9,0,0,0,.76-6.05,3.92,3.92,0,0,0-.62-1.78c-.66-.91-1.87-1.28-2.75-2s-1.44-1.84-2.46-2.38a4.89,4.89,0,0,0-3.08-.27,16.76,16.76,0,0,0-5.77,2.1,3,3,0,0,1-1.92.63,2.45,2.45,0,0,1-1.39-1s0,0,0,0l0-.06a7.13,7.13,0,0,0-.63,3.05,3.7,3.7,0,0,0,0,.48v.31h0a.78.78,0,0,1,0,.22,1.63,1.63,0,0,1-.39.55,5.3,5.3,0,0,0-.34.45.7.7,0,0,1,.06-.17,2.39,2.39,0,0,0-.42,1.29,1.34,1.34,0,0,0,.3.92,5.78,5.78,0,0,0,.67.53,7.74,7.74,0,0,0-.13,1.36A7.87,7.87,0,0,0,893,265c.05.11.09.23.13.34a9.49,9.49,0,0,1,.74,4.43c0,.1,0,.21,0,.32s-.11.11-.15.17h0s-6.72.07-8.3-1.36-4,3.49-4,3.49-2.41.47-2.89,0-3.3-.06-3.3-.06a6,6,0,0,0-4.2-1.53,12.43,12.43,0,0,0-3.06-1.71h0l-.08,0h0a3.37,3.37,0,0,0-1.51-.19,30.51,30.51,0,0,1-4.27-4.2c-1-1.47-5.55-6.9-5.57-6.92v-.27l0-.79a3,3,0,0,1-.41,0l-.1-.28a15.3,15.3,0,0,0-1-2.24s0-1,.29-1.25-.12-3.91-.12-3.91-3-6.95-5.64-1.76c0,0-5,3.36-.81,7.27,0,0,1.7.82,1.93,1.47.15.42.72,1.59,1.11,2.38l.17.34,0,0,.07.66,0,.25c-.79.45-1.33.9-1.2,1.24a8,8,0,0,1,.48,1.8s5.85,7.32,6.6,10.45c0,0,15.69,9.33,20.85,10l-.91,4.65a37.06,37.06,0,0,0-.21,3.8c.07,1-.62,5.52-.62,5.52s-.89,6.66-1.65,7.6-.62,4.92-.62,4.92a33.93,33.93,0,0,1-1,5.66,14.38,14.38,0,0,0-.21,5.66s-2.61,6,3.65,1.94c0,0,3.06-.2,6.61-.32v.34c0,.46,0,.95,0,1.47-.05,3.43-.07,8.17.09,11.74.27,6.33,2.2,18.85,2.2,18.85v6.3a8.33,8.33,0,0,0-.18,1.8,11.69,11.69,0,0,0,1.7,6.29l.48,4.2a16.3,16.3,0,0,1,1.15,4.43,2.58,2.58,0,0,1,0,.39,2.39,2.39,0,0,0-.06.65,36.88,36.88,0,0,0,1.08,6.47s.07,4.59.76,4.86-.79,2.65-1.2,3.34c0,0,0-.09,0-.13l-.08.14a3.07,3.07,0,0,0-.22,1.16,1.69,1.69,0,0,0,.76,1.62c1.31.8,2,1.46.9,1.73a10,10,0,0,0-1.21.25.47.47,0,0,0-.06-.15.72.72,0,0,0-.45.8,3.38,3.38,0,0,0,.41,1.55,16.38,16.38,0,0,0,1.86,3.4l.53-.06a2.6,2.6,0,0,1-.31.57,2.13,2.13,0,0,1-.78.68,2.3,2.3,0,0,1-.94.33,2.68,2.68,0,0,0-2,.94c-.68.89-1.12,2.1.24,3.16l4.92,1.71s8.47,1.1,8-.8-.73-3.57-.73-3.57a7.34,7.34,0,0,0-.68-3.36,5.09,5.09,0,0,0-.3-.5l.3,0s.62-4.2,1.45-5c.19-.18.23-.34.19-.43s-.14-.36-.41-.44l-.06.17a4.59,4.59,0,0,0-.82-.1s-.28-2.19.62-3a.86.86,0,0,0,.17-.66,3,3,0,0,0-.1-.89.05.05,0,0,1,0,.05,32.56,32.56,0,0,0-2-5.16,6.34,6.34,0,0,1,.48-2.8c.55-.8-.07-10.85-.07-10.85s.21-4.86-.41-7.13.76-4.93.76-4.93v-.17l-.08-.77v.05c-.14-1.29-.4-3.62-.6-4.7-.27-1.53.07-8.85.07-8.85l1.24-3.13,2.2,5.39,2.34,7.19a6.17,6.17,0,0,1,1.19,3.07v.22a3.87,3.87,0,0,0,0,.48,4.33,4.33,0,0,0,.71,2.57s.62,3.4,1.58,4.26a3.8,3.8,0,0,1,1,2.53,45,45,0,0,0,1.7,5.79,8.49,8.49,0,0,1,.48,3.34h0v.18s.17,1.76.16,3.24v.49a5.32,5.32,0,0,1-.14,1.2l0,.07a1,1,0,0,1,0-.25,12.6,12.6,0,0,0-.34,3.06c0,1.78.24,3.87,1.31,5.11,1.86,2.13,3,1.87,3,1.87s-.89,2.66-2,3.2a.41.41,0,0,0-.11.07.9.9,0,0,0,0-.16,1.31,1.31,0,0,0-.34,1,7.12,7.12,0,0,0,1.36,3.94,2.15,2.15,0,0,0,.93.55,1,1,0,0,1-.17.1l-.38.19a2.19,2.19,0,0,1-.56.14,2.62,2.62,0,0,0-1.95,1c-.68.88-1.12,2.09.24,3.15l4.92,1.71S925.8,410.17,925.36,408.27Z" transform="translate(0 -195.61)"/><path class="cls-14" d="M893,411.42l-4.77-1.71c-1.31-1.06-.89-2.27-.23-3.16a2.56,2.56,0,0,1,1.89-.94,2.18,2.18,0,0,0,.91-.33,2,2,0,0,0,.75-.68,3.44,3.44,0,0,0,.54-1.84s5.23-1.53,6.66,0a4,4,0,0,1,.64.93,8,8,0,0,1,.68,3.37s.26,1.66.7,3.56S893,411.42,893,411.42Z" transform="translate(0 -195.61)"/><path class="cls-14" d="M916.34,409.07l-4.76-1.71a2.06,2.06,0,0,1-.24-3.15,2.53,2.53,0,0,1,1.89-.95,1.67,1.67,0,0,0,.54-.15,2.53,2.53,0,0,0,.37-.18,3,3,0,0,0,1.3-2.53s5.22-1.53,6.66,0a3.8,3.8,0,0,1,.5.69,7.56,7.56,0,0,1,.79,3.61s.27,1.67.69,3.56S916.34,409.07,916.34,409.07Z" transform="translate(0 -195.61)"/><path class="cls-1" d="M898.8,402.76a3.72,3.72,0,0,1,.63.93h0l-7.83.91a3.56,3.56,0,0,0,.54-1.85S897.37,401.23,898.8,402.76Z" transform="translate(0 -195.61)"/><path class="cls-1" d="M922.6,401.09v1.47c-1.21,2-7.11,1.57-8.82.56a3.14,3.14,0,0,0,.37-.18,3,3,0,0,0,1.29-2.53s5.23-1.53,6.66,0A3.6,3.6,0,0,1,922.6,401.09Z" transform="translate(0 -195.61)"/><path class="cls-6" d="M923.53,394.77a14.41,14.41,0,0,0-.93,2V402c-1.33,2.19-8.25,1.46-9.19.26s-1.91-4.32-.86-4.86,1.93-3.2,1.93-3.2-1.13.27-2.93-1.86-1.26-6.86-.93-8a23.89,23.89,0,0,0,0-4.93s.07-2.66-.46-3.53a42.57,42.57,0,0,1-1.67-5.79,3.94,3.94,0,0,0-.93-2.53c-.94-.86-1.53-4.26-1.53-4.26a4.38,4.38,0,0,1-.67-2.86,5.82,5.82,0,0,0-1.13-3.47L902,349.82l-2.13-5.39-1.2,3.12s-.34,7.33-.06,8.86.68,5.59.68,5.59a8.21,8.21,0,0,0-.73,4.93,33.54,33.54,0,0,1,.38,7.13s.6,10.05.06,10.85a6.54,6.54,0,0,0-.46,2.8s2.72,5.86,1.86,6.66-.6,3-.6,3,1.87,0,1.07.8-1.4,5-1.4,5l-8,.94a16.46,16.46,0,0,1-1.8-3.4c-1.07-2.48.19-2.2,1.27-2.47s.39-.93-.88-1.73-.53-2.6-.53-2.6,1.93-3.26,1.27-3.52-.74-4.87-.74-4.87-1.33-5.44-1-6.92-1.07-5-1.07-5l-.47-4.2a11.57,11.57,0,0,1-1.46-7.93V355s-1.87-12.51-2.13-18.84c-.17-4.05-.12-9.58-.07-13,0-1.93.07-3.22.07-3.22l28.76-3a24.67,24.67,0,0,0,.53,4.27c.29,1.58.75,3.63,1.47,6.18a28,28,0,0,1,.8,12.79l-.27,9.25s2.53,6.19,2,8.33a17.34,17.34,0,0,0-.53,3.86s5.65,13.52,5.06,17.45,1.86,10.12,1.86,10.12S924.2,393.57,923.53,394.77Z" transform="translate(0 -195.61)"/><path class="cls-11" d="M907.09,360.07l8.76-1.16S910.88,364,907.09,360.07Z" transform="translate(0 -195.61)"/><path class="cls-1" d="M914.58,350.35s.3,3.1-1.6,4.26C913,354.61,916.38,354.08,914.58,350.35Z" transform="translate(0 -195.61)"/><path class="cls-1" d="M914,340.5s-7.32,6-10,5.52S914,340.5,914,340.5Z" transform="translate(0 -195.61)"/><path class="cls-1" d="M896.23,362.9s-5.56,1.26-5.72,3.5S896.23,362.9,896.23,362.9Z" transform="translate(0 -195.61)"/><path class="cls-11" d="M897.46,390.67s-7.86,1.47-5.63,2.46a38,38,0,0,0,5.89,1.8S900.26,395.07,897.46,390.67Z" transform="translate(0 -195.61)"/><g class="cls-15"><path d="M890.24,394.72a1.57,1.57,0,0,1-.72-1.14l-.08.14s-.73,1.8.54,2.6l.41.27c.23,0,.48-.08.72-.14C892.19,396.19,891.51,395.52,890.24,394.72Z" transform="translate(0 -195.61)"/><path d="M900.36,394.19c.22-.2.21-.71.08-1.37a3.78,3.78,0,0,0-.44,1.93A1.58,1.58,0,0,1,900.36,394.19Z" transform="translate(0 -195.61)"/><path d="M899.15,361.06a9.33,9.33,0,0,0-.53,2.45,10.34,10.34,0,0,1,.61-1.69Z" transform="translate(0 -195.61)"/><path d="M917.15,357.57a3.61,3.61,0,0,0,.07-.73c-.1.49-.17,1-.22,1.36C917,358,917.09,357.79,917.15,357.57Z" transform="translate(0 -195.61)"/><path d="M899,384.73a4.09,4.09,0,0,0,.19-1.48,5.25,5.25,0,0,0-.38,1.87A2.33,2.33,0,0,1,899,384.73Z" transform="translate(0 -195.61)"/><path d="M900.6,397.29a26,26,0,0,0-.91,4.09l-8.06.93a17.08,17.08,0,0,1-1.8-3.41c-.08-.19-.16-.38-.23-.58-.48.22-.68.72,0,2.18a16.7,16.7,0,0,0,1.81,3.4l8-.93s.6-4.19,1.4-5C901.22,397.59,901,397.39,900.6,397.29Z" transform="translate(0 -195.61)"/><path d="M890,385.33s.06,4.6.73,4.86h0c.34-.76.56-1.48.26-1.6-.68-.26-.73-4.86-.73-4.86s-1.33-5.45-1-6.93-1.06-5-1.06-5l-.47-4.19a11.52,11.52,0,0,1-1.46-7.93v-6.47s-1.87-12.52-2.14-18.84c-.17-4.06-.12-9.59-.06-13,0-.63,0-1.18,0-1.65l-.23,0s0,1.28-.07,3.22c0,3.45-.11,9,.07,13,.26,6.33,2.13,18.85,2.13,18.85v6.47a11.55,11.55,0,0,0,1.46,7.92l.47,4.2s1.4,3.53,1.06,5S890,385.33,890,385.33Z" transform="translate(0 -195.61)"/><path d="M913.68,400.51a7.67,7.67,0,0,1-1.27-3.16c-.82.74.12,3.62,1,4.77s7.85,1.93,9.19-.27v-1.27C920.81,402.36,914.56,401.65,913.68,400.51Z" transform="translate(0 -195.61)"/><path d="M923.8,393a14.53,14.53,0,0,0-.93,2v.94a13.1,13.1,0,0,1,.68-1.33,4.1,4.1,0,0,0,.29-1.66Z" transform="translate(0 -195.61)"/><path d="M914.09,394a12.85,12.85,0,0,0,.66-1.58s-1.13.26-2.93-1.87c-1.31-1.55-1.38-4.48-1.2-6.39-.34,1.13-.87,5.86.93,8A4.81,4.81,0,0,0,914.09,394Z" transform="translate(0 -195.61)"/><path d="M910.62,379.27a34.68,34.68,0,0,1,.13,4c0-.21.08-.41.14-.62a23.1,23.1,0,0,0,0-4.92s.07-2.67-.47-3.54a43.5,43.5,0,0,1-1.65-5.79,3.92,3.92,0,0,0-.93-2.53c-.93-.87-1.53-4.26-1.53-4.26a4.4,4.4,0,0,1-.68-2.87,5.81,5.81,0,0,0-1.13-3.46L902.23,348l-2.13-5.4-1.2,3.14s0,.39,0,1l1-2.55,2.13,5.39,2.27,7.19a5.81,5.81,0,0,1,1.13,3.46,4.4,4.4,0,0,0,.68,2.87s.6,3.4,1.53,4.26a3.92,3.92,0,0,1,.93,2.53,42.57,42.57,0,0,0,1.67,5.79C910.7,376.6,910.62,379.27,910.62,379.27Z" transform="translate(0 -195.61)"/></g><path class="cls-16" d="M916.21,256.76l-.5,2.43,0,1.08,0,.8-2.78.28-.31-.57h0a26.19,26.19,0,0,0-2.15-3.49c-.52-.43-1.43-7.19-.34-6.79a2.89,2.89,0,0,1,1.54,1.4S917.19,252.53,916.21,256.76Z" transform="translate(0 -195.61)"/><path class="cls-1" d="M915.76,261.07l-2.78.28-.31-.57h0a2.44,2.44,0,0,1,3.07-.5Z" transform="translate(0 -195.61)"/><path class="cls-4" d="M916.46,262.39l-3.66.84-.08-.54-.21-1.47a2.52,2.52,0,0,1,3.55-.48l.18.74Z" transform="translate(0 -195.61)"/><path class="cls-16" d="M857.11,257l-3.91,2.1-.34-.73c-.37-.78-.93-2-1.08-2.39-.23-.64-1.86-1.46-1.86-1.46-4.09-3.91.78-7.28.78-7.28,2.58-5.19,5.45,1.76,5.45,1.76s.4,3.67.12,3.92-.29,1.25-.29,1.25a15.09,15.09,0,0,1,.95,2.23C857.05,256.8,857.11,257,857.11,257Z" transform="translate(0 -195.61)"/><path class="cls-1" d="M857.11,257l-3.91,2.1-.34-.73c.55-.47,2.51-2.05,3.15-2a4.82,4.82,0,0,0,.93,0C857.05,256.8,857.11,257,857.11,257Z" transform="translate(0 -195.61)"/><path class="cls-4" d="M857.51,258.21l-4.4,2.16-.08-.94-.07-.66s2.55-2.18,3.3-2.09a4.43,4.43,0,0,0,1.15,0l.05.79Z" transform="translate(0 -195.61)"/><path class="cls-16" d="M905.56,272.91s-19.17,2.16-15.59,1a4.81,4.81,0,0,0,3.7-4.16,10,10,0,0,0-.72-4.42,19.57,19.57,0,0,0-1.7-3.47s14.64-8.05,11.72-.73a11.89,11.89,0,0,0-.83,3.47,9.9,9.9,0,0,0,.37,3.51A10.53,10.53,0,0,0,905.56,272.91Z" transform="translate(0 -195.61)"/><path class="cls-1" d="M903,261.12a11.89,11.89,0,0,0-.83,3.47c-1.38,1.16-2.89,1.08-4.84,1.08-1.49,0-3.14.36-4.34-.36a19.82,19.82,0,0,0-1.7-3.46S905.89,253.8,903,261.12Z" transform="translate(0 -195.61)"/><circle class="cls-16" cx="897.03" cy="62.65" r="7.92"/><path class="cls-1" d="M905.56,272.91s-19.17,2.16-15.59,1a4.81,4.81,0,0,0,3.7-4.16,10.62,10.62,0,0,1,4.08-2.17,5.71,5.71,0,0,1,3.47-.06,4.87,4.87,0,0,1,1.27.58A10.47,10.47,0,0,0,905.56,272.91Z" transform="translate(0 -195.61)"/><path class="cls-1" d="M916.46,262.39l-3.66.84-.08-.54a3.24,3.24,0,0,1,3.52-1.21Z" transform="translate(0 -195.61)"/><path class="cls-1" d="M857.51,258.21l-4.4,2.16-.08-.94a32.35,32.35,0,0,1,4.42-2Z" transform="translate(0 -195.61)"/><path class="cls-1" d="M913.14,321.2c-7.43,1.18-18,2.69-19.66,2.18-1.39-.42-5.84-.38-9.7-.24,0-1.94.07-3.22.07-3.22l28.76-3A24.71,24.71,0,0,0,913.14,321.2Z" transform="translate(0 -195.61)"/><path class="cls-12" d="M920.54,319.45s-24.44,4.2-27.06,3.41-16.09.06-16.09.06c-6.06,4.06-3.53-1.93-3.53-1.93a14.94,14.94,0,0,1,.2-5.66,34.07,34.07,0,0,0,1-5.66s-.13-4,.6-4.93,1.6-7.59,1.6-7.59.67-4.53.6-5.53.2-3.8.2-3.8l.87-4.66c-5-.66-20.18-10-20.18-10-.73-3.13-6.39-10.45-6.39-10.45a7.46,7.46,0,0,0-.47-1.8c-.4-1.06,5.6-3.2,5.6-3.2s4.46,5.45,5.39,6.93a29.49,29.49,0,0,0,4.13,4.2,3,3,0,0,1,1.46.19l.08,0h0a11.91,11.91,0,0,1,3,1.7,5.8,5.8,0,0,1,4.06,1.54s2.73-.41,3.2.06,2.79,0,2.79,0,2.33-4.93,3.87-3.5,8,1.36,8,1.36c.86-1.15,3-2,4.29-2.38a5.79,5.79,0,0,1,3.47-.06,4.57,4.57,0,0,1,1.36.68l4,3.87s1.13-1.47,1-1.8,1.34-.6,1.34-.6,1.93-.6,2.66-.8,1.4.59,1.46.66a8.12,8.12,0,0,1-.34-2.93,3.43,3.43,0,0,0-.8-2.38c2.33-5.73,7.59-.93,7.59-.93s.6,3.13.07,4.33.53,3.72.4,4.39.27,1.8.27,3.07a18.46,18.46,0,0,1-1.07,4.72c-.38,1.07-3.59,3.47-3.59,3.47s-.2,3.79-1.6,6-.53,9.71-.53,9.71,1.34,5.86,3,7.72S920.54,319.45,920.54,319.45Z" transform="translate(0 -195.61)"/><path class="cls-1" d="M884.91,275.64s-.73-2.2-1.4-2.39a15.78,15.78,0,0,1-1.93-.86l.43-.82s2.5.68,2.9,1.42A5.54,5.54,0,0,1,884.91,275.64Z" transform="translate(0 -195.61)"/><path class="cls-1" d="M871.53,270.78c-.13.68-6.06,1.26-6.06,1.26l3-3h0l.08,0h0A12,12,0,0,1,871.53,270.78Z" transform="translate(0 -195.61)"/><circle class="cls-17" cx="854.38" cy="66.03" r="0.53"/><circle class="cls-17" cx="855.06" cy="67.09" r="0.53"/><circle class="cls-17" cx="855.73" cy="68.08" r="0.53"/><circle class="cls-17" cx="856.43" cy="69.14" r="0.53"/><circle class="cls-17" cx="919.2" cy="69.08" r="0.43"/><circle class="cls-17" cx="919.26" cy="70.07" r="0.43"/><circle class="cls-17" cx="919.32" cy="71.05" r="0.43"/><path class="cls-1" d="M884.94,293.68c-.07-.08,14.95,18.88,26.6,7.93C911.55,301.61,893.14,304.11,884.94,293.68Z" transform="translate(0 -195.61)"/><path class="cls-1" d="M876.32,303.54s9,.24,9.93,2.83v2.69a1.79,1.79,0,0,1-1.68,0c-.9-.49-6.33-3.25-8.25-1.92Z" transform="translate(0 -195.61)"/><path class="cls-12" d="M876.49,303.54s8.59.23,9.49,2.7v2.56a1.68,1.68,0,0,1-1.6,0c-.87-.47-6.06-3.1-7.89-1.83Z" transform="translate(0 -195.61)"/><path class="cls-1" d="M881.23,284a28.38,28.38,0,0,0,3.48,6,23.51,23.51,0,0,0,5.45,5.27S881.38,285.27,881.23,284Z" transform="translate(0 -195.61)"/><path class="cls-1" d="M878.29,273.6s1.5,6.47,5.36,8.66Z" transform="translate(0 -195.61)"/><path class="cls-1" d="M876,274.25c0-.12-1.33,5.11,5,8C881,282.26,878.29,281.35,876,274.25Z" transform="translate(0 -195.61)"/><path class="cls-1" d="M915.21,269.91a44.66,44.66,0,0,1,4,3S917.11,269.78,915.21,269.91Z" transform="translate(0 -195.61)"/><path class="cls-14" d="M894.89,265.44a1.25,1.25,0,0,0,1.26,1.24h.1c2.42.15,4.93.25,7.15-.68a2.69,2.69,0,0,0,1.09-.73,4.34,4.34,0,0,0,.64-1.75,24.91,24.91,0,0,1,1.46-3.36,11.3,11.3,0,0,0,.78-6.05,4.14,4.14,0,0,0-.6-1.77c-.64-.91-1.81-1.28-2.66-2s-1.39-1.84-2.38-2.38a4.56,4.56,0,0,0-3-.27,15.92,15.92,0,0,0-5.58,2.09,2.86,2.86,0,0,1-1.86.64,2.54,2.54,0,0,1-1.37-1,7.4,7.4,0,0,0-.57,3.45,1.51,1.51,0,0,1,0,.52,1.62,1.62,0,0,1-.37.55,2,2,0,0,0-.38,2.49c.25.3.65.47.9.78.44.55.29,1.36.28,2.07a1.07,1.07,0,0,0,.18.7,1,1,0,0,0,1,.24,2.45,2.45,0,0,1,1-.1,1.77,1.77,0,0,1,.91.68A12.75,12.75,0,0,1,894.89,265.44Z" transform="translate(0 -195.61)"/><g class="cls-18"><path d="M904.78,264.67a2.74,2.74,0,0,1-1.09.72c-2.24.93-4.75.83-7.15.68a1.61,1.61,0,0,1-.75-.16,1.67,1.67,0,0,1-.62-1.08,12.37,12.37,0,0,0-2-4.68,1.74,1.74,0,0,0-.9-.7,2.85,2.85,0,0,0-1,.1,1,1,0,0,1-1-.23,1,1,0,0,1-.18-.7c0-.72.16-1.52-.29-2.07-.25-.31-.64-.48-.9-.79a1.55,1.55,0,0,1-.15-1.58,1.81,1.81,0,0,0-.11,2.12c.25.3.65.47.9.78a3.21,3.21,0,0,1,.28,2.07,1.09,1.09,0,0,0,.18.7,1,1,0,0,0,1,.23,2.61,2.61,0,0,1,1-.09,1.77,1.77,0,0,1,.91.68,12.49,12.49,0,0,1,2,4.69,1.2,1.2,0,0,0,1.34,1.24c2.42.15,4.93.26,7.15-.68a2.77,2.77,0,0,0,1.09-.72,2.08,2.08,0,0,0,.34-.64S904.8,264.64,904.78,264.67Z" transform="translate(0 -195.61)"/><path d="M889.36,253.12a1.18,1.18,0,0,0,.25-.4,1.51,1.51,0,0,0,0-.52,7.38,7.38,0,0,1,.37-2.87l-.05-.05a7.46,7.46,0,0,0-.57,3.46A2.41,2.41,0,0,1,889.36,253.12Z" transform="translate(0 -195.61)"/></g><path class="cls-1" d="M893.48,270.24s9.9,1.32,10.79-.17" transform="translate(0 -195.61)"/><path class="cls-1" d="M912.72,266.15s5.5,0,6.71,2.07" transform="translate(0 -195.61)"/><path class="cls-12" d="M943.51,450.07a8.76,8.76,0,0,1-6,2.22c-.56,0-1.33.11-1.33.67a.91.91,0,0,0,.16.45,5.47,5.47,0,0,0,3.07,2.41,10.68,10.68,0,0,0,3.7.23l3.63-.18c.68,0,1.36-.08,2-.16s1.43-.22,2.14-.34a28.28,28.28,0,0,1,5.28-.25,1.59,1.59,0,0,0,1.3-.34c.28-.34.14-1,0-1.5-.22-1,0-2.15-.2-3.21a5.63,5.63,0,0,0-3.7-3.94c-1.63-.62-4.53-1.33-6.07-.3S945,448.73,943.51,450.07Z" transform="translate(0 -195.61)"/><path class="cls-6" d="M947.11,388c.32,1.52,1.79,2.69,1.83,4.24,0,1.25-.85,2.29-1.49,3.36a22.47,22.47,0,0,0-1.52,3.44,52.46,52.46,0,0,1-4.47,8.89c-.85,1.36-1.8,2.82-1.61,4.4a6.8,6.8,0,0,0,.77,2.1l2.56,5.08a14.33,14.33,0,0,1,1.3,3.2c.22,1,.24,2,.37,2.94.41,3.12,1.87,6.25,1,9.27-.07.25-.34.57-.55.39a9.57,9.57,0,0,1,1.46,4.95,7,7,0,0,0,0,2.78,2.93,2.93,0,0,1,.4,1.1c0,.26-.12.5-.14.75-.08.72.59,1.32,1.27,1.55s1.43.21,2.12.42c1.33.4,2.28,1.54,3.41,2.33a7.23,7.23,0,0,0,3.92,1.28,1,1,0,0,0,.58-.12.93.93,0,0,0,.32-.7,3.9,3.9,0,0,0-1.4-3.38,1.55,1.55,0,0,1-.53-.55,1.25,1.25,0,0,1,0-.61,46.8,46.8,0,0,0-.15-8.37,12.56,12.56,0,0,1-.14-2.67,10.45,10.45,0,0,0,.22-2.22,11.88,11.88,0,0,0-.68-2.12,14.91,14.91,0,0,1-.34-3.95,35,35,0,0,0-1.12-6.81,5.16,5.16,0,0,0-1.06-2.46c-.53-.56-1.39-1.09-1.19-1.83a2.09,2.09,0,0,1,.49-.72,3,3,0,0,0,.6-2.22,1,1,0,0,0,1.15-.54,17.92,17.92,0,0,0,9-10.22,3.7,3.7,0,0,1,.4-.91A4.09,4.09,0,0,1,965.5,399a12.51,12.51,0,0,0,4.32-4.41,10.7,10.7,0,0,0,1.67-3.19,10.59,10.59,0,0,0,.23-2.31l.1-4a2.05,2.05,0,0,0-.07-.78,1.88,1.88,0,0,0-.44-.64,7.68,7.68,0,0,0-4.24-2.29c-1.09-.19-2.2-.15-3.3-.24-2.14-.18-4.25-.85-6.39-.69a10.23,10.23,0,0,0-7.94,5.56C948.89,387.08,948.3,388,947.11,388Z" transform="translate(0 -195.61)"/><path class="cls-4" d="M928.45,362a4.54,4.54,0,0,1-.25,1.82,1.26,1.26,0,0,1-1.49.76c.17-.39-.29-.83-.72-.79a1.33,1.33,0,0,0-.94.81,3,3,0,0,0-.27,1.85,7.73,7.73,0,0,1,.47,2.32c-.1.66-.58,1.31-.32,1.91a2.91,2.91,0,0,0,.61.74,2.08,2.08,0,0,1-.22,2.86l6.44.13a4.6,4.6,0,0,0,.8,3.14,19.78,19.78,0,0,0,14.73,9.61,1.28,1.28,0,0,0-.46,1.75,1.37,1.37,0,0,0,.15.21,1.83,1.83,0,0,0,2.07.12,15.15,15.15,0,0,0,1.77-1.33,5.43,5.43,0,0,1,3.64-1c.81.08,1.59.34,2.4.38,2.38.12,4.43-1.59,6.72-2.29,1.67-.52,3.57-.52,5-1.56a2,2,0,0,0,.93-1.92,3.35,3.35,0,0,0-.68-1.13,18.52,18.52,0,0,1-1.86-3.49,21,21,0,0,0-4.66-6.24,42.47,42.47,0,0,0-4.62-3.5,8.18,8.18,0,0,0-1.24-.75,15.22,15.22,0,0,1-1.71-.68,9.38,9.38,0,0,1-1.77-2c-1.28-1.5-3.24-2.18-4.81-3.35a11.45,11.45,0,0,0-3.25-2.2c-.61-.19-1.26-.2-1.88-.39-1.39-.42-2.4-1.65-3.77-2.15a14.87,14.87,0,0,0-3.4-.44,7.91,7.91,0,0,1-3.56-1.35,4.19,4.19,0,0,0-1.14-.66c-1.72-.53-1.86,2.69-2,3.8A36.47,36.47,0,0,0,928.45,362Z" transform="translate(0 -195.61)"/><path class="cls-10" d="M930.13,372.78c.29,3.14-2.08,6.18-1.39,9.25.15.65.43,1.28.53,1.94.29,1.82-.8,3.55-1.84,5.08l-8.92,13.09a8.32,8.32,0,0,1-1.27,1.57c-1.7,1.52-4.26,1.36-6.51,1.81a11.22,11.22,0,0,0-4.35,1.93.28.28,0,0,0-.06.39,3.74,3.74,0,0,0,3.24,1.52c.24.31,0,.77-.32,1-.48.34-1.14.42-1.24,1.23a1.39,1.39,0,0,0,.17.82,2.55,2.55,0,0,0,1.56,1.08c3.09.95,6.42-.72,8.73-3s4-5.11,6.24-7.41c1.26-1.27,2.69-2.35,4-3.59a45.38,45.38,0,0,0,6.52-8.44,9.16,9.16,0,0,0,1.42-2.87c.24-1.05.13-2.11.4-3.12a11.41,11.41,0,0,1,2.14-3.49,11.59,11.59,0,0,0,2.43-7.53,7.21,7.21,0,0,0-4.4-6.25,4,4,0,0,0-2.47-.15,5.89,5.89,0,0,0-2.52,2l-1.7,1.95a4.79,4.79,0,0,0-1,1.51,1.57,1.57,0,0,0,.34,1.66" transform="translate(0 -195.61)"/><path class="cls-4" d="M934.65,359.9a3.66,3.66,0,0,0-4.12,2.32,13,13,0,0,0-1.64,5.18,23.62,23.62,0,0,0,.59,4.32c.19,1.2-.28,2.42-.37,3.63a24.58,24.58,0,0,0,4.69-1.8,15.62,15.62,0,0,1,2.75-1.43c1.4-.46,3.75.34,5.08,1,.07-.93-.63-2.56-.56-3.5a3.89,3.89,0,0,1,.21-1.16,7.29,7.29,0,0,1,.71-1.12,4.58,4.58,0,0,0-.42-5.37,7.52,7.52,0,0,0-4.79-2,19.72,19.72,0,0,0-3.35-.11" transform="translate(0 -195.61)"/></g></svg>