<svg xmlns="http://www.w3.org/2000/svg" viewBox="0 0 1198.87 764.55"><defs><style>.cls-1,.cls-2{fill:#adacea;}.cls-1{opacity:0.52;}.cls-2{opacity:0.42;}.cls-3{fill:#3f3d56;}.cls-4{opacity:0.2;isolation:isolate;}.cls-5{fill:#ff484a;}.cls-6{fill:#2f2e41;}.cls-7{fill:#fbbebe;}.cls-8{fill:#575a89;}</style></defs><title>undraw_my_location_f9pr</title><g id="aca3dd23-1327-4457-bb54-cb32560b3b43"><path class="cls-1" d="M92.38,459.75c0-72.46,220.49-272.37,362.29-131.2C718.28,591,817,387.29,817,459.75"/><path class="cls-1" d="M817,459.75c0,72.47-162.21,83-362.3,83s-362.29-10.58-362.29-83"/><path class="cls-2" d="M840.93,436.67c49.35,76.22-106.72,113.25-241.55,113.25s-246.7-22.45-246.7-113.25-55.61,119.38,244.13-42.56c310.44-167.71,244.12-48.25,244.12,42.56"/></g><g id="Layer_2" data-name="Layer 2"><path class="cls-3" d="M947.61,336.18h-1.46v-40A23.15,23.15,0,0,0,923,273H838.25a23.16,23.16,0,0,0-23.16,23.16h0V515.64a23.15,23.15,0,0,0,23.16,23.15H923a23.14,23.14,0,0,0,23.15-23.15h0v-151h1.46Z"/><path class="cls-4" d="M941.22,296.34V515.48A17.27,17.27,0,0,1,924,532.77H838.77a17.28,17.28,0,0,1-17.29-17.27V296.34a17.28,17.28,0,0,1,17.27-17.29H849.1a8.21,8.21,0,0,0,4.51,10.7,8,8,0,0,0,3.1.61h48.55a8.21,8.21,0,0,0,7.61-11.31h11.06a17.27,17.27,0,0,1,17.29,17.26v0Z"/><path class="cls-3" d="M843,279.05V532.77h-4.2a17.16,17.16,0,0,1-3.27-.31V279.36a17.16,17.16,0,0,1,3.27-.31Z"/><rect class="cls-3" x="875.81" y="290.36" width="7.46" height="242.41"/><path class="cls-3" d="M929.93,280.11V531.7a17.29,17.29,0,0,1-6,1.07h-1.47V279.05h1.47A17.28,17.28,0,0,1,929.93,280.11Z"/><rect class="cls-3" x="821.48" y="321.3" width="119.74" height="7.46"/><rect class="cls-3" x="821.48" y="406.01" width="119.74" height="7.46"/><rect class="cls-3" x="877.3" y="447.81" width="60.09" height="7.46"/><rect class="cls-3" x="875.81" y="353.02" width="65.41" height="7.46"/><polygon class="cls-3" points="881.2 328.26 880.34 328.76 875.81 331.37 842.97 350.33 835.5 354.65 821.48 362.74 821.48 354.12 835.5 346.02 842.97 341.72 865.41 328.76 875.81 322.75 877.47 321.8 881.2 328.26"/><rect class="cls-3" x="821.48" y="487.75" width="119.74" height="7.46"/><path class="cls-5" d="M967.25,353.39c0,23.71-42.92,76.51-42.92,76.51s-42.92-52.8-42.92-76.51a42.92,42.92,0,1,1,85.84,0Z"/><circle class="cls-4" cx="924.33" cy="351.53" r="25.38"/><circle class="cls-5" cx="923.49" cy="352.09" r="9.45"/><path class="cls-5" d="M938.25,379.52a14.18,14.18,0,1,0-27.85,0Z"/><path class="cls-6" d="M969.05,318.85s-6.74-2.41-11.07,7.22A190.07,190.07,0,0,1,946.9,346.3l3.85,1s1-6.75,3.37-7.71l-1,8.67s28.9,10.11,41.9-1l-.48-3.38s1.93.49,1.93,3.38l1.44-1.45a25.72,25.72,0,0,0-5.78-6.74c-2.84-2.53-3.82-7.34-4.15-10.35a12.57,12.57,0,0,0-2.89-6.82C982.25,318.57,977,315,969.05,318.85Z"/><path class="cls-7" d="M1010,373.36s12.69,10.82,14.56,17.17-7.09,7.09-7.09,7.09L998,399.48s-.37,9-3.73,10.08-.69-14.81-.69-14.81l19-5.34-8.58-9Z"/><path class="cls-7" d="M950.64,384.55l-1.49,19.79-8.21,33.58s-7.47,15.31-1.12,15.68,6-14.56,6-14.56l11.94-31.72,1.12-21.65Z"/><polygon class="cls-7" points="957.36 527.87 957.36 542.42 966.32 540.19 963.7 526.75 957.36 527.87"/><polygon class="cls-7" points="1005.13 527.87 1005.13 542.42 1014.09 540.19 1011.48 526.75 1005.13 527.87"/><circle class="cls-7" cx="971.54" cy="337.53" r="12.32"/><path class="cls-7" d="M965.94,343.5s4.48,16.05-2.61,20.15,17.91,7.1,24.63-5.22c0,0-11.94-4.11-8.58-14.93Z"/><path class="cls-8" d="M957.36,365.52l-2.24-.75s-4.48,1.87-4.48,5.23-.75,16.79-.75,16.79L960,387.91Z"/><path class="cls-6" d="M958.85,405.44s-12.31,15.69-12.31,34.72,3,88.08,3,88.08,11.2,5.23,17.92-1.12l6-78.37,23.51,81s11.2,2.23,16.42-1.5L1003.26,476s-.37-61.95-11.57-66.43S958.85,405.44,958.85,405.44Z"/><path class="cls-6" d="M967.06,538s-9.7-5.23-10.45,1.86-1.12,11.57-1.12,11.57-1.12,8.59,9.33,6.72,6.72-7.09,6.72-7.09-3.73-6-3.73-7.47A51.49,51.49,0,0,0,967.06,538Z"/><path class="cls-6" d="M1004.17,537.78s8.84-6.6,10.62.31,2.8,11.28,2.8,11.28,2.37,8.32-8.24,8-7.69-6-7.69-6,2.82-6.45,2.6-7.93A51.94,51.94,0,0,1,1004.17,537.78Z"/><path class="cls-8" d="M993.19,360.3s4.85-2.62,9.7,3l9.7,11.2-7.46,8.21L991,374.1Z"/><path class="cls-6" d="M958.23,337.61a33.87,33.87,0,0,0,10.23-11.11s8,8.89,12.89,9.33.44-10.67.44-10.67l-8.89-2.22-8.44.89-6.67,4.44Z"/><path class="cls-8" d="M986.1,357.68s-5.23,8.26-20.9,4.32l-8.9,2.45-1.18.32s1.12,22.4,4.1,26.5,2.24,6.35,1.5,6.72-2.62-.37-1.5,1.49,2.62.75,1.12,1.87-2.24,5.22-2.24,5.22l35.09,4.48s-1.12-14.55,1.86-22a96.22,96.22,0,0,0,3.74-10.45l-2.24-18.66Z"/><circle class="cls-5" cx="928.06" cy="449.31" r="11.57"/></g></svg>