<svg id="_869a981d-5394-490d-9104-6940aaebaf2b" data-name="869a981d-5394-490d-9104-6940aaebaf2b" xmlns="http://www.w3.org/2000/svg" xmlns:xlink="http://www.w3.org/1999/xlink" viewBox="0 0 1701.9 836.78"><defs><style>.cls-1,.cls-2{fill:#ff3437;}.cls-1,.cls-5{opacity:0.1;isolation:isolate;}.cls-3{fill:url(#linear-gradient);}.cls-4{fill:#4c4981;}.cls-6{fill:#ae6e79;}.cls-7{fill:#444053;}.cls-8{fill:#fff;}</style><linearGradient id="linear-gradient" x1="1408.22" y1="125.02" x2="1408.22" y2="445.26" gradientTransform="matrix(1, 0, 0, -1, -98.04, 806.28)" gradientUnits="userSpaceOnUse"><stop offset="0" stop-color="gray" stop-opacity="0.25"/><stop offset="0.54" stop-color="gray" stop-opacity="0.12"/><stop offset="1" stop-color="gray" stop-opacity="0.1"/></linearGradient></defs><title>undraw_questions_75e0</title><ellipse class="cls-1" cx="1321.34" cy="677.63" rx="70.1" ry="6.91"/><path class="cls-1" d="M742.58,174.3c65.81-11.47,145.92-1.6,214.34,12.79,214.87,45.22,371.41,131.06,495.79,218.51,45,31.66,87.8,64.72,104.73,100.07,34.47,71.95-55.43,146.43-208.33,172.54-52,8.88-109.12,12.52-166.33,14.55-101.74,3.62-207.07,2.18-308-11.21-72-9.56-140-25-205.34-42C487.09,592.07,320.56,530.37,200.64,455c-52.59-33.06-97.08-70.33-98.36-108.48s51.7-76.47,138.88-83c36-2.68,74.17.11,111.36,3,54.77,4.23,110.27,8.68,164.41,6.84,55.93-1.92,128.67-12.17,138.87-37.22C666.59,209.26,676.86,185.76,742.58,174.3Z"/><path class="cls-2" d="M1000.47,638.1s33-2,29.09,21.12c0,0,.78,4.1-2.93,5.94,0,0-.05-1.71-3.38-1.13a14.81,14.81,0,0,1-3.58.17,7.39,7.39,0,0,1-4.38-1.81h0s-9.28-3.82-12.88-19c0,0-2.67-3.3-2.56-4.16l5.56,2.38s-1.9,4-.4,7.35c0,0,.17-7.2,1.25-7,.21,0,2.89,1.37,2.89,1.37s-3.27,7-.81,12.08c0,0-.93-8.62,1.83-11.57l3.92,2.29s-3.83,7.22-1.23,13.11c0,0-.68-9,2-12.56l3.55,2.73s-3.59,7.13-1.4,12c0,0,.28-10.53,2.17-11.33,0,0,3.11,2.74,3.58,3.87,0,0-2.46,5.17-.93,7.9,0,0,.93-7,1.7-7.05,0,0,3.09,4.65,3.42,7.83a17,17,0,0,0-2.67-8.27,9.32,9.32,0,0,1,4.74,2.45s-.48-3.29-5.5-3.57c0,0-2.56-3.52-3.25-3.74,0,0,5-.42,8,.93,0,0-2.67-3.11-8.94-1.7l-3.51-2.86s6.58-.9,9.37.1c0,0-3.21-2.73-10.31-.75l-3.82-2.28s5.61-1.21,9-.77c0,0-3.53-1.9-10.07.16l-2.73-1.23s4.1-.8,5.31-.93,1.26-.46,1.26-.46a14.21,14.21,0,0,0-7.71.85S1000.37,638.49,1000.47,638.1Z"/><ellipse class="cls-1" cx="1023.19" cy="667.18" rx="23.35" ry="3.94"/><path class="cls-2" d="M956.28,622.55s18.6-1.12,16.41,11.91a3.17,3.17,0,0,1-1.65,3.35s0-1-1.91-.64a8,8,0,0,1-2,.1,4.19,4.19,0,0,1-2.48-1h0s-5.22-2.17-7.27-10.71c0,0-1.5-1.87-1.45-2.34l3.14,1.36a5.66,5.66,0,0,0-.23,4.15s.1-4.06.69-4c.12,0,1.63.79,1.63.79s-1.85,3.94-.45,6.83c0,0-.54-4.86,1-6.53l2.21,1.3s-2.15,4.1-.68,7.39c0,0-.38-5.1,1.15-7.08l2,1.56s-2,4-.78,6.77c0,0,.16-5.94,1.22-6.38a12.14,12.14,0,0,1,2,2.18s-1.37,2.91-.53,4.45c0,0,.53-3.95,1-4a13.15,13.15,0,0,1,1.92,4.41,9.6,9.6,0,0,0-1.51-4.67,5.26,5.26,0,0,1,2.68,1.37s-.27-1.85-3.11-2a12.3,12.3,0,0,0-1.82-2.11,11.39,11.39,0,0,1,4.52.52s-1.5-1.75-5-1L965,627s3.71-.51,5.29,0c0,0-1.82-1.54-5.82-.41l-2.15-1.29a19,19,0,0,1,5-.43s-2-1.08-5.67.08l-1.54-.68s2.32-.46,3-.53.72-.26.72-.26a8.09,8.09,0,0,0-4.35.49S956.23,622.77,956.28,622.55Z"/><ellipse class="cls-1" cx="969.09" cy="638.94" rx="13.16" ry="2.23"/><path class="cls-2" d="M1413.8,635.08s22.46-1.37,19.83,14.35a3.85,3.85,0,0,1-2,4s0-1.16-2.3-.77a10,10,0,0,1-2.44.12,5.05,5.05,0,0,1-3-1.23h0s-6.32-2.61-8.77-12.93c0,0-1.82-2.25-1.75-2.82l3.79,1.61s-1.29,2.74-.27,5c0,0,.12-4.9.85-4.78.15,0,2,.94,2,.94s-2.22,4.79-.54,8.2c0,0-.64-5.86,1.24-7.87l2.67,1.55s-2.61,4.92-.84,8.93c0,0-.46-6.15,1.37-8.55l2.42,1.89s-2.45,4.85-1,8.2c0,0,.2-7.16,1.49-7.71a14.88,14.88,0,0,1,2.43,2.63s-1.68,3.52-.64,5.38c0,0,.64-4.78,1.16-4.78,0,0,2.11,3.16,2.33,5.33a11.53,11.53,0,0,0-1.81-5.63,6.34,6.34,0,0,1,3.22,1.67s-.32-2.24-3.75-2.44a14.21,14.21,0,0,0-2.2-2.54,13.76,13.76,0,0,1,5.47.63s-1.82-2.11-6.09-1.15l-2.39-2s4.48-.61,6.38.06c0,0-2.19-1.86-7-.5l-2.6-1.55a23.82,23.82,0,0,1,6.09-.53s-2.4-1.29-6.83.11l-1.86-.83s2.79-.56,3.61-.64.87-.31.87-.31a9.62,9.62,0,0,0-5.25.58S1413.74,635.33,1413.8,635.08Z"/><ellipse class="cls-1" cx="1429.27" cy="654.88" rx="15.89" ry="2.69"/><path class="cls-3" d="M1391.43,469.15a49.48,49.48,0,0,1-.74-7.29c0-2.93-4-5.53-4-5.53s-2.47-5.69-4.11-6.53-6.7-8.29-6.7-8.29a6.79,6.79,0,0,0-1.52-4,56.56,56.56,0,0,1-4.15-6.26h0c-.69-.83-.34-1.42-1.37-6.28,0-.25-.12-.5-.19-.73a1,1,0,0,0-.11-.32,8.18,8.18,0,0,0,1.93-8.49,3.43,3.43,0,0,0-1-1.51c-1.15-.94-3-.55-4.19-1.45l1.27-5.59c.3-1.36.46-3.09-.74-3.83a6.32,6.32,0,0,0-1.41-.47c-2-.69-3.24-2.85-3.77-4.94a17,17,0,0,1-.41-6.15c.23-2,.81-3.91,1-5.9a16.22,16.22,0,0,0-2.5-10.48,8.14,8.14,0,0,0-3.32-3.13c-1.26-.57-2.73-.68-3.92-1.37-2.54-1.62-2.41-5.47-4.44-7.67s-5.62-2.2-8.58-1.45-5.91,2.06-8.94,1.73c-2-.21-3.79-1.1-5.75-1.31a5.91,5.91,0,0,0-1.68.08v-.06a3.66,3.66,0,0,0-3.13,2.44,4.1,4.1,0,0,0-.09,1c0,.8.19,1.64.2,2.4a2.21,2.21,0,0,1-.55,1.69c-.39.42-1,.64-1.37,1.07a1.71,1.71,0,0,0-.5,1.25c0,1.22,1.52,2.29,2.54,2.79h0c-.27.27-.55.56-.8.85a18,18,0,0,0-4.52,11.95,18.26,18.26,0,0,0,11.1,16.67l-.15.44a24.7,24.7,0,0,1-1,2.59,5.1,5.1,0,0,0-4.29.47c-2,1.37-5.78,1.26-6.8,1s-11.62-1.59-12.47-1.26-2.54-1.17-3.64.84-1.62,3.1-2.74,3.6-3,2.09-2.79,2.43-2.81,2.34-2.81,2.34-2.63,2.74-4.15,3.1a24.44,24.44,0,0,0-4.75,2.43l-3.74,2.93s-2.79.42-2-1.51-1.53-4.35-1.53-4.35-4.75-9.63-4.75-11.62-3.9-10.47-3.9-10.47l-.48-.05-.22-.62c-.72-2-1.65-4.49-2.36-5.94-1.36-2.77-2.2-3.05-2.2-3.05s-16.46-12.36-27.15-8.59,19.51,15,22.23,16.16c1,.41,1.63,1.74,2.11,3.29a14.07,14.07,0,0,0-5.85,5.25s6.54,14.49,6.71,18.09,4.5,13.67,4.5,13.67,1.61,7.45,10.34,7c0,0,12,2.21,14.68,0s5-4,6.29-4.2a5,5,0,0,0,2.37-1.68s-4,25.12-5.94,27.3-19.23,30.38-13,35.42a124,124,0,0,0,15.52,10.26c.53.26,2.11-2.38,4.36-4.24v1.45c0,10,1.37,25.29,3.2,28.71,2.74,5,1.61,14.74,1.61,14.74a11.76,11.76,0,0,0,4.59,1.1c.08.32.18.68.27,1,1.49,5.65,3.92,14.4,5.16,16.72,1.86,3.52,3.22,14.66,3.22,14.66s1.1,10.94.68,12.47c-.16.58.55,5.14,1.68,10.94h0c-.68,7.85-2,23-2.2,28.47h0v.91h0a5,5,0,0,0,0,1,3.3,3.3,0,0,1-.11,1.56,27.71,27.71,0,0,1-1.84,4.39,20.17,20.17,0,0,0-.82,2.12,3.82,3.82,0,0,0-2,2.81c-.84,3.27-2.11,12.31-2.11,12.31s-.52,5.53-1.53,6.78-2,9.13,5.18,10.13,10.34-3.82,10.34-3.82l-.25-21.93v0a3.79,3.79,0,0,0,.38-.6v0c0-.1.1-.21.15-.34l.06-.16.11-.27a.14.14,0,0,1,0-.09,14.47,14.47,0,0,0,.61-6.53v-.92a3.42,3.42,0,0,1,0-.45c0-.24,0-.06,0-.08l0-.27v-.12a.45.45,0,0,1,.06-.27v-.07c.07-.31.15-.68.24-1v-.08l.1-.33h0c.1-.35.22-.68.34-1v-.07a1,1,0,0,1,.12-.32v0c.12-.33.25-.68.37-1l0-.09.11-.27,0-.08.26-.61h0l2,6.18s1.11,4.61.52,5.7.68,5.61,1.52,5.69l-.78,5.69a85.71,85.71,0,0,0-.76,9.47c-.06.36-.11.68-.15.9-.55,2.92.76,7.44.76,7.44,6.7,7.93,14.68.62,14.68.62s.93-4.19,0-5-.51-3.86-.51-3.86.42-7.46.51-12.9-4.45-10.25-4.45-10.25l-.26.23c-.82-2.14-1.77-4.62-1.57-5.74.34-1.92-.93-22.27-.93-22.27a121.47,121.47,0,0,0,.3-16.41h0c.11-.92.21-1.83.31-2.73.51-4.37.93-8.11,1.09-10.07h0v-.24a9,9,0,0,0,.06-1.08c0-.68,0-1.46.07-2.31.15-2.35.52-5,.52-5l1.78-10.81s1.37-5.27,3.32-8.2l.23-.37h0l.23-.42,0-.06.24-.45,0-.07c.27-.54.57-1.16.88-1.84,0-.06,0-.1.06-.16l.24-.52a.45.45,0,0,1,.09-.2l.21-.52a1,1,0,0,0,.09-.21c.09-.21.19-.42.28-.64l.13-.31.19-.48.17-.41.13-.31.18-.47a.56.56,0,0,1,.09-.21c.49-1.21,1-2.41,1.37-3.5h0l.37-1c4.35.27,7.3.51,7.3.51s1.37-9.8.93-16.24a60.75,60.75,0,0,1,1.08-13c.06-.33.11-.64.17-.91l.11.1c2.13,1.67,3.65-3.86,3.65-3.86s-.57-5.16-1.36-11.41l-.09-.62a31.21,31.21,0,0,0,3.72.56s.68-.06,1.62-.17a45,45,0,0,0,8.16,3.69l4.51-8.34a33.93,33.93,0,0,1,3-4.94c1.36-1.68,6.19-7,6.11-8s1.61-6.79,3.31-9.39S1391.52,469.57,1391.43,469.15Zm-18.83,6.36c-1.79.75-3.48,4.94-3.56,6.2s-2,6.78-3.91,7.45c-1.79.62-5.22,3.77-5.77,4.28-.56.05-1.2.12-1.86.23-.74-5.28-1.48-9.66-2-10.54-1.37-2.51,1.49-10.55,1.49-10.55s.28-8.12,2-10.05,1.37-6.78,1.37-6.78.42-2,.59-2.93,2.53,0,2.55,0h0s4.58,2.51,5.26,6.28,5.69,10.3,5.69,10.3-.77,2.26,0,3.41S1374.38,474.76,1372.6,475.51Z"/><path class="cls-4" d="M1249.89,404a13.67,13.67,0,0,1,13.67-6.44v9.78h-5.94l-4.64-1.18Z"/><path class="cls-5" d="M1249.89,404a13.67,13.67,0,0,1,13.67-6.44v9.78h-5.94l-4.64-1.18Z"/><path class="cls-6" d="M1264,400.1l-7.28,5.1s-.06-1-.25-2.42c-.36-2.63-1.17-6.59-2.93-7.36-2.67-1.17-32.42-12.37-21.87-16.13s26.74,8.57,26.74,8.57.84.29,2.17,3.05c.68,1.44,1.62,3.91,2.32,5.93C1263.56,398.66,1264,400.1,1264,400.1Z"/><polygon class="cls-4" points="1322.16 407.95 1322.98 407.56 1325.31 410.21 1323.41 414.27 1320.17 412.97 1320.92 409.73 1322.16 407.95"/><path class="cls-7" d="M1311.15,645.33s-2.09-.25-2.93,3-2.09,12.3-2.09,12.3-.5,5.52-1.5,6.78-2,9.11,5.1,10.11,10.19-3.83,10.19-3.83l-.25-21.91Z"/><path class="cls-7" d="M1335.93,646.31s4.47,4.79,4.39,10.21-.51,12.87-.51,12.87-.41,3,.51,3.85,0,5,0,5-7.86,7.29-14.46-.62c0,0-1.29-4.52-.76-7.43s2-16,2-16Z"/><path class="cls-6" d="M1347,546.37s-4.51,12.61-6.44,15.54-3.25,8.2-3.25,8.2l-1.76,10.78a61.05,61.05,0,0,0-.58,7.27c.08,2.43-4.35,37.78-4.35,37.78l-7,8.94s-3.09,6.27-2.59,8.89-.33,6.77-1.37,8c0,0-.16,8.2-.41,10s.92,7,0,7.94-13.21.51-13.54-1,1.5-8.78,1.5-8.78l1.09-7s2.17-3.84,1.67-5.1.92-4.17,1-4.43,2.34-4.34,1.93-5.93,2.63-35.31,2.63-35.31l8.6-60.42Z"/><path class="cls-5" d="M1347,546.37s-.68,1.9-1.62,4.39c-1.49,3.94-3.63,9.36-4.82,11.15-1.92,2.92-3.26,8.2-3.26,8.2l-1.75,10.79a59,59,0,0,0-.58,7.27c0,1-.65,7.06-1.47,14.09-1.26,10.75-2.88,23.68-2.88,23.68l-7,8.95s-.36.68-.8,1.76c-.88,2.05-2.12,5.38-1.79,7.1.5,2.59-.33,6.76-1.37,8,0,0-.17,8.2-.41,10s.92,7,0,7.94-13.21.51-13.54-1,1.5-8.77,1.5-8.77l1.09-7s2.17-3.84,1.66-5.1.93-4.17,1-4.43,2.34-4.34,1.93-5.93c-.32-1.21,1.36-21,2.15-30.4.27-3,.44-4.87.44-4.87l7.4-52,.6-4.19.6-4.25Z"/><path class="cls-6" d="M1339.48,672.06c.08.93-11.79,2.27-13.48,1.26s0-13.46,0-13.46l.77-5.67c-.83-.09-2.08-4.6-1.5-5.69s-.5-5.68-.5-5.68l-2-6.15-1.2-3.77c-2-4.31-4.79-16.61-6.54-25.8-1.11-5.77-1.81-10.31-1.66-10.89.42-1.51-.68-12.46-.68-12.46s-1.37-11.12-3.17-14.62c-1.23-2.33-3.61-11-5.09-16.69-.75-2.89-1.27-5-1.27-5s12.63-1.05,20.29-1.42c3.52-.17,6-.2,5.71.09s-.36,1.82-.35,4c0,5.74.84,15.83,1.68,18.54,1.17,3.76,2.34,15,1.84,16.13s-.33,8.36-.33,8.36a37.68,37.68,0,0,1,1.47,9.07,121.93,121.93,0,0,1-.28,16.33s1.25,20.31.91,22.23,2.68,7.94,2.68,9.11.83,9.11.83,9.11S1339.43,671.15,1339.48,672.06Z"/><path class="cls-6" d="M1346.08,427.93l-1.44,1.55-.93,1-5.47,5.88L1324.11,438l-7.52-2-1.85-.5s0-3.77.33-8.29c.48-5.81,1.62-12.85,4.35-14.77a11,11,0,0,0,3.18-4A23,23,0,0,0,1324,405c.06-.15.1-.29.15-.44a38.65,38.65,0,0,0,1.32-6.2s1.81-1,4.31-2.16c6.55-3.05,17.84-7.27,13.91,2.16a37.27,37.27,0,0,0-1.47,4.24c-.06.21-.12.42-.17.63-1.31,5.25-.44,8.43.54,10.19h0a6.76,6.76,0,0,0,.56.87,4.8,4.8,0,0,0,1,1l1.63,10.33.14.85Z"/><path class="cls-5" d="M1343.66,398.85c-.74,1.79.36-1.47,0,0-3,2.12-10,8.15-13.94,8.15-2.67,0-3.47-.48-5.75-1.52a37.57,37.57,0,0,0,1.47-6.63S1349.09,385.81,1343.66,398.85Z"/><path class="cls-6" d="M1349.68,387.86A18.23,18.23,0,0,1,1333.37,406c-.63.06-1.27.11-1.91.11a18.23,18.23,0,1,1,18.22-18.23Z"/><path class="cls-5" d="M1352.27,468.64l-2.6,6.77s-2.11.09-5.4.19c-11.12.36-35.62.81-36.72-2.05a7.43,7.43,0,0,1-.38-2.25c-.14-4.35,1.89-11,1.89-11s1.16-13.37,1.16-13.95-1-9.95-1-9.95l2-7.52,5.6-3.93s2.51,3.85,4,4.17a10.48,10.48,0,0,1,3.51,2.18s4.93,3,6.52,1.34,14-9,14-9l6.52,7.19Z"/><path class="cls-8" d="M1352.27,469.68l-2.6,6.76s-2.11.1-5.4.2H1344c-1.42.05-3,.1-4.79.13-8.83.2-21,.26-27.37-.68-2.39-.35-4-.84-4.22-1.51a6.59,6.59,0,0,1-.3-1.24c0-.32-.07-.68-.08-1-.14-4.35,1.89-11,1.89-11s1.17-13.38,1.17-14-1-9.95-1-9.95l2-7.52,3.85-2.69,1.75-1.23a27.59,27.59,0,0,0,1.92,2.53,5.09,5.09,0,0,0,2.09,1.64,10.53,10.53,0,0,1,3.51,2.18s4.93,3,6.52,1.34c1.21-1.28,8.73-5.88,12.2-8,1.07-.65,1.76-1.05,1.76-1.05l.87,1,5.65,6.22Z"/><path class="cls-5" d="M1264,400.1l-7.28,5.1s-.06-1-.25-2.42a14.62,14.62,0,0,0,6.41-5.94C1263.56,398.66,1264,400.1,1264,400.1Z"/><path class="cls-4" d="M1289.58,417.4,1288,417s-2.6,2.73-4.1,3.1a23.69,23.69,0,0,0-4.68,2.42l-3.68,2.92s-2.74.42-1.92-1.5-1.51-4.35-1.51-4.35-4.68-9.61-4.68-11.62-3.87-10.44-3.87-10.44-4.85,9.44-13.71,6.44c0,0,6.44,14.45,6.61,18.05s4.42,13.62,4.42,13.62,1.6,7.44,10.2,7c0,0,11.87,2.21,14.46,0s4.93-3.94,6.16-4.19a5.11,5.11,0,0,0,2.33-1.67v-9.94Z"/><path class="cls-5" d="M1274.7,426.84s2.1,7.78.76,8.61Z"/><path class="cls-5" d="M1344.27,476.61c-11.12.35-35.62.8-36.72-2.05a7.53,7.53,0,0,1-.38-2.25l36.33,1.91Z"/><path class="cls-5" d="M1347,546.37s-.68,1.9-1.62,4.39c-4.61-.28-10.72-.57-16.52-.61-2,0-4.06,0-6,.07a44.57,44.57,0,0,0-9.74,1.08,26,26,0,0,1-8.68,1.12c-.75-2.89-1.27-5-1.27-5s12.63-1.06,20.29-1.43l.6-4.25Z"/><path class="cls-7" d="M1356.78,515.78l-1.42,3s-.2.9-.45,2.32a59.08,59.08,0,0,0-1.05,13c.41,6.43-.93,16.21-.93,16.21s-30.75-2.59-39.77,0-13.47,0-13.47,0,1.1-9.69-1.58-14.71c-1.83-3.42-3.11-18.67-3.15-28.71,0-4.62.23-8.13.81-8.84,1.84-2.26,9.69-24.82,9.69-24.82l1.79.09,4.79.25,27.2,1.44,4.27.22.45,1.37Z"/><path class="cls-4" d="M1370.32,505.74l.26,2.68s-13.48-4.39-12.79-9.78,0-4.78,0-4.78l10.82.91Z"/><path class="cls-5" d="M1370.32,505.74l.26,2.68s-13.48-4.39-12.79-9.78,0-4.78,0-4.78l10.82.91Z"/><path class="cls-5" d="M1283.69,429a12.08,12.08,0,0,0,4.75,2.47,3.16,3.16,0,0,1-1.37-.68c-1-.69-1.88-1.43-2.81-2.16a8.78,8.78,0,0,0-2.61-1.8A14.45,14.45,0,0,0,1283.69,429Z"/><path class="cls-5" d="M1283.9,432.52a6.3,6.3,0,0,1,1,1.65,10,10,0,0,1-.08,5.17l-2.16-5.21c-.37-.88-.75-1.77-1.2-2.62-.2-.36-1.44-1.87-1.3-2.19C1280.58,428.43,1283.49,432,1283.9,432.52Z"/><path class="cls-5" d="M1344.16,461.36a6.94,6.94,0,0,0,3.93-1.83c-2.22.28-4.33,1.15-6.51,1.61a9.73,9.73,0,0,1-6.07-.56A14.87,14.87,0,0,0,1344.16,461.36Z"/><path class="cls-5" d="M1337.88,446.06a1.51,1.51,0,0,1-1.13-.28c-1.67-1-3.31-1.95-4.93-3a32.73,32.73,0,0,1-4.84-3.34C1330.3,442.45,1333.39,445,1337.88,446.06Z"/><path class="cls-5" d="M1342.51,463.79a10.39,10.39,0,0,0,2.61-.21,3.52,3.52,0,0,0,2.15-1.41,1.25,1.25,0,0,0-.91.14,15.27,15.27,0,0,1-8.39,1A12.18,12.18,0,0,0,1342.51,463.79Z"/><path class="cls-5" d="M1326.68,502.6a27.71,27.71,0,0,1-5.34,1,31.33,31.33,0,0,1-4.22-.08l-6.83-.43-3.42-.22c-.4,0-2,0-1.24-.81.41-.4,2.69-.14,3.28-.16,1.14,0,2.28-.06,3.42-.07,2.26,0,4.53,0,6.79.14C1321.66,502.13,1324.15,502.32,1326.68,502.6Z"/><path class="cls-5" d="M1318.76,506c-1.16-.05-2.66.64-3.85.79a26,26,0,0,1-4,.16,22.53,22.53,0,0,1-7.77-1.58C1308.32,505.61,1313.55,505.77,1318.76,506Z"/><path class="cls-5" d="M1304.12,509.56a11,11,0,0,1,1.49.41c2.89.82,6,.1,8.89-.63a5.22,5.22,0,0,1-3.37,1.88,15.78,15.78,0,0,1-6.56.24c-.69-.14-2.4-.39-2.74-1.1C1301.27,509.32,1303.48,509.46,1304.12,509.56Z"/><path class="cls-5" d="M1320.29,515a20.53,20.53,0,0,1,2.56.68c3.25.81,6.61-.3,9.87-1a45.79,45.79,0,0,1,12-1.1,11.28,11.28,0,0,0-2.56.84c-.93.28-1.86.54-2.8.77-1.84.45-3.7.82-5.58,1.09a57.91,57.91,0,0,1-11.47.49c-1.75-.09-4.78.09-6.28-.8A7,7,0,0,1,1320.29,515Z"/><path class="cls-5" d="M1321.52,411.87s.16,7.7-1.09,11.21c-.4,1.1-1,3.11-1.68,5.38-.73,2.5-1.53,5.31-2.15,7.51l-1,3.68s-2.83,23-3.56,34a2.69,2.69,0,0,1,0,.57q-.06.93-.21,1.92c-1.63,10.88-11,27.66-14.16,29a9.3,9.3,0,0,0-2.65,1.83c0-4.63.23-8.14.81-8.85,1.84-2.25,9.69-24.82,9.69-24.82l1.79.1c0-.32-.07-.69-.08-1-.14-4.35,1.89-11,1.89-11s1.16-13.37,1.16-13.95-1-10-1-10l2-7.51,3.85-2.7c.48-5.8,1.62-12.85,4.34-14.77a10.75,10.75,0,0,0,3.18-4c.54.07-.44-.4-.44-.4Z"/><path class="cls-4" d="M1323,407.56a5,5,0,0,0-4.24.48c-1.92,1.37-5.68,1.25-6.69,1s-11.44-1.59-12.3-1.25-2.51-1.17-3.59.84-1.59,3.09-2.68,3.59-3,2.09-2.73,2.42S1288,417,1288,417l6.09,19.82s-3.93,25.07-5.85,27.24-19,30.34-12.87,35.36a120.77,120.77,0,0,0,15.3,10.25c.68.34,3.09-4.17,6.43-5.6s13.71-20.23,14.35-30.92,3.6-34.52,3.6-34.52,3.59-13,4.84-16.55,1.09-11.21,1.09-11.21Z"/><path class="cls-5" d="M1356.78,515.78l-1.42,3s-.2.9-.45,2.32a1.25,1.25,0,0,1-.68-.31c-2.09-1.67-14.36-14.29-15-25.49-.44-8.26-.23-15.39-.09-18.56,0-1,.08-1.6.08-1.73h0s9.53-11.53,8.44-15.62-3.6-26-3.6-26l-.36-2.87-.64-4.86L1341.58,414l1.57.37a4.55,4.55,0,0,0,.95,1l1.63,10.33,5.65,6.22.92,37.87-2.6,6.76s-2.11.1-5.4.2H1344Z"/><path class="cls-4" d="M1362.05,453.27s-2.34-.92-2.51,0-.58,2.92-.58,2.92.41,4.85-1.37,6.77-2,10-2,10-2.82,8-1.48,10.53c.48.91,1.23,5.47,2,10.94.48,3.42,1,7.17,1.37,10.6.76,6.23,1.33,11.39,1.33,11.39s-1.51,5.52-3.6,3.84-14.36-14.29-15-25.49c-.41-7.87-.24-14.7-.11-18.07.06-1.43.11-2.24.11-2.24s9.53-11.53,8.44-15.63-3.59-26-3.59-26l-.44-3.38-.47-3.64-.11-.8-1.51-11.62h0c.26.06,9.64,2.18,10.88,3.42s8.88,3,8.88,3a6.68,6.68,0,0,1,4.75,4.86c.07.24.13.48.18.74,1,4.85.69,5.43,1.37,6.27S1362.05,453.27,1362.05,453.27Z"/><path class="cls-5" d="M1357.47,505.05c-3.42-.68-8.49-2.26-8.38-5.75.11-3.26,4-4.43,7-4.85C1356.57,497.85,1357,501.62,1357.47,505.05Z"/><path class="cls-6" d="M1368.07,503.32c-.14.29-.69.54-1.47.77a39.89,39.89,0,0,1-5.55.91s-11.62-.93-11.46-6.2c.13-3.77,5.37-4.78,8.32-5,.65-.06,1.31-.08,2-.08C1359.87,493.71,1368.57,502.24,1368.07,503.32Z"/><path class="cls-5" d="M1368.07,503.32c-.14.29-.69.54-1.47.77-3-4.06-7.25-9.26-9.32-9.71l.63-.59c.65-.06,1.31-.08,2-.08C1359.87,493.71,1368.57,502.24,1368.07,503.32Z"/><path class="cls-4" d="M1365.14,431.19l3.42.5a57.71,57.71,0,0,0,4.1,6.27,6.77,6.77,0,0,1,1.5,4s5,7.44,6.61,8.27,4,6.52,4,6.52,3.93,2.59,3.93,5.52a49.23,49.23,0,0,0,.75,7.27c.09.42-.58,5.61-2.26,8.2s-3.34,8.33-3.26,9.35-4.68,6.36-6,8a35,35,0,0,0-2.93,4.93l-4.42,8.36s-9.37-13.79-12.79-14.54c0,0,3.84-3.68,5.76-4.35s3.77-6.15,3.85-7.44,1.75-5.43,3.5-6.15,2.68-1.5,1.93-2.68,0-3.41,0-3.41-4.93-6.52-5.6-10.26-5.18-6.26-5.18-6.26l-2.59-6.36Z"/><path class="cls-5" d="M1377.57,462.39a10.89,10.89,0,0,1,6.75-2.56,8.36,8.36,0,0,0-4.42,1.73,10.9,10.9,0,0,0-1.22,1.56c-.4.57-3.62,4.67-4.1,4C1373.78,466.19,1376.92,462.94,1377.57,462.39Z"/><path class="cls-5" d="M1370,458.43a2.89,2.89,0,0,0,2.39-1.69,9.47,9.47,0,0,0,.74-3,46.16,46.16,0,0,1,1-5.08,2.35,2.35,0,0,0-.14-2.05,6.89,6.89,0,0,0-.74-1.52c-.61.69-.79,2.28-1,3.19-.32,1.14-.61,2.28-.88,3.42C1371.22,452.29,1370.08,458.43,1370,458.43Z"/><path class="cls-5" d="M1367,424.69a7.2,7.2,0,0,1-1.15,1.19c-1.37,1.09-3.18,2-3.35,3.72a3.83,3.83,0,0,1-.21,1.64c-.43.76-1.51.69-2.36.54a4.12,4.12,0,0,1-2-.73c-.9-.77-1-2.14-1.67-3.1a4.19,4.19,0,0,0-3.41-1.51c-1.28,0-2.55.24-3.83.3a10.56,10.56,0,0,1-2.45-.16c-.27-.05-.54-.1-.8-.17a9.57,9.57,0,0,1-1.66-.57,6.73,6.73,0,0,1-.82-.38,11,11,0,0,1-2.36-1.64,5.83,5.83,0,0,1-2.18-4.43c.06-1.05.53-2,.68-3.05.51-2.95-1.45-5.74-3.57-7.85-.85-.84-1.75-1.65-2.6-2.51a12.49,12.49,0,0,1-3.06-4.36,13,13,0,0,1-.54-5.47,37.52,37.52,0,0,0,.15-5.61c-.62-6.65-6.3-11.74-12-14.51l-.25-.13a18.21,18.21,0,1,1,24.5,26.66c-.06.21-.12.42-.16.63-1.32,5.25-.45,8.43.53,10.19h0c.26.06,9.64,2.18,10.88,3.42s8.88,3,8.88,3A6.68,6.68,0,0,1,1367,424.69Z"/><path class="cls-7" d="M1316.42,371.08c.38-.43.95-.64,1.33-1.06,1.18-1.29,0-3.38.43-5.08.47-1.88,2.78-2.7,4.7-2.5s3.73,1.09,5.66,1.3c3,.34,5.89-1,8.81-1.72s6.45-.8,8.46,1.44,1.87,6,4.37,7.66c1.16.74,2.61.83,3.86,1.37a7.87,7.87,0,0,1,3.27,3.12,16.34,16.34,0,0,1,2.47,10.46c-.21,2-.78,3.91-1,5.89a17,17,0,0,0,.41,6.16c.52,2.05,1.66,4.26,3.71,4.92a5.92,5.92,0,0,1,1.36.47c1.19.74,1,2.47.73,3.83l-1.22,5.61c1.17.89,3,.5,4.1,1.44a3.43,3.43,0,0,1,1,1.5,8.21,8.21,0,0,1-2.45,9c-1.37,1.09-3.18,2-3.35,3.71a3.86,3.86,0,0,1-.21,1.65c-.43.75-1.51.69-2.36.54a4,4,0,0,1-2-.74c-.9-.76-1-2.13-1.66-3.09a4.21,4.21,0,0,0-3.42-1.51c-1.28,0-2.55.24-3.83.3a11.28,11.28,0,0,1-8.06-2.91,5.84,5.84,0,0,1-2.19-4.44c.06-1,.53-2,.68-3,.51-2.95-1.45-5.74-3.58-7.85s-4.62-4.06-5.65-6.87c-1.3-3.48,0-7.36-.39-11.05-.63-6.65-6.3-11.74-12-14.51C1317.11,374.41,1315,372.76,1316.42,371.08Z"/><path class="cls-5" d="M1361.12,428.48c-.9-.77-1-2.13-1.66-3.09a4.23,4.23,0,0,0-3.42-1.52c-1.28,0-2.55.25-3.83.31a11.33,11.33,0,0,1-8.09-2.92,5.88,5.88,0,0,1-2.18-4.44c.06-1,.53-2,.68-3,.51-2.95-1.45-5.75-3.57-7.86s-4.62-4.06-5.66-6.87c-1.29-3.47,0-7.35-.39-11.05-.63-6.65-6.3-11.73-12-14.51-1.33-.65-3.48-2.3-2-4,.37-.43.94-.65,1.32-1.07,1.18-1.27,0-3.38.44-5.07a2.72,2.72,0,0,1,.43-.93,3.61,3.61,0,0,0-3.08,2.44c-.42,1.69.75,3.79-.43,5.07-.39.42-1,.64-1.33,1.06-1.47,1.68.68,3.33,2,4,5.68,2.78,11.34,7.87,12,14.51.35,3.7-.91,7.58.39,11.06,1,2.8,3.54,4.79,5.66,6.87s4.1,4.9,3.58,7.85a26.38,26.38,0,0,0-.69,3.05,5.88,5.88,0,0,0,2.2,4.43,11.27,11.27,0,0,0,8.08,2.92c1.28-.06,2.54-.34,3.83-.31a4.26,4.26,0,0,1,3.42,1.52c.68,1,.76,2.33,1.66,3.1a4.22,4.22,0,0,0,2,.73c.86.15,1.94.21,2.37-.54a1.84,1.84,0,0,0,.19-1A3.88,3.88,0,0,1,1361.12,428.48Z"/><path class="cls-2" d="M1261.63,387.86h-47.28V341.28h47.31Zm-.68-70.24H1215c0-72.39,68.81-68.16,68.81-114,0-25.23-20.65-45.44-45.87-45.44s-45.87,21.79-45.87,46.16h-45.88a91.59,91.59,0,0,1,91.43-91.74h.32c50.67,0,91.74,40.42,91.74,91,0,57.27-68.81,63.79-68.81,114Z"/><path class="cls-1" d="M1025.84,374h-12.19V362h12.19Zm-.19-18.11h-11.82c0-18.66,17.74-17.57,17.74-29.39a11.77,11.77,0,0,0-11.82-11.72h0A12.06,12.06,0,0,0,1008,326.66H996.12a23.66,23.66,0,0,1,47.31-.19c0,14.77-17.78,16.45-17.78,29.38Z"/><path class="cls-1" d="M1118.16,457.65H1106v-12h12.19Zm-.18-18.1h-11.82c0-18.67,17.74-17.57,17.74-29.39a11.77,11.77,0,0,0-11.81-11.72h0a12.09,12.09,0,0,0-11.86,11.91h-11.82a23.65,23.65,0,0,1,47.3-.18C1135.71,424.93,1118,426.62,1118,439.55Z"/><path class="cls-1" d="M1174.3,309.54h-8.83v-8.68h8.83Zm-.13-13.12h-8.57c0-13.52,12.86-12.74,12.86-21.29a8.52,8.52,0,0,0-8.57-8.49h0a8.74,8.74,0,0,0-8.57,8.62h-8.57a17.14,17.14,0,1,1,34.28-.13C1187,285.82,1174.17,287,1174.17,296.42Z"/><path class="cls-1" d="M1325.24,321.81h-5v-4.92h5Zm-.07-7.42h-4.88c0-7.64,7.27-7.2,7.27-12a4.78,4.78,0,0,0-4.79-4.78h0a5,5,0,0,0-4.85,4.87H1313a9.69,9.69,0,0,1,19.37-.07C1332.43,308.38,1325.17,309.09,1325.17,314.39Z"/><path class="cls-1" d="M1401.63,545.62h-5V540.7h5Zm-.08-7.41h-4.85c0-7.65,7.28-7.2,7.28-12a4.81,4.81,0,0,0-4.85-4.78,4.94,4.94,0,0,0-4.85,4.87h-4.84a9.69,9.69,0,0,1,19.38-.08c0,6-7.24,6.73-7.24,12Z"/></svg>